<svg width="167" height="102" viewBox="0 0 167 102" fill="none" xmlns="http://www.w3.org/2000/svg">
<path d="M96.1445 61.1973L96.6719 60.3711L97.2051 59.5684C97.084 59.5293 96.9473 59.4766 96.7949 59.4102L96.1445 61.1973ZM93.4492 54.4766C93.4492 54.7852 93.4941 55.1055 93.584 55.4375C93.6699 55.7695 93.8086 56.1016 94 56.4336C94.1914 56.7656 94.4395 57.0938 94.7441 57.418C95.0527 57.7422 95.4238 58.0508 95.8574 58.3438L96.6777 56.0176C96.8613 55.4902 97 55.0762 97.0938 54.7754C97.2109 54.4121 97.2695 54.0684 97.2695 53.7441C97.2695 53.4199 97.2285 53.1426 97.1465 52.9121C97.0684 52.6777 96.9609 52.4863 96.8242 52.3379C96.6875 52.1855 96.5293 52.0742 96.3496 52.0039C96.1738 51.9336 95.9863 51.8984 95.7871 51.8984C95.5176 51.8984 95.2441 51.959 94.9668 52.0801C94.6934 52.2012 94.4434 52.375 94.2168 52.6016C93.9902 52.8242 93.8066 53.0957 93.666 53.416C93.5215 53.7324 93.4492 54.0859 93.4492 54.4766ZM96.9531 58.9707C97.0273 59.0098 97.1094 59.0508 97.1992 59.0938L97.457 59.2051L98.5234 57.6934L99.543 56.3164L100.469 55.1094L101.248 54.1016L101.84 53.3281C102.004 53.1133 102.123 52.9453 102.197 52.8242L102.244 52.7539L102.355 52.5898L102.49 52.4023C102.533 52.3438 102.566 52.3027 102.59 52.2793L102.689 52.1738C102.74 52.1973 102.779 52.2266 102.807 52.2617C102.838 52.2969 102.859 52.332 102.871 52.3672C102.887 52.4023 102.896 52.4375 102.9 52.4727C102.904 52.5039 102.906 52.5312 102.906 52.5547L102.924 52.8535C102.932 52.9902 102.938 53.1348 102.941 53.2871C102.949 53.4395 102.953 53.5996 102.953 53.7676C102.953 54.3184 102.938 54.8906 102.906 55.4844C102.875 56.0742 102.834 56.668 102.783 57.2656C102.736 57.8633 102.684 58.457 102.625 59.0469L102.443 60.7461L102.895 59.7148L103.434 58.5664L104.031 57.3359L104.652 56.0996L105.262 54.8984L105.83 53.7852L106.328 52.8242L106.721 52.0566C106.799 51.9043 106.875 51.7832 106.949 51.6934C107.027 51.5996 107.109 51.5273 107.195 51.4766C107.285 51.4219 107.379 51.3848 107.477 51.3652C107.578 51.3457 107.689 51.3359 107.811 51.3359C107.943 51.3359 108.061 51.3613 108.162 51.4121C108.264 51.459 108.35 51.5215 108.42 51.5996C108.49 51.6738 108.543 51.7598 108.578 51.8574C108.613 51.9512 108.631 52.0449 108.631 52.1387C108.631 52.2207 108.617 52.3008 108.59 52.3789C108.566 52.4531 108.527 52.5195 108.473 52.5781C108.418 52.6367 108.35 52.6836 108.268 52.7188C108.186 52.7539 108.09 52.7715 107.98 52.7715C107.848 52.7715 107.703 52.834 107.547 52.959C107.391 53.084 107.227 53.248 107.055 53.4512C106.887 53.6504 106.717 53.8789 106.545 54.1367L106.041 54.9336L105.578 55.7129L105.191 56.3867L104.453 57.9102L103.668 59.5625L102.824 61.3789L101.939 63.3887C101.877 63.5293 101.801 63.6504 101.711 63.752C101.625 63.8535 101.533 63.9082 101.436 63.916C101.334 63.916 101.254 63.8848 101.195 63.8223C101.141 63.7637 101.1 63.6777 101.072 63.5645C101.045 63.4551 101.027 63.3223 101.02 63.166C101.016 63.0137 101.014 62.8438 101.014 62.6562C101.014 62.2734 101.023 61.8633 101.043 61.4258C101.062 60.9844 101.09 60.5352 101.125 60.0781C101.16 59.6211 101.199 59.166 101.242 58.7129C101.285 58.2598 101.328 57.8262 101.371 57.4121C101.418 56.9941 101.463 56.6055 101.506 56.2461C101.549 55.8867 101.588 55.5742 101.623 55.3086L101.711 54.6875C101.73 54.5508 101.742 54.4766 101.746 54.4648L100.551 56.0762L99.9883 56.8379L99.3613 57.6758L98.7109 58.5547L98.0605 59.4395C98.3926 59.5605 98.7344 59.6719 99.0859 59.7734C99.4414 59.875 99.8262 59.9688 100.24 60.0547L100.17 60.207C99.7324 60.1641 99.3203 60.1055 98.9336 60.0312C98.5469 59.957 98.1758 59.8691 97.8203 59.7676L95.752 62.5391L95.4414 62.9609C95.332 63.1172 95.2188 63.2637 95.1016 63.4004C94.9883 63.541 94.875 63.6582 94.7617 63.752C94.6484 63.8457 94.543 63.8926 94.4453 63.8926C94.4141 63.8926 94.375 63.8848 94.3281 63.8691C94.2812 63.8574 94.2363 63.8379 94.1934 63.8105C94.1504 63.7832 94.1133 63.752 94.082 63.7168C94.0508 63.6816 94.0352 63.6426 94.0352 63.5996C94.0352 63.5879 94.0742 63.4688 94.1523 63.2422L94.4805 62.293L94.9961 60.8047L95.6758 58.8594C95.1758 58.5625 94.7461 58.2363 94.3867 57.8809C94.0273 57.5254 93.7324 57.1562 93.502 56.7734C93.2715 56.3906 93.1016 56.0039 92.9922 55.6133C92.8828 55.2188 92.8281 54.8359 92.8281 54.4648C92.8281 53.9766 92.9238 53.5469 93.1152 53.1758C93.3066 52.8047 93.5566 52.4941 93.8652 52.2441C94.1699 51.9941 94.5156 51.8047 94.9023 51.6758C95.2852 51.5508 95.6699 51.4883 96.0566 51.4883C96.3887 51.4883 96.707 51.5352 97.0117 51.6289C97.3203 51.7227 97.5918 51.8633 97.8262 52.0508C98.0645 52.2383 98.2539 52.4727 98.3945 52.7539C98.5352 53.0352 98.6055 53.3652 98.6055 53.7441C98.6055 53.9785 98.5781 54.2285 98.5234 54.4941C98.4766 54.748 98.3945 55.0332 98.2773 55.3496L96.9531 58.9707ZM110.244 57.2363C110.466 57.2363 110.664 57.2812 110.836 57.3711C111.011 57.4609 111.158 57.584 111.275 57.7402C111.396 57.8926 111.488 58.0723 111.55 58.2793C111.613 58.4863 111.644 58.707 111.644 58.9414C111.644 59.0781 111.629 59.2285 111.597 59.3926C111.566 59.5566 111.521 59.7266 111.463 59.9023C111.404 60.0742 111.332 60.2461 111.246 60.418C111.164 60.5898 111.072 60.748 110.97 60.8926C111.045 60.8535 111.134 60.8047 111.24 60.7461C111.345 60.6875 111.457 60.625 111.574 60.5586C111.695 60.4883 111.82 60.416 111.949 60.3418C112.082 60.2676 112.211 60.1953 112.336 60.125L113.244 59.5918C113.271 59.5762 113.308 59.5684 113.355 59.5684C113.445 59.5684 113.49 59.6152 113.49 59.709C113.49 59.8379 113.408 59.9609 113.244 60.0781C113.103 60.1719 112.92 60.2891 112.693 60.4297C112.466 60.5703 112.22 60.709 111.955 60.8457C111.693 60.9785 111.425 61.0977 111.152 61.2031C110.882 61.3047 110.631 61.3633 110.396 61.3789C110.091 61.6055 109.734 61.7891 109.324 61.9297C108.914 62.0664 108.435 62.1348 107.888 62.1348C107.619 62.1348 107.39 62.1113 107.203 62.0645C107.019 62.0176 106.871 61.9492 106.757 61.8594C106.644 61.7695 106.562 61.6602 106.511 61.5312C106.461 61.3984 106.435 61.2461 106.435 61.0742C106.435 60.8242 106.486 60.5566 106.588 60.2715C106.689 59.9863 106.814 59.709 106.963 59.4395C107.115 59.166 107.277 58.9121 107.449 58.6777C107.621 58.4434 107.777 58.25 107.918 58.0977C107.793 58.207 107.615 58.3379 107.384 58.4902C107.158 58.6426 106.9 58.8066 106.611 58.9824C106.326 59.1543 106.021 59.334 105.697 59.5215C105.377 59.709 105.058 59.8945 104.742 60.0781C104.695 60.0977 104.652 60.1074 104.613 60.1074C104.562 60.1074 104.523 60.0938 104.496 60.0664C104.468 60.0352 104.455 59.9961 104.455 59.9492C104.455 59.8945 104.478 59.8379 104.525 59.7793C104.568 59.7168 104.64 59.6543 104.742 59.5918C105.336 59.2441 105.841 58.9453 106.259 58.6953C106.677 58.4414 107.039 58.2266 107.343 58.0508C107.648 57.875 107.914 57.7344 108.14 57.6289C108.367 57.5234 108.584 57.4414 108.791 57.3828C109.002 57.3242 109.22 57.2852 109.447 57.2656C109.674 57.2461 109.939 57.2363 110.244 57.2363ZM107.9 61.6309C108.146 61.6309 108.386 61.5801 108.621 61.4785C108.855 61.377 109.084 61.2383 109.306 61.0625C109.256 61.0039 109.22 60.9375 109.201 60.8633C109.181 60.7891 109.172 60.7129 109.172 60.6348C109.172 60.498 109.216 60.3965 109.306 60.3301C109.396 60.2598 109.504 60.2246 109.629 60.2246C109.761 60.2246 109.89 60.2637 110.015 60.3418C110.14 60.252 110.259 60.1445 110.373 60.0195C110.486 59.8945 110.584 59.7617 110.666 59.6211C110.752 59.4805 110.818 59.3359 110.865 59.1875C110.916 59.0391 110.941 58.8945 110.941 58.7539C110.941 58.6328 110.918 58.5176 110.871 58.4082C110.828 58.2949 110.756 58.1973 110.654 58.1152C110.556 58.0332 110.425 57.9688 110.261 57.9219C110.101 57.8711 109.906 57.8457 109.675 57.8457C109.484 57.8457 109.293 57.8965 109.101 57.998C108.914 58.0996 108.732 58.2363 108.556 58.4082C108.384 58.5762 108.222 58.7695 108.07 58.9883C107.922 59.2031 107.793 59.4258 107.683 59.6562C107.574 59.8867 107.488 60.1133 107.425 60.3359C107.363 60.5586 107.332 60.7617 107.332 60.9453C107.332 61.1484 107.377 61.3145 107.466 61.4434C107.556 61.5684 107.701 61.6309 107.9 61.6309ZM119.638 57.7754C119.638 57.873 119.62 57.9883 119.585 58.1211C119.55 58.25 119.505 58.3887 119.451 58.5371C119.396 58.6816 119.337 58.8301 119.275 58.9824C119.212 59.1348 119.154 59.2832 119.099 59.4277C119.044 59.5684 118.999 59.7012 118.964 59.8262C118.929 59.9512 118.911 60.0566 118.911 60.1426C118.911 60.2168 118.927 60.2754 118.958 60.3184C118.994 60.3613 119.048 60.3828 119.122 60.3828C119.177 60.3828 119.253 60.3633 119.351 60.3242C119.452 60.2812 119.57 60.2246 119.702 60.1543C119.839 60.0801 119.988 59.9961 120.148 59.9023C120.312 59.8047 120.484 59.7012 120.663 59.5918C120.702 59.5684 120.742 59.5566 120.781 59.5566C120.824 59.5566 120.861 59.5723 120.892 59.6035C120.927 59.6348 120.945 59.6738 120.945 59.7207C120.945 59.7715 120.923 59.8262 120.88 59.8848C120.837 59.9395 120.765 60.0039 120.663 60.0781C120.156 60.457 119.691 60.75 119.269 60.957C118.851 61.1641 118.517 61.2676 118.267 61.2676C118.064 61.2676 117.904 61.2363 117.786 61.1738C117.669 61.1113 117.611 61.0137 117.611 60.8809C117.611 60.7559 117.663 60.5977 117.769 60.4062C117.878 60.2148 118.056 59.9883 118.302 59.7266C118.396 59.5703 118.47 59.4004 118.525 59.2168C118.579 59.0293 118.619 58.8477 118.642 58.6719C118.669 58.4922 118.687 58.3281 118.695 58.1797C118.702 58.0273 118.706 57.9062 118.706 57.8164C118.706 57.668 118.681 57.5547 118.63 57.4766C118.583 57.3945 118.503 57.3535 118.39 57.3535C118.265 57.3535 118.142 57.4102 118.021 57.5234C117.904 57.6328 117.785 57.7852 117.663 57.9805C117.546 58.1758 117.429 58.4062 117.312 58.6719C117.195 58.9375 117.074 59.2246 116.949 59.5332C116.827 59.8418 116.702 60.1641 116.574 60.5C116.445 60.8359 116.31 61.1738 116.169 61.5137C116.146 61.5801 116.117 61.6484 116.081 61.7188C116.046 61.7891 116.005 61.8555 115.958 61.918C115.915 61.9766 115.865 62.0254 115.806 62.0645C115.751 62.1035 115.693 62.123 115.63 62.123C115.482 62.123 115.37 62.0898 115.296 62.0234C115.222 61.957 115.185 61.8477 115.185 61.6953C115.185 61.6523 115.187 61.6074 115.191 61.5605C115.199 61.5137 115.218 61.459 115.249 61.3965L116.38 59.1289C116.529 58.7461 116.687 58.4297 116.855 58.1797C117.027 57.9297 117.181 57.7285 117.318 57.5762C116.997 57.7676 116.677 57.959 116.357 58.1504C116.036 58.3418 115.728 58.5273 115.431 58.707C115.134 58.8828 114.853 59.0508 114.587 59.2109C114.326 59.3672 114.091 59.5059 113.884 59.627C113.677 59.748 113.503 59.8477 113.363 59.9258C113.222 60.0039 113.124 60.0547 113.07 60.0781C113.038 60.0977 113.005 60.1074 112.97 60.1074C112.927 60.1074 112.892 60.0918 112.865 60.0605C112.833 60.0293 112.818 59.9883 112.818 59.9375C112.818 59.8828 112.837 59.8242 112.876 59.7617C112.911 59.6953 112.976 59.6348 113.07 59.5801L114.634 58.666C114.837 58.5449 115.042 58.4238 115.249 58.3027C115.456 58.1777 115.65 58.0625 115.829 57.957C116.013 57.8516 116.175 57.7578 116.316 57.6758C116.456 57.5938 116.564 57.5312 116.638 57.4883C116.826 57.3789 117.007 57.2852 117.183 57.207C117.363 57.1289 117.54 57.0645 117.716 57.0137C117.892 56.9629 118.07 56.9238 118.249 56.8965C118.433 56.8691 118.624 56.8496 118.824 56.8379C118.91 56.8379 118.999 56.8652 119.093 56.9199C119.191 56.9707 119.279 57.041 119.357 57.1309C119.439 57.2168 119.505 57.3164 119.556 57.4297C119.611 57.5391 119.638 57.6543 119.638 57.7754ZM121.901 60.5703C121.901 60.4258 121.944 60.252 122.03 60.0488C122.12 59.8457 122.235 59.6387 122.376 59.4277C122.521 59.2168 122.683 59.0156 122.862 58.8242C123.042 58.6289 123.222 58.4707 123.401 58.3496L120.483 60.0781C120.468 60.0859 120.454 60.0918 120.442 60.0957C120.427 60.0957 120.413 60.0957 120.401 60.0957C120.358 60.0957 120.325 60.0801 120.302 60.0488C120.278 60.0176 120.267 59.9785 120.267 59.9316C120.267 59.877 120.284 59.8184 120.319 59.7559C120.355 59.6895 120.409 59.6348 120.483 59.5918L122.095 58.6133C122.314 58.4805 122.562 58.3398 122.839 58.1914C123.116 58.0391 123.403 57.9004 123.7 57.7754C124.001 57.6504 124.304 57.5469 124.608 57.4648C124.913 57.3789 125.202 57.3359 125.476 57.3359C125.73 57.3359 125.954 57.375 126.149 57.4531L127.679 54.3652C127.718 54.2832 127.759 54.1953 127.802 54.1016C127.849 54.0039 127.907 53.9141 127.978 53.832C128.052 53.75 128.144 53.6816 128.253 53.627C128.366 53.5684 128.511 53.5391 128.687 53.5391C128.741 53.5391 128.774 53.5586 128.786 53.5977C128.802 53.6328 128.81 53.6797 128.81 53.7383C128.802 53.793 128.788 53.8555 128.769 53.9258C128.749 53.9922 128.728 54.0586 128.704 54.125C128.685 54.1914 128.665 54.252 128.646 54.3066C128.626 54.3613 128.61 54.4023 128.599 54.4297L126.853 58.2266C126.767 58.4805 126.659 58.7441 126.53 59.0176C126.405 59.2871 126.282 59.5508 126.161 59.8086C126.044 60.0625 125.942 60.3008 125.856 60.5234C125.774 60.7461 125.733 60.9355 125.733 61.0918C125.733 61.1465 125.739 61.1992 125.751 61.25C125.767 61.3008 125.794 61.3262 125.833 61.3262C125.884 61.3262 125.96 61.3066 126.062 61.2676C126.167 61.2285 126.286 61.1738 126.419 61.1035C126.552 61.0332 126.694 60.9512 126.847 60.8574C127.003 60.7598 127.157 60.6562 127.31 60.5469L128.833 59.5918C128.864 59.5762 128.888 59.5684 128.903 59.5684C128.935 59.5684 128.958 59.584 128.974 59.6152C128.993 59.6465 129.003 59.6836 129.003 59.7266C129.003 59.793 128.987 59.8594 128.956 59.9258C128.929 59.9883 128.888 60.0391 128.833 60.0781C128.61 60.2266 128.38 60.3809 128.142 60.541C127.907 60.6973 127.671 60.8535 127.433 61.0098C127.194 61.1621 126.96 61.3086 126.73 61.4492C126.503 61.5898 126.284 61.7188 126.073 61.8359C125.772 62.0039 125.503 62.0879 125.265 62.0879C125.108 62.0879 125.003 62.0449 124.948 61.959C124.894 61.873 124.866 61.7617 124.866 61.625C124.866 61.543 124.872 61.459 124.884 61.373C124.899 61.2832 124.921 61.1875 124.948 61.0859C124.843 61.2383 124.722 61.375 124.585 61.4961C124.448 61.6172 124.302 61.7207 124.146 61.8066C123.993 61.8926 123.833 61.957 123.665 62C123.501 62.0469 123.341 62.0703 123.185 62.0703C123.013 62.0703 122.849 62.043 122.692 61.9883C122.536 61.9297 122.399 61.8398 122.282 61.7188C122.165 61.5938 122.071 61.4375 122.001 61.25C121.935 61.0625 121.901 60.8359 121.901 60.5703ZM125.722 58.5312C125.737 58.4883 125.757 58.4355 125.78 58.373C125.808 58.3105 125.833 58.25 125.856 58.1914C125.884 58.1328 125.905 58.0801 125.921 58.0332C125.94 57.9824 125.95 57.9473 125.95 57.9277C125.95 57.9043 125.905 57.8867 125.815 57.875C125.726 57.8633 125.606 57.8574 125.458 57.8574C125.263 57.8574 125.064 57.9102 124.86 58.0156C124.661 58.1172 124.466 58.252 124.274 58.4199C124.087 58.5879 123.909 58.7812 123.741 59C123.577 59.2148 123.433 59.4375 123.308 59.668C123.187 59.8945 123.089 60.1191 123.015 60.3418C122.944 60.5645 122.909 60.7656 122.909 60.9453C122.909 61.1875 122.95 61.3613 123.032 61.4668C123.114 61.5684 123.222 61.6191 123.355 61.6191C123.534 61.6191 123.728 61.543 123.935 61.3906C124.146 61.2383 124.356 61.0273 124.567 60.7578C124.778 60.4844 124.983 60.1582 125.183 59.7793C125.382 59.4004 125.562 58.9844 125.722 58.5312ZM128.659 59.5918L131.764 57.6113C131.764 57.6113 131.78 57.5898 131.811 57.5469C131.839 57.5078 131.882 57.459 131.94 57.4004C131.999 57.3418 132.069 57.2773 132.151 57.207C132.237 57.1367 132.335 57.0723 132.444 57.0137C132.553 56.9551 132.675 56.9062 132.807 56.8672C132.944 56.8281 133.092 56.8086 133.253 56.8086C133.479 56.8086 133.719 56.832 133.973 56.8789C134.231 56.9219 134.467 57.0039 134.682 57.125C134.897 57.2422 135.075 57.4082 135.216 57.623C135.36 57.834 135.432 58.1074 135.432 58.4434C135.432 58.6035 135.387 58.7871 135.298 58.9941C135.212 59.1973 135.089 59.4082 134.928 59.627C134.772 59.8457 134.583 60.0664 134.36 60.2891C134.137 60.5117 133.893 60.7227 133.628 60.9219L135.837 59.5918C135.864 59.5801 135.893 59.5742 135.925 59.5742C135.967 59.5742 136.001 59.5898 136.024 59.6211C136.051 59.6523 136.065 59.6914 136.065 59.7383C136.065 59.793 136.046 59.8516 136.007 59.9141C135.971 59.9766 135.915 60.0312 135.837 60.0781C135.352 60.3672 134.917 60.6152 134.53 60.8223C134.147 61.0254 133.8 61.1953 133.487 61.332C133.175 61.4688 132.889 61.5781 132.632 61.6602C132.378 61.7383 132.135 61.7988 131.905 61.8418C131.678 61.8809 131.458 61.9062 131.243 61.918C131.028 61.9297 130.805 61.9355 130.575 61.9355C130.415 62.2871 130.245 62.6367 130.065 62.9844C129.885 63.3359 129.712 63.6758 129.544 64.0039C129.376 64.3359 129.219 64.6523 129.075 64.9531C128.93 65.2578 128.813 65.541 128.723 65.8027C128.712 65.8379 128.69 65.8867 128.659 65.9492C128.624 66.0117 128.583 66.0742 128.536 66.1367C128.489 66.1992 128.44 66.252 128.389 66.2949C128.335 66.3418 128.282 66.3652 128.231 66.3652C128.165 66.3652 128.096 66.3574 128.026 66.3418C127.956 66.3262 127.889 66.3027 127.827 66.2715C127.764 66.2441 127.714 66.209 127.675 66.166C127.635 66.127 127.616 66.0801 127.616 66.0254C127.616 66.002 127.618 65.9883 127.622 65.9844C127.665 65.7617 127.751 65.4941 127.88 65.1816C128.005 64.873 128.159 64.5332 128.342 64.1621C128.522 63.791 128.719 63.3984 128.934 62.9844C129.153 62.5703 129.374 62.1504 129.596 61.7246C129.819 61.2988 130.034 60.875 130.241 60.4531C130.452 60.0312 130.641 59.627 130.809 59.2402C130.833 59.1816 130.864 59.1211 130.903 59.0586C130.946 58.9961 130.989 58.9336 131.032 58.8711C131.079 58.8047 131.126 58.7422 131.173 58.6836C131.219 58.625 131.26 58.5723 131.296 58.5254C131.229 58.5605 131.11 58.6309 130.938 58.7363C130.766 58.8379 130.559 58.9609 130.317 59.1055C130.079 59.2461 129.815 59.4023 129.526 59.5742C129.241 59.7422 128.952 59.9102 128.659 60.0781C128.635 60.0898 128.614 60.0957 128.594 60.0957C128.551 60.0957 128.512 60.0781 128.477 60.043C128.442 60.0039 128.425 59.957 128.425 59.9023C128.425 59.8555 128.442 59.8047 128.477 59.75C128.512 59.6953 128.573 59.6426 128.659 59.5918ZM133.634 57.4883C133.423 57.4883 133.202 57.5938 132.971 57.8047C132.745 58.0156 132.514 58.3008 132.28 58.6602C132.046 59.0156 131.811 59.4316 131.577 59.9082C131.342 60.3809 131.114 60.8809 130.891 61.4082C131.122 61.4082 131.366 61.375 131.624 61.3086C131.885 61.2422 132.145 61.1484 132.403 61.0273C132.661 60.9023 132.907 60.7559 133.141 60.5879C133.38 60.416 133.589 60.2266 133.768 60.0195C133.952 59.8086 134.096 59.584 134.202 59.3457C134.311 59.1035 134.366 58.8535 134.366 58.5957C134.366 58.4277 134.352 58.2773 134.325 58.1445C134.298 58.0078 134.255 57.8906 134.196 57.793C134.137 57.6953 134.061 57.6211 133.967 57.5703C133.878 57.5156 133.766 57.4883 133.634 57.4883ZM142.231 57.7754C142.231 57.873 142.213 57.9883 142.178 58.1211C142.143 58.25 142.098 58.3887 142.043 58.5371C141.989 58.6816 141.93 58.8301 141.868 58.9824C141.805 59.1348 141.746 59.2832 141.692 59.4277C141.637 59.5684 141.592 59.7012 141.557 59.8262C141.522 59.9512 141.504 60.0566 141.504 60.1426C141.504 60.2168 141.52 60.2754 141.551 60.3184C141.586 60.3613 141.641 60.3828 141.715 60.3828C141.77 60.3828 141.846 60.3633 141.944 60.3242C142.045 60.2812 142.162 60.2246 142.295 60.1543C142.432 60.0801 142.58 59.9961 142.741 59.9023C142.905 59.8047 143.077 59.7012 143.256 59.5918C143.295 59.5684 143.334 59.5566 143.373 59.5566C143.416 59.5566 143.454 59.5723 143.485 59.6035C143.52 59.6348 143.537 59.6738 143.537 59.7207C143.537 59.7715 143.516 59.8262 143.473 59.8848C143.43 59.9395 143.358 60.0039 143.256 60.0781C142.748 60.457 142.284 60.75 141.862 60.957C141.444 61.1641 141.11 61.2676 140.86 61.2676C140.657 61.2676 140.496 61.2363 140.379 61.1738C140.262 61.1113 140.204 61.0137 140.204 60.8809C140.204 60.7559 140.256 60.5977 140.362 60.4062C140.471 60.2148 140.649 59.9883 140.895 59.7266C140.989 59.5703 141.063 59.4004 141.118 59.2168C141.172 59.0293 141.211 58.8477 141.235 58.6719C141.262 58.4922 141.28 58.3281 141.287 58.1797C141.295 58.0273 141.299 57.9062 141.299 57.8164C141.299 57.668 141.274 57.5547 141.223 57.4766C141.176 57.3945 141.096 57.3535 140.983 57.3535C140.858 57.3535 140.735 57.4102 140.614 57.5234C140.496 57.6328 140.377 57.7852 140.256 57.9805C140.139 58.1758 140.022 58.4062 139.905 58.6719C139.787 58.9375 139.666 59.2246 139.541 59.5332C139.42 59.8418 139.295 60.1641 139.166 60.5C139.037 60.8359 138.903 61.1738 138.762 61.5137C138.739 61.5801 138.709 61.6484 138.674 61.7188C138.639 61.7891 138.598 61.8555 138.551 61.918C138.508 61.9766 138.457 62.0254 138.399 62.0645C138.344 62.1035 138.286 62.123 138.223 62.123C138.075 62.123 137.963 62.0898 137.889 62.0234C137.815 61.957 137.778 61.8477 137.778 61.6953C137.778 61.6523 137.78 61.6074 137.784 61.5605C137.791 61.5137 137.811 61.459 137.842 61.3965L138.973 59.1289C139.121 58.7461 139.28 58.4297 139.448 58.1797C139.62 57.9297 139.774 57.7285 139.911 57.5762C139.59 57.7676 139.27 57.959 138.95 58.1504C138.629 58.3418 138.321 58.5273 138.024 58.707C137.727 58.8828 137.446 59.0508 137.18 59.2109C136.918 59.3672 136.684 59.5059 136.477 59.627C136.27 59.748 136.096 59.8477 135.955 59.9258C135.815 60.0039 135.717 60.0547 135.662 60.0781C135.631 60.0977 135.598 60.1074 135.563 60.1074C135.52 60.1074 135.485 60.0918 135.457 60.0605C135.426 60.0293 135.411 59.9883 135.411 59.9375C135.411 59.8828 135.43 59.8242 135.469 59.7617C135.504 59.6953 135.569 59.6348 135.662 59.5801L137.227 58.666C137.43 58.5449 137.635 58.4238 137.842 58.3027C138.049 58.1777 138.243 58.0625 138.422 57.957C138.606 57.8516 138.768 57.7578 138.909 57.6758C139.049 57.5938 139.157 57.5312 139.231 57.4883C139.418 57.3789 139.6 57.2852 139.776 57.207C139.955 57.1289 140.133 57.0645 140.309 57.0137C140.485 56.9629 140.662 56.9238 140.842 56.8965C141.026 56.8691 141.217 56.8496 141.416 56.8379C141.502 56.8379 141.592 56.8652 141.686 56.9199C141.784 56.9707 141.871 57.041 141.95 57.1309C142.032 57.2168 142.098 57.3164 142.149 57.4297C142.204 57.5391 142.231 57.6543 142.231 57.7754ZM143.076 60.0781C143.037 60.1055 142.992 60.1191 142.941 60.1191C142.891 60.1191 142.85 60.1055 142.818 60.0781C142.787 60.0469 142.772 60.0078 142.772 59.9609C142.772 59.9102 142.795 59.8535 142.842 59.791C142.885 59.7246 142.963 59.6582 143.076 59.5918L144.559 58.7188C144.668 58.4102 144.809 58.1445 144.981 57.9219C145.156 57.6953 145.348 57.5098 145.555 57.3652C145.766 57.2168 145.984 57.1074 146.211 57.0371C146.441 56.9629 146.664 56.9258 146.879 56.9258C147.098 56.9258 147.277 56.9844 147.418 57.1016C147.563 57.2148 147.635 57.3926 147.635 57.6348C147.635 57.7832 147.58 57.9395 147.471 58.1035C147.365 58.2637 147.219 58.4238 147.031 58.584C146.848 58.7402 146.631 58.8867 146.381 59.0234C146.131 59.1602 145.865 59.2754 145.584 59.3691C145.584 59.5566 145.58 59.7344 145.572 59.9023C145.568 60.0703 145.566 60.2285 145.566 60.377C145.566 60.502 145.57 60.6172 145.578 60.7227C145.586 60.8242 145.602 60.9121 145.625 60.9863C145.652 61.0566 145.688 61.1133 145.731 61.1562C145.777 61.1953 145.836 61.2148 145.906 61.2148C146.016 61.2148 146.147 61.1719 146.299 61.0859C146.455 60.9961 146.65 60.8828 146.885 60.7461C147.096 60.6211 147.365 60.4648 147.693 60.2773C148.022 60.0898 148.422 59.8613 148.895 59.5918C148.91 59.5801 148.932 59.5742 148.959 59.5742C149.002 59.5742 149.039 59.5938 149.07 59.6328C149.106 59.668 149.123 59.7129 149.123 59.7676C149.123 59.8145 149.106 59.8652 149.07 59.9199C149.039 59.9746 148.981 60.0273 148.895 60.0781C148.508 60.3086 148.133 60.543 147.77 60.7812C147.406 61.0156 147.063 61.2305 146.738 61.4258C146.418 61.6172 146.121 61.7754 145.848 61.9004C145.574 62.0215 145.336 62.082 145.133 62.082C144.996 62.082 144.875 62.0527 144.77 61.9941C144.668 61.9355 144.58 61.8418 144.506 61.7129C144.436 61.584 144.381 61.416 144.342 61.209C144.307 60.998 144.289 60.7422 144.289 60.4414C144.289 60.3945 144.291 60.3203 144.295 60.2188C144.303 60.1133 144.313 60.002 144.324 59.8848C144.34 59.7637 144.357 59.6465 144.377 59.5332C144.397 59.4199 144.42 59.332 144.447 59.2695C144.42 59.2852 144.379 59.3086 144.324 59.3398C144.274 59.3711 144.213 59.4082 144.143 59.4512C144.072 59.4902 143.998 59.5332 143.92 59.5801C143.842 59.627 143.764 59.6738 143.686 59.7207L143.076 60.0781ZM147.002 57.6816C147.01 57.6582 147.014 57.6328 147.014 57.6055C147.014 57.5078 146.996 57.4355 146.961 57.3887C146.93 57.3418 146.875 57.3184 146.797 57.3184C146.707 57.3184 146.604 57.3535 146.486 57.4238C146.369 57.4902 146.254 57.5898 146.141 57.7227C146.031 57.8555 145.932 58.0215 145.842 58.2207C145.756 58.4199 145.697 58.6484 145.666 58.9062C145.826 58.8242 145.982 58.7305 146.135 58.625C146.287 58.5156 146.424 58.4062 146.545 58.2969C146.67 58.1836 146.772 58.0742 146.85 57.9688C146.932 57.8594 146.982 57.7637 147.002 57.6816ZM152.658 58.2676C152.658 58.4316 152.67 58.5527 152.693 58.6309C152.717 58.709 152.742 58.7793 152.769 58.8418C152.801 58.9004 152.828 58.9668 152.851 59.041C152.879 59.1113 152.892 59.2227 152.892 59.375C152.892 59.4805 152.881 59.5996 152.857 59.7324C152.838 59.8613 152.799 59.9961 152.74 60.1367C152.681 60.2734 152.599 60.4102 152.494 60.5469C152.388 60.6797 152.254 60.7988 152.09 60.9043L154.386 59.5918C154.414 59.5762 154.441 59.5684 154.469 59.5684C154.511 59.5684 154.549 59.5859 154.58 59.6211C154.615 59.6523 154.633 59.6953 154.633 59.75C154.633 59.793 154.613 59.8457 154.574 59.9082C154.539 59.9707 154.476 60.0273 154.386 60.0781C153.906 60.3516 153.492 60.5898 153.144 60.793C152.801 60.9922 152.506 61.1641 152.26 61.3086C152.017 61.4531 151.818 61.5742 151.662 61.6719C151.506 61.7656 151.375 61.8438 151.269 61.9062C151.082 62.0195 150.904 62.0957 150.736 62.1348C150.568 62.1738 150.402 62.1934 150.238 62.1934C150.113 62.1934 150.021 62.1719 149.963 62.1289C149.908 62.0859 149.881 62.0391 149.881 61.9883C149.885 61.9336 149.916 61.8848 149.974 61.8418C150.033 61.7949 150.117 61.7715 150.226 61.7715C150.418 61.7715 150.603 61.707 150.783 61.5781C150.963 61.4453 151.121 61.2676 151.258 61.0449C151.398 60.8184 151.51 60.5547 151.592 60.2539C151.678 59.9531 151.72 59.6348 151.72 59.2988C151.72 59.248 151.73 59.1504 151.75 59.0059C151.773 58.8613 151.808 58.7051 151.855 58.5371C151.902 58.3691 151.963 58.2051 152.037 58.0449C152.115 57.8848 152.207 57.7637 152.312 57.6816L148.72 60.0781C148.681 60.1055 148.64 60.1191 148.597 60.1191C148.554 60.1191 148.519 60.1035 148.492 60.0723C148.465 60.041 148.451 60.002 148.451 59.9551C148.451 59.9004 148.472 59.8398 148.515 59.7734C148.554 59.707 148.623 59.6465 148.72 59.5918C149.349 59.166 149.877 58.8125 150.303 58.5312C150.732 58.2461 151.082 58.0156 151.351 57.8398L152.172 57.2832C152.293 57.2324 152.42 57.1934 152.553 57.166C152.685 57.1348 152.808 57.1191 152.922 57.1191C153.047 57.1191 153.148 57.1406 153.226 57.1836C153.308 57.2227 153.349 57.2871 153.349 57.377C153.349 57.4082 153.312 57.459 153.238 57.5293C153.168 57.5996 153.09 57.6797 153.004 57.7695C152.918 57.8555 152.838 57.9434 152.763 58.0332C152.693 58.123 152.658 58.2012 152.658 58.2676ZM158.15 58.2676C158.15 58.4316 158.162 58.5527 158.185 58.6309C158.208 58.709 158.234 58.7793 158.261 58.8418C158.292 58.9004 158.32 58.9668 158.343 59.041C158.371 59.1113 158.384 59.2227 158.384 59.375C158.384 59.4805 158.373 59.5996 158.349 59.7324C158.33 59.8613 158.29 59.9961 158.232 60.1367C158.173 60.2734 158.091 60.4102 157.986 60.5469C157.88 60.6797 157.746 60.7988 157.581 60.9043L159.878 59.5918C159.906 59.5762 159.933 59.5684 159.96 59.5684C160.003 59.5684 160.04 59.5859 160.072 59.6211C160.107 59.6523 160.124 59.6953 160.124 59.75C160.124 59.793 160.105 59.8457 160.066 59.9082C160.031 59.9707 159.968 60.0273 159.878 60.0781C159.398 60.3516 158.984 60.5898 158.636 60.793C158.292 60.9922 157.998 61.1641 157.751 61.3086C157.509 61.4531 157.31 61.5742 157.154 61.6719C156.998 61.7656 156.867 61.8438 156.761 61.9062C156.574 62.0195 156.396 62.0957 156.228 62.1348C156.06 62.1738 155.894 62.1934 155.73 62.1934C155.605 62.1934 155.513 62.1719 155.455 62.1289C155.4 62.0859 155.373 62.0391 155.373 61.9883C155.376 61.9336 155.408 61.8848 155.466 61.8418C155.525 61.7949 155.609 61.7715 155.718 61.7715C155.91 61.7715 156.095 61.707 156.275 61.5781C156.455 61.4453 156.613 61.2676 156.749 61.0449C156.89 60.8184 157.001 60.5547 157.083 60.2539C157.169 59.9531 157.212 59.6348 157.212 59.2988C157.212 59.248 157.222 59.1504 157.242 59.0059C157.265 58.8613 157.3 58.7051 157.347 58.5371C157.394 58.3691 157.455 58.2051 157.529 58.0449C157.607 57.8848 157.699 57.7637 157.804 57.6816L154.212 60.0781C154.173 60.1055 154.132 60.1191 154.089 60.1191C154.046 60.1191 154.011 60.1035 153.984 60.0723C153.956 60.041 153.943 60.002 153.943 59.9551C153.943 59.9004 153.964 59.8398 154.007 59.7734C154.046 59.707 154.115 59.6465 154.212 59.5918C154.841 59.166 155.369 58.8125 155.794 58.5312C156.224 58.2461 156.574 58.0156 156.843 57.8398L157.664 57.2832C157.785 57.2324 157.912 57.1934 158.044 57.166C158.177 57.1348 158.3 57.1191 158.414 57.1191C158.539 57.1191 158.64 57.1406 158.718 57.1836C158.8 57.2227 158.841 57.2871 158.841 57.377C158.841 57.4082 158.804 57.459 158.73 57.5293C158.66 57.5996 158.581 57.6797 158.496 57.7695C158.41 57.8555 158.33 57.9434 158.255 58.0332C158.185 58.123 158.15 58.2012 158.15 58.2676Z" fill="black"/>
<path d="M9.26367 24.5918C9.31055 24.5684 9.35352 24.5566 9.39258 24.5566C9.43555 24.5566 9.46875 24.5723 9.49219 24.6035C9.51562 24.6309 9.52734 24.666 9.52734 24.709C9.52734 24.7676 9.50586 24.8301 9.46289 24.8965C9.41992 24.959 9.35352 25.0195 9.26367 25.0781L8.82422 25.3711C8.6875 25.4609 8.52344 25.5664 8.33203 25.6875C8.14453 25.8047 7.93359 25.9316 7.69922 26.0684V26.0742C7.39844 26.7305 7.05273 27.3066 6.66211 27.8027C6.27148 28.3027 5.85938 28.7207 5.42578 29.0566C4.99609 29.3926 4.55859 29.6445 4.11328 29.8125C3.66797 29.9844 3.24023 30.0703 2.83008 30.0703C2.37305 30.0703 1.96875 29.9883 1.61719 29.8242C1.26562 29.6641 0.96875 29.4551 0.726562 29.1973C0.488281 28.9395 0.306641 28.6484 0.181641 28.3242C0.0605469 28 0 27.6738 0 27.3457C0 27.0645 0.046875 26.793 0.140625 26.5312C0.234375 26.2695 0.378906 26.0391 0.574219 25.8398C0.769531 25.6406 1.01367 25.4805 1.30664 25.3594C1.60352 25.2383 1.95508 25.1777 2.36133 25.1777C2.56055 25.1777 2.75 25.2129 2.92969 25.2832C3.10938 25.3535 3.26758 25.459 3.4043 25.5996C3.54102 25.7402 3.64844 25.918 3.72656 26.1328C3.80859 26.3477 3.84961 26.6016 3.84961 26.8945C3.84961 26.9805 3.82422 27.0547 3.77344 27.1172C3.95703 27.1172 4.1582 27.0918 4.37695 27.041C4.59961 26.9941 4.83008 26.9297 5.06836 26.8477C5.31055 26.7617 5.55859 26.6621 5.8125 26.5488C6.07031 26.4316 6.32617 26.3086 6.58008 26.1797C6.63086 26.082 6.67773 25.9824 6.7207 25.8809C6.76758 25.7754 6.81055 25.668 6.84961 25.5586C6.88477 25.4648 6.94531 25.3164 7.03125 25.1133C7.11719 24.9062 7.2207 24.6641 7.3418 24.3867C7.46289 24.1094 7.5957 23.8066 7.74023 23.4785C7.88477 23.1504 8.0332 22.8164 8.18555 22.4766C8.33789 22.1367 8.48828 21.7988 8.63672 21.4629C8.78906 21.127 8.93164 20.8145 9.06445 20.5254C9.20117 20.2363 9.32227 19.9805 9.42773 19.7578C9.5332 19.5312 9.61719 19.3574 9.67969 19.2363C8.62109 19.0645 7.71094 18.9004 6.94922 18.7441C6.1875 18.584 5.56055 18.4316 5.06836 18.2871C4.57617 18.1426 4.21289 18.0059 3.97852 17.877C3.74805 17.7441 3.63281 17.6211 3.63281 17.5078C3.63281 17.3945 3.71484 17.291 3.87891 17.1973C4.04297 17.0996 4.30859 17.0117 4.67578 16.9336C5.04297 16.8555 5.51758 16.7871 6.09961 16.7285C6.68555 16.6699 7.39844 16.6191 8.23828 16.5762C9.08203 16.5332 10.0605 16.5039 11.1738 16.4883C12.2871 16.4688 13.5566 16.457 14.9824 16.4531C16.1777 16.4531 17.2188 16.4668 18.1055 16.4941C18.9961 16.5215 19.752 16.5508 20.373 16.582C20.998 16.6133 21.5 16.6426 21.8789 16.6699C22.2617 16.6934 22.5449 16.7051 22.7285 16.7051C22.8262 16.7051 22.9082 16.7012 22.9746 16.6934C23.0449 16.6855 23.0996 16.6641 23.1387 16.6289C23.1777 16.5898 23.2051 16.5312 23.2207 16.4531C23.2402 16.375 23.25 16.2676 23.25 16.1309C23.25 16.0254 23.2832 15.9473 23.3496 15.8965C23.4199 15.8418 23.498 15.8145 23.584 15.8145C23.666 15.8145 23.7422 15.8418 23.8125 15.8965C23.8828 15.9473 23.918 16.0254 23.918 16.1309C23.918 16.2832 23.9121 16.4199 23.9004 16.541C23.8887 16.6582 23.8535 16.7578 23.7949 16.8398C23.7402 16.9219 23.6543 16.9844 23.5371 17.0273C23.4238 17.0703 23.2656 17.0918 23.0625 17.0918C22.7109 17.0918 22.4004 17.0938 22.1309 17.0977C21.8652 17.1016 21.623 17.1074 21.4043 17.1152C21.1895 17.1191 20.9902 17.127 20.8066 17.1387C20.623 17.1465 20.4395 17.1543 20.2559 17.1621C20.0762 17.1699 19.8867 17.1797 19.6875 17.1914C19.4883 17.1992 19.2637 17.207 19.0137 17.2148C18.7676 17.2188 18.4863 17.2227 18.1699 17.2266C17.8535 17.2305 17.4883 17.2324 17.0742 17.2324C16.8281 17.2324 16.541 17.2324 16.2129 17.2324C15.8887 17.2285 15.5352 17.2246 15.1523 17.2207C14.7734 17.2129 14.3691 17.207 13.9395 17.2031C13.5098 17.1953 13.0703 17.1875 12.6211 17.1797C12.6406 17.2305 12.6523 17.2832 12.6562 17.3379C12.6641 17.3887 12.668 17.4414 12.668 17.4961C12.668 17.5938 12.6582 17.6895 12.6387 17.7832C12.6191 17.877 12.5977 17.957 12.5742 18.0234C12.4375 18.3867 12.2832 18.668 12.1113 18.8672C11.9434 19.0664 11.7656 19.2168 11.5781 19.3184C11.3906 19.416 11.1973 19.4824 10.998 19.5176C10.8027 19.5488 10.6113 19.5781 10.4238 19.6055C10.3457 19.793 10.25 20.0254 10.1367 20.3027C10.0234 20.5801 9.89844 20.8848 9.76172 21.2168C9.625 21.5449 9.48047 21.8926 9.32812 22.2598C9.17969 22.627 9.0293 22.9941 8.87695 23.3613C8.72461 23.7246 8.57422 24.0801 8.42578 24.4277C8.27734 24.7715 8.13867 25.0898 8.00977 25.3828C8.19727 25.2734 8.36523 25.1699 8.51367 25.0723C8.66602 24.9746 8.79883 24.8906 8.91211 24.8203L9.26367 24.5918ZM2.38477 29.543C2.68164 29.543 2.99805 29.4746 3.33398 29.3379C3.66992 29.2051 4.00391 29.0195 4.33594 28.7812C4.67188 28.5469 4.99609 28.2695 5.30859 27.9492C5.62109 27.6289 5.9043 27.2812 6.1582 26.9062C5.89648 27.0352 5.63086 27.1562 5.36133 27.2695C5.0957 27.3828 4.83203 27.4805 4.57031 27.5625C4.3125 27.6445 4.06055 27.709 3.81445 27.7559C3.57227 27.8066 3.3457 27.832 3.13477 27.832C2.93164 27.832 2.75195 27.8066 2.5957 27.7559C2.44336 27.709 2.31445 27.6484 2.20898 27.5742C2.10742 27.5039 2.0293 27.4258 1.97461 27.3398C1.92383 27.2578 1.89844 27.1797 1.89844 27.1055C1.89844 26.9805 1.94727 26.8711 2.04492 26.7773C2.14258 26.6797 2.25586 26.6113 2.38477 26.5723C2.36133 26.502 2.33789 26.4355 2.31445 26.373C2.29492 26.3066 2.26758 26.25 2.23242 26.2031C2.19727 26.1523 2.15234 26.1133 2.09766 26.0859C2.04688 26.0547 1.97852 26.0391 1.89258 26.0391C1.64648 26.0391 1.43359 26.0781 1.25391 26.1562C1.07812 26.2344 0.931641 26.3379 0.814453 26.4668C0.701172 26.5957 0.617188 26.7461 0.5625 26.918C0.507812 27.0898 0.480469 27.2695 0.480469 27.457C0.480469 27.6992 0.523438 27.9434 0.609375 28.1895C0.699219 28.4395 0.826172 28.6641 0.990234 28.8633C1.1543 29.0625 1.35352 29.2246 1.58789 29.3496C1.82227 29.4785 2.08789 29.543 2.38477 29.543ZM9.82617 18.9609C9.90039 18.8281 9.98438 18.6816 10.0781 18.5215C10.1719 18.3613 10.2734 18.2012 10.3828 18.041C10.4961 17.877 10.6152 17.7207 10.7402 17.5723C10.8652 17.4199 10.998 17.2852 11.1387 17.168C10.9277 17.1641 10.7188 17.1621 10.5117 17.1621C10.3047 17.1621 10.0957 17.1621 9.88477 17.1621C9.4082 17.1621 8.94336 17.166 8.49023 17.1738C8.04102 17.1777 7.61719 17.1855 7.21875 17.1973C6.82422 17.209 6.46094 17.2266 6.12891 17.25C5.79688 17.2695 5.51172 17.2969 5.27344 17.332C5.03516 17.3633 4.84961 17.4023 4.7168 17.4492C4.58398 17.4922 4.51758 17.543 4.51758 17.6016C4.51758 17.668 4.61328 17.7461 4.80469 17.8359C4.99609 17.9219 5.30273 18.0215 5.72461 18.1348C6.14648 18.2441 6.69336 18.3691 7.36523 18.5098C8.04102 18.6465 8.86133 18.7969 9.82617 18.9609ZM11.8887 17.1738L10.4473 19.3066C10.4629 19.3145 10.4766 19.3184 10.4883 19.3184C10.5039 19.3184 10.5176 19.3184 10.5293 19.3184C10.666 19.3184 10.8027 19.2871 10.9395 19.2246C11.0801 19.1582 11.2129 19.0742 11.3379 18.9727C11.4668 18.8672 11.5859 18.748 11.6953 18.6152C11.8047 18.4785 11.9004 18.3398 11.9824 18.1992C12.0645 18.0586 12.1289 17.9199 12.1758 17.7832C12.2227 17.6465 12.2461 17.5234 12.2461 17.4141C12.2461 17.3008 12.2148 17.2207 12.1523 17.1738H11.8887ZM9.08953 25.0781C9.06219 25.0938 9.0368 25.1016 9.01336 25.1016C8.9743 25.1016 8.945 25.0859 8.92547 25.0547C8.90594 25.0195 8.89617 24.9766 8.89617 24.9258C8.89617 24.8711 8.90984 24.8125 8.93719 24.75C8.96453 24.6875 9.01531 24.6348 9.08953 24.5918L11.2575 23.3145C11.527 23.1582 11.8141 23.0234 12.1188 22.9102C12.4235 22.7969 12.7321 22.7051 13.0446 22.6348C13.361 22.5605 13.6735 22.5078 13.9821 22.4766C14.2907 22.4414 14.5817 22.4238 14.8552 22.4238C15.0114 22.4238 15.1579 22.4355 15.2946 22.459C15.4313 22.4785 15.5485 22.5098 15.6462 22.5527C15.7477 22.5918 15.8259 22.6406 15.8805 22.6992C15.9391 22.7578 15.9684 22.8242 15.9684 22.8984C15.9684 22.9531 15.9489 22.9922 15.9098 23.0156C15.8708 23.0391 15.8239 23.0566 15.7692 23.0684C15.7184 23.0762 15.6637 23.082 15.6052 23.0859C15.5505 23.0898 15.5075 23.0996 15.4762 23.1152C15.4528 23.1895 15.4157 23.3047 15.3649 23.4609C15.3141 23.6133 15.2634 23.7715 15.2126 23.9355C15.1618 24.0957 15.1149 24.2402 15.072 24.3691C15.0329 24.4941 15.0114 24.5664 15.0075 24.5859C14.9567 24.75 14.8864 24.959 14.7966 25.2129C14.7106 25.4629 14.6149 25.7988 14.5095 26.2207C14.5134 26.2207 14.5563 26.1992 14.6384 26.1562C14.7243 26.1094 14.8337 26.0488 14.9665 25.9746C15.1032 25.9004 15.2575 25.8145 15.4294 25.7168C15.6012 25.6191 15.779 25.5195 15.9626 25.418L17.363 24.5918C17.4177 24.5605 17.4645 24.5449 17.5036 24.5449C17.5466 24.5449 17.5798 24.5605 17.6032 24.5918C17.6266 24.6191 17.6384 24.6543 17.6384 24.6973C17.6384 24.752 17.6169 24.8164 17.5739 24.8906C17.5309 24.9609 17.4606 25.0234 17.363 25.0781L14.2458 26.9062C14.1677 26.9531 14.0954 26.9863 14.029 27.0059C13.9626 27.0254 13.902 27.0352 13.8473 27.0352C13.7692 27.0352 13.7028 27.0176 13.6481 26.9824C13.5934 26.9473 13.5485 26.8984 13.5134 26.8359C13.4782 26.7734 13.4509 26.7031 13.4313 26.625C13.4157 26.543 13.4079 26.457 13.4079 26.3672C13.4079 26.2695 13.4177 26.1719 13.4372 26.0742C13.4567 25.9766 13.4821 25.8828 13.5134 25.793C13.4001 26.0156 13.2673 26.209 13.1149 26.373C12.9665 26.5371 12.8063 26.6758 12.6345 26.7891C12.4665 26.8984 12.2927 26.9805 12.113 27.0352C11.9333 27.0898 11.7575 27.1172 11.5856 27.1172C11.4137 27.1172 11.2516 27.0898 11.0993 27.0352C10.947 26.9805 10.8122 26.9004 10.695 26.7949C10.5817 26.6855 10.4919 26.5508 10.4255 26.3906C10.3591 26.2305 10.3259 26.0449 10.3259 25.834C10.3259 25.709 10.3376 25.5703 10.361 25.418C10.3884 25.2656 10.4235 25.1113 10.4665 24.9551C10.5095 24.7988 10.5583 24.6465 10.613 24.498C10.6677 24.3457 10.7243 24.207 10.7829 24.082L9.08953 25.0781ZM14.4157 22.9219C14.1032 22.9219 13.8044 22.9746 13.5192 23.0801C13.2341 23.1855 12.9684 23.3242 12.7223 23.4961C12.4802 23.668 12.2595 23.8652 12.0602 24.0879C11.8649 24.3066 11.697 24.5332 11.5563 24.7676C11.4196 24.998 11.3122 25.2266 11.2341 25.4531C11.1598 25.6797 11.1227 25.8828 11.1227 26.0625C11.1227 26.2617 11.1657 26.4238 11.2516 26.5488C11.3415 26.6699 11.486 26.7305 11.6852 26.7305C11.8024 26.7305 11.9294 26.6953 12.0661 26.625C12.2067 26.5508 12.3473 26.4551 12.488 26.3379C12.6325 26.2168 12.7731 26.082 12.9098 25.9336C13.0505 25.7812 13.1794 25.6289 13.2966 25.4766C13.4137 25.3203 13.5153 25.1699 13.6012 25.0254C13.6911 24.877 13.7555 24.748 13.7946 24.6387L14.4157 22.9219ZM20.892 26.3789C20.7513 26.4219 20.642 26.4434 20.5638 26.4434C20.4505 26.5879 20.3295 26.7188 20.2005 26.8359C20.0755 26.9531 19.9369 27.0527 19.7845 27.1348C19.6322 27.2168 19.4642 27.2793 19.2806 27.3223C19.1009 27.3652 18.8978 27.3867 18.6712 27.3867C18.5853 27.3867 18.5111 27.3359 18.4486 27.2344C18.39 27.1367 18.3373 27.0098 18.2904 26.8535C18.2474 26.6934 18.2103 26.5156 18.1791 26.3203C18.1517 26.125 18.1302 25.9297 18.1146 25.7344C18.099 25.5391 18.0873 25.3555 18.0795 25.1836C18.0755 25.0117 18.0736 24.8711 18.0736 24.7617C18.0736 24.7031 18.0736 24.6562 18.0736 24.6211C18.0736 24.582 18.0755 24.5586 18.0795 24.5508L17.183 25.0781C17.1361 25.1016 17.0951 25.1133 17.0599 25.1133C16.9623 25.1133 16.9134 25.0586 16.9134 24.9492C16.9134 24.8945 16.9349 24.8359 16.9779 24.7734C17.017 24.7109 17.0853 24.6504 17.183 24.5918L18.0912 24.0586C18.1068 23.8594 18.1322 23.6484 18.1673 23.4258C18.2064 23.1992 18.2591 22.9902 18.3255 22.7988C18.3959 22.6074 18.4837 22.4492 18.5892 22.3242C18.6986 22.1953 18.8334 22.1309 18.9935 22.1309C19.0834 22.1309 19.1576 22.1387 19.2162 22.1543C19.2748 22.1699 19.3197 22.1992 19.3509 22.2422C19.3861 22.2812 19.4095 22.3398 19.4212 22.418C19.433 22.4961 19.4388 22.5957 19.4388 22.7168C19.4388 22.8848 19.433 23.0742 19.4212 23.2852C19.4095 23.4961 19.3939 23.7188 19.3744 23.9531C19.3587 24.1836 19.3392 24.4199 19.3158 24.6621C19.2962 24.9004 19.2767 25.1309 19.2572 25.3535C19.2416 25.5723 19.2279 25.7773 19.2162 25.9688C19.2045 26.1602 19.1986 26.3242 19.1986 26.4609C19.1986 26.5742 19.2025 26.6641 19.2103 26.7305C19.2181 26.7969 19.2377 26.8301 19.2689 26.8301C19.3236 26.8301 19.4056 26.7656 19.515 26.6367C19.6283 26.5078 19.7728 26.3184 19.9486 26.0684C19.9095 25.998 19.8802 25.9258 19.8607 25.8516C19.8451 25.7734 19.8373 25.7012 19.8373 25.6348C19.8373 25.498 19.8822 25.3965 19.972 25.3301C20.0619 25.2637 20.1693 25.2305 20.2943 25.2305C20.3724 25.2305 20.4349 25.2383 20.4818 25.2539C20.7162 24.8867 20.9759 24.4727 21.2611 24.0117C21.5462 23.5508 21.8666 23.0273 22.222 22.4414L23.0013 22.3418L21.7884 24.3691C21.6322 24.6309 21.4896 24.8828 21.3607 25.125C21.2318 25.3633 21.1048 25.5898 20.9798 25.8047C20.9916 25.8594 20.9974 25.9141 20.9974 25.9688C20.9974 25.9688 21.0267 25.9492 21.0853 25.9102C21.1478 25.875 21.2298 25.8262 21.3314 25.7637C21.433 25.6973 21.5482 25.623 21.6771 25.541C21.806 25.459 21.9369 25.375 22.0697 25.2891L23.1478 24.5918C23.1869 24.5684 23.224 24.5566 23.2591 24.5566C23.3021 24.5566 23.3373 24.5723 23.3646 24.6035C23.3959 24.6348 23.4115 24.6738 23.4115 24.7207C23.4115 24.7754 23.39 24.834 23.347 24.8965C23.308 24.9551 23.2416 25.0156 23.1478 25.0781C23.0775 25.125 22.9837 25.1855 22.8666 25.2598C22.7533 25.334 22.6263 25.4141 22.4857 25.5C22.349 25.5859 22.2045 25.6738 22.0521 25.7637C21.8998 25.8535 21.7513 25.9395 21.6068 26.0215C21.4662 26.1035 21.3334 26.1758 21.2084 26.2383C21.0834 26.3008 20.9779 26.3477 20.892 26.3789ZM22.9678 25.0781C22.9405 25.0938 22.9151 25.1016 22.8916 25.1016C22.8526 25.1016 22.8233 25.0859 22.8037 25.0547C22.7842 25.0195 22.7745 24.9766 22.7745 24.9258C22.7745 24.8711 22.7881 24.8125 22.8155 24.75C22.8428 24.6875 22.8936 24.6348 22.9678 24.5918L25.1358 23.3145C25.4053 23.1582 25.6924 23.0234 25.9971 22.9102C26.3018 22.7969 26.6104 22.7051 26.9229 22.6348C27.2393 22.5605 27.5518 22.5078 27.8604 22.4766C28.169 22.4414 28.46 22.4238 28.7334 22.4238C28.8897 22.4238 29.0362 22.4355 29.1729 22.459C29.3096 22.4785 29.4268 22.5098 29.5245 22.5527C29.626 22.5918 29.7041 22.6406 29.7588 22.6992C29.8174 22.7578 29.8467 22.8242 29.8467 22.8984C29.8467 22.9531 29.8272 22.9922 29.7881 23.0156C29.7491 23.0391 29.7022 23.0566 29.6475 23.0684C29.5967 23.0762 29.542 23.082 29.4834 23.0859C29.4287 23.0898 29.3858 23.0996 29.3545 23.1152C29.3311 23.1895 29.294 23.3047 29.2432 23.4609C29.1924 23.6133 29.1416 23.7715 29.0909 23.9355C29.0401 24.0957 28.9932 24.2402 28.9502 24.3691C28.9112 24.4941 28.8897 24.5664 28.8858 24.5859C28.835 24.75 28.7647 24.959 28.6748 25.2129C28.5889 25.4629 28.4932 25.7988 28.3877 26.2207C28.3916 26.2207 28.4346 26.1992 28.5166 26.1562C28.6026 26.1094 28.712 26.0488 28.8448 25.9746C28.9815 25.9004 29.1358 25.8145 29.3077 25.7168C29.4795 25.6191 29.6573 25.5195 29.8409 25.418L31.2412 24.5918C31.2959 24.5605 31.3428 24.5449 31.3819 24.5449C31.4248 24.5449 31.458 24.5605 31.4815 24.5918C31.5049 24.6191 31.5166 24.6543 31.5166 24.6973C31.5166 24.752 31.4952 24.8164 31.4522 24.8906C31.4092 24.9609 31.3389 25.0234 31.2412 25.0781L28.1241 26.9062C28.0459 26.9531 27.9737 26.9863 27.9073 27.0059C27.8409 27.0254 27.7803 27.0352 27.7256 27.0352C27.6475 27.0352 27.5811 27.0176 27.5264 26.9824C27.4717 26.9473 27.4268 26.8984 27.3916 26.8359C27.3565 26.7734 27.3291 26.7031 27.3096 26.625C27.294 26.543 27.2862 26.457 27.2862 26.3672C27.2862 26.2695 27.2959 26.1719 27.3155 26.0742C27.335 25.9766 27.3604 25.8828 27.3916 25.793C27.2784 26.0156 27.1455 26.209 26.9932 26.373C26.8448 26.5371 26.6846 26.6758 26.5127 26.7891C26.3448 26.8984 26.1709 26.9805 25.9912 27.0352C25.8116 27.0898 25.6358 27.1172 25.4639 27.1172C25.292 27.1172 25.1299 27.0898 24.9776 27.0352C24.8252 26.9805 24.6905 26.9004 24.5733 26.7949C24.46 26.6855 24.3702 26.5508 24.3037 26.3906C24.2373 26.2305 24.2041 26.0449 24.2041 25.834C24.2041 25.709 24.2159 25.5703 24.2393 25.418C24.2666 25.2656 24.3018 25.1113 24.3448 24.9551C24.3877 24.7988 24.4366 24.6465 24.4912 24.498C24.5459 24.3457 24.6026 24.207 24.6612 24.082L22.9678 25.0781ZM28.294 22.9219C27.9815 22.9219 27.6827 22.9746 27.3975 23.0801C27.1123 23.1855 26.8467 23.3242 26.6006 23.4961C26.3584 23.668 26.1377 23.8652 25.9385 24.0879C25.7432 24.3066 25.5752 24.5332 25.4346 24.7676C25.2979 24.998 25.1905 25.2266 25.1123 25.4531C25.0381 25.6797 25.001 25.8828 25.001 26.0625C25.001 26.2617 25.044 26.4238 25.1299 26.5488C25.2198 26.6699 25.3643 26.7305 25.5635 26.7305C25.6807 26.7305 25.8077 26.6953 25.9444 26.625C26.085 26.5508 26.2256 26.4551 26.3662 26.3379C26.5108 26.2168 26.6514 26.082 26.7881 25.9336C26.9287 25.7812 27.0577 25.6289 27.1748 25.4766C27.292 25.3203 27.3936 25.1699 27.4795 25.0254C27.5694 24.877 27.6338 24.748 27.6729 24.6387L28.294 22.9219ZM44.948 25.3359C45.0222 25.3008 45.1218 25.25 45.2468 25.1836C45.3718 25.1133 45.4988 25.041 45.6277 24.9668C45.7605 24.8926 45.8835 24.8223 45.9968 24.7559C46.1101 24.6855 46.1941 24.6309 46.2488 24.5918C46.2995 24.5527 46.3425 24.5332 46.3777 24.5332C46.4089 24.5332 46.4323 24.5605 46.448 24.6152C46.4675 24.666 46.4773 24.7246 46.4773 24.791C46.4773 24.8027 46.4753 24.8145 46.4714 24.8262C46.4714 24.8379 46.4714 24.8496 46.4714 24.8613C46.4636 24.9082 46.4011 24.9746 46.2839 25.0605C46.1667 25.1465 46.0163 25.2441 45.8327 25.3535C45.653 25.459 45.4499 25.5742 45.2234 25.6992C45.0007 25.8203 44.7761 25.9414 44.5495 26.0625C44.3269 26.1797 44.114 26.291 43.9109 26.3965C43.7116 26.498 43.5437 26.584 43.407 26.6543C43.1257 26.7988 42.8445 26.9395 42.5632 27.0762C42.2859 27.2129 42.0163 27.3262 41.7546 27.416C41.3405 27.5801 40.8698 27.7051 40.3425 27.791C39.8191 27.877 39.2214 27.9199 38.5495 27.9199C38.0378 27.9199 37.5573 27.8555 37.1081 27.7266C36.6589 27.5977 36.2663 27.4141 35.9304 27.1758C35.5984 26.9414 35.3347 26.6602 35.1394 26.332C34.948 26 34.8523 25.6328 34.8523 25.2305C34.8523 25.1758 34.8542 25.123 34.8581 25.0723C34.862 25.0176 34.8679 24.9629 34.8757 24.9082C34.653 24.9707 34.4519 25.0254 34.2722 25.0723C34.0964 25.1191 33.9284 25.1602 33.7683 25.1953C33.612 25.2266 33.4577 25.25 33.3054 25.2656C33.157 25.2812 33.0007 25.2891 32.8366 25.2891C32.5202 25.2891 32.2468 25.2559 32.0163 25.1895C31.7898 25.123 31.6023 25.0312 31.4538 24.9141C31.3093 24.793 31.2019 24.6504 31.1316 24.4863C31.0652 24.3184 31.032 24.1328 31.032 23.9297C31.032 23.6523 31.0905 23.3496 31.2077 23.0215C31.3288 22.6934 31.4988 22.3555 31.7175 22.0078C31.9363 21.6602 32.198 21.3105 32.5027 20.959C32.8073 20.6035 33.1452 20.2617 33.5163 19.9336C33.8913 19.6055 34.2937 19.3008 34.7234 19.0195C35.153 18.7344 35.6003 18.4863 36.0652 18.2754C36.53 18.0645 37.0066 17.8984 37.4948 17.7773C37.987 17.6562 38.4792 17.5957 38.9714 17.5957C39.2175 17.5957 39.4265 17.6133 39.5984 17.6484C39.7702 17.6797 39.9089 17.7207 40.0144 17.7715C40.1238 17.8223 40.2038 17.877 40.2546 17.9355C40.3054 17.9902 40.3308 18.041 40.3308 18.0879C40.3308 18.1387 40.3132 18.1758 40.278 18.1992C40.2468 18.2188 40.2097 18.2285 40.1667 18.2285C40.1081 18.2285 40.0359 18.2129 39.9499 18.1816C39.864 18.1504 39.7546 18.1172 39.6218 18.082C39.4929 18.043 39.3347 18.0078 39.1472 17.9766C38.9636 17.9453 38.7448 17.9297 38.4909 17.9297C38.1355 17.9297 37.7644 17.9863 37.3777 18.0996C36.9948 18.2129 36.6101 18.3691 36.2234 18.5684C35.8405 18.7637 35.4616 18.9941 35.0866 19.2598C34.7116 19.5215 34.3562 19.8027 34.0202 20.1035C33.6843 20.4043 33.3718 20.7168 33.0827 21.041C32.7976 21.3652 32.5515 21.6855 32.3445 22.002C32.1374 22.3184 31.9753 22.625 31.8581 22.9219C31.7409 23.2148 31.6823 23.4805 31.6823 23.7188C31.6823 23.875 31.7097 24.0176 31.7644 24.1465C31.8191 24.2754 31.905 24.3867 32.0222 24.4805C32.1433 24.5703 32.2956 24.6406 32.4792 24.6914C32.6667 24.7422 32.8913 24.7676 33.153 24.7676C33.3171 24.7676 33.4616 24.7617 33.5866 24.75C33.7116 24.7383 33.8386 24.7207 33.9675 24.6973C34.0964 24.6699 34.2351 24.6367 34.3835 24.5977C34.5359 24.5586 34.7175 24.5137 34.9284 24.4629C35.0066 24.0371 35.1277 23.6133 35.2917 23.1914C35.4597 22.7695 35.6589 22.3672 35.8894 21.9844C36.1198 21.5977 36.3757 21.2402 36.657 20.9121C36.9421 20.5801 37.239 20.293 37.5476 20.0508C37.8601 19.8086 38.1784 19.6191 38.5027 19.4824C38.8308 19.3418 39.153 19.2715 39.4695 19.2715C39.7038 19.2715 39.9323 19.3145 40.155 19.4004C40.3816 19.4824 40.5964 19.6133 40.7995 19.793C41.0027 19.9727 41.1921 20.2051 41.3679 20.4902C41.5476 20.7754 41.7077 21.1191 41.8484 21.5215C42.2234 21.3066 42.5827 21.0918 42.9265 20.877C43.2741 20.6582 43.6198 20.4316 43.9636 20.1973C44.0222 19.7051 44.0866 19.2383 44.157 18.7969C44.2312 18.3555 44.3308 17.9336 44.4558 17.5312C44.6863 16.8398 44.9402 16.2461 45.2175 15.75C45.4988 15.25 45.7976 14.8398 46.114 14.5195C46.4304 14.1953 46.7624 13.957 47.1101 13.8047C47.4616 13.6484 47.823 13.5703 48.1941 13.5703C48.3855 13.5703 48.5613 13.5918 48.7214 13.6348C48.8855 13.6738 49.0261 13.7324 49.1433 13.8105C49.2605 13.8848 49.3503 13.9805 49.4128 14.0977C49.4792 14.2109 49.5124 14.3398 49.5124 14.4844C49.5124 14.5703 49.5046 14.6465 49.489 14.7129C49.4187 15.0371 49.2917 15.3887 49.1081 15.7676C48.9284 16.1465 48.6804 16.543 48.364 16.957C48.0515 17.3672 47.6667 17.7891 47.2097 18.2227C46.7566 18.6562 46.2214 19.0898 45.6042 19.5234C45.5378 19.8516 45.4753 20.1836 45.4167 20.5195C45.362 20.8555 45.3054 21.1895 45.2468 21.5215C45.1921 21.8535 45.1355 22.1797 45.0769 22.5C45.0183 22.8203 44.9538 23.1289 44.8835 23.4258C44.7585 23.8984 44.6081 24.3457 44.4323 24.7676C44.2605 25.1895 44.0398 25.5781 43.7702 25.9336C44.0163 25.8086 44.2448 25.6914 44.4558 25.582C44.6667 25.4727 44.8308 25.3906 44.948 25.3359ZM43.155 24.4863C43.2409 24.2285 43.323 23.9375 43.4011 23.6133C43.4792 23.2852 43.5495 22.9492 43.612 22.6055C43.6784 22.2578 43.737 21.916 43.7878 21.5801C43.8425 21.2402 43.8874 20.9258 43.9226 20.6367C43.2702 21.0547 42.6023 21.4531 41.9187 21.832C41.9382 21.8984 41.9538 21.9668 41.9655 22.0371C41.9773 22.1035 41.9831 22.1758 41.9831 22.2539C41.9831 22.3359 41.9734 22.4336 41.9538 22.5469C41.9382 22.6562 41.9109 22.7617 41.8718 22.8633C41.8366 22.9609 41.7898 23.0449 41.7312 23.1152C41.6765 23.1855 41.612 23.2207 41.5378 23.2207C41.4753 23.2207 41.4226 23.1992 41.3796 23.1562C41.3405 23.1133 41.321 23.0586 41.321 22.9922C41.321 22.9219 41.3269 22.8535 41.3386 22.7871C41.3503 22.7207 41.3562 22.6562 41.3562 22.5938C41.3562 22.4297 41.3366 22.2891 41.2976 22.1719C40.2585 22.7383 39.237 23.2422 38.2331 23.6836C37.2292 24.125 36.2722 24.4863 35.362 24.7676C35.3581 24.7988 35.3562 24.8281 35.3562 24.8555C35.3562 24.8789 35.3562 24.9043 35.3562 24.9316C35.3562 25.3457 35.4402 25.6973 35.6081 25.9863C35.78 26.2754 36.0105 26.5117 36.2995 26.6953C36.5886 26.875 36.9226 27.0059 37.3015 27.0879C37.6843 27.1699 38.0866 27.2109 38.5085 27.2109C38.7663 27.2109 39.0085 27.1992 39.2351 27.1758C39.4655 27.1562 39.6863 27.127 39.8972 27.0879C39.8347 26.998 39.7917 26.916 39.7683 26.8418C39.7448 26.7676 39.7331 26.7207 39.7331 26.7012C39.7331 26.6191 39.7527 26.5449 39.7917 26.4785C39.8347 26.4082 39.8894 26.3496 39.9558 26.3027C40.0222 26.252 40.1003 26.2129 40.1902 26.1855C40.28 26.1582 40.3757 26.1445 40.4773 26.1445C40.6101 26.1445 40.737 26.1738 40.8581 26.2324C40.9792 26.2871 41.0769 26.377 41.1511 26.502C41.1823 26.5566 41.2195 26.6035 41.2624 26.6426C41.7312 26.4004 42.1159 26.0938 42.4167 25.7227C42.7175 25.3516 42.9636 24.9395 43.155 24.4863ZM41.2566 21.8496C41.1198 21.4707 40.9734 21.1465 40.8171 20.877C40.6609 20.6035 40.4948 20.3809 40.3191 20.209C40.1472 20.0332 39.9675 19.9043 39.78 19.8223C39.5925 19.7402 39.3991 19.6992 39.1999 19.6992C38.9655 19.6992 38.7273 19.7539 38.4851 19.8633C38.2468 19.9727 38.0085 20.127 37.7702 20.3262C37.5359 20.5254 37.3054 20.7656 37.0788 21.0469C36.8523 21.3281 36.6355 21.6406 36.4284 21.9844C36.2253 22.3281 36.0339 22.6992 35.8542 23.0977C35.6745 23.4922 35.5144 23.9062 35.3738 24.3398C36.2917 24.0703 37.2448 23.7246 38.2331 23.3027C39.2253 22.877 40.2331 22.3926 41.2566 21.8496ZM46.0788 17.666C46.0046 17.8887 45.9382 18.1133 45.8796 18.3398C45.821 18.5625 45.7644 18.791 45.7097 19.0254C46.2488 18.6387 46.7077 18.2559 47.0866 17.877C47.4695 17.4941 47.7859 17.125 48.0359 16.7695C48.2898 16.4102 48.487 16.0684 48.6277 15.7441C48.7683 15.4199 48.8679 15.123 48.9265 14.8535C48.9304 14.8418 48.9323 14.8145 48.9323 14.7715C48.9323 14.6348 48.8659 14.5215 48.7331 14.4316C48.6042 14.3418 48.4343 14.2969 48.2234 14.2969C48.0124 14.2969 47.821 14.3516 47.6491 14.4609C47.4812 14.5703 47.3152 14.7559 47.1511 15.0176C46.9909 15.2754 46.8249 15.6211 46.653 16.0547C46.4812 16.4844 46.2898 17.0215 46.0788 17.666ZM46.0687 25.0781C46.0414 25.0938 46.016 25.1016 45.9926 25.1016C45.9535 25.1016 45.9223 25.084 45.8988 25.0488C45.8754 25.0137 45.8637 24.9707 45.8637 24.9199C45.8637 24.8652 45.8793 24.8086 45.9105 24.75C45.9418 24.6875 45.9945 24.6348 46.0687 24.5918C46.6234 24.2637 47.0961 23.9746 47.4867 23.7246C47.8812 23.4746 48.2309 23.2656 48.5355 23.0977C48.8402 22.9258 49.1176 22.7969 49.3676 22.7109C49.6215 22.6211 49.8852 22.5762 50.1586 22.5762C50.5492 22.5762 50.8402 22.6309 51.0316 22.7402C51.227 22.8457 51.3246 22.9922 51.3246 23.1797C51.3246 23.3008 51.3031 23.4082 51.2602 23.502C51.2211 23.5957 51.1664 23.6758 51.0961 23.7422C51.0297 23.8047 50.9516 23.8535 50.8617 23.8887C50.7758 23.9199 50.6879 23.9355 50.598 23.9355C50.5277 23.9355 50.4535 23.9062 50.3754 23.8477C50.3012 23.7852 50.2641 23.6895 50.2641 23.5605C50.2641 23.3262 50.2367 23.1602 50.182 23.0625C50.1312 22.9648 50.0609 22.916 49.9711 22.916C49.8852 22.916 49.7875 22.957 49.6781 23.0391C49.5727 23.1211 49.4633 23.2324 49.35 23.373C49.2367 23.5137 49.1254 23.6758 49.016 23.8594C48.9066 24.043 48.809 24.2363 48.723 24.4395C48.641 24.6426 48.5727 24.8477 48.518 25.0547C48.4672 25.2617 48.4418 25.459 48.4418 25.6465C48.4418 25.998 48.5199 26.2539 48.6762 26.4141C48.8324 26.5742 49.0336 26.6543 49.2797 26.6543C49.5609 26.6543 49.8598 26.584 50.1762 26.4434C50.4926 26.3027 50.8324 26.1289 51.1957 25.9219C51.559 25.7148 51.9457 25.4922 52.3559 25.2539C52.7699 25.0117 53.2152 24.791 53.6918 24.5918C53.7387 24.5684 53.7777 24.5566 53.809 24.5566C53.891 24.5566 53.932 24.6055 53.932 24.7031C53.932 24.7578 53.9125 24.8242 53.8734 24.9023C53.8383 24.9766 53.7777 25.0352 53.6918 25.0781C53.4652 25.1797 53.2328 25.3047 52.9945 25.4531C52.7562 25.5977 52.5102 25.752 52.2562 25.916C52.0062 26.0762 51.7484 26.2363 51.4828 26.3965C51.2172 26.5527 50.9457 26.6953 50.6684 26.8242C50.3949 26.9492 50.1156 27.0508 49.8305 27.1289C49.5453 27.2109 49.2562 27.252 48.9633 27.252C48.6664 27.252 48.4145 27.2109 48.2074 27.1289C48.0004 27.0469 47.8324 26.9375 47.7035 26.8008C47.5746 26.6602 47.4809 26.498 47.4223 26.3145C47.3637 26.1309 47.3344 25.9355 47.3344 25.7285C47.3344 25.5488 47.3578 25.3652 47.4047 25.1777C47.4555 24.9863 47.5238 24.8047 47.6098 24.6328C47.6957 24.457 47.7973 24.2949 47.9145 24.1465C48.0355 23.998 48.1645 23.8711 48.3012 23.7656L46.0687 25.0781ZM60.086 22.7754C60.086 22.873 60.0684 22.9883 60.0333 23.1211C59.9981 23.25 59.9532 23.3887 59.8985 23.5371C59.8438 23.6816 59.7852 23.8301 59.7227 23.9824C59.6602 24.1348 59.6016 24.2832 59.547 24.4277C59.4923 24.5684 59.4473 24.7012 59.4122 24.8262C59.377 24.9512 59.3595 25.0566 59.3595 25.1426C59.3595 25.2168 59.3751 25.2754 59.4063 25.3184C59.4415 25.3613 59.4962 25.3828 59.5704 25.3828C59.6251 25.3828 59.7012 25.3633 59.7989 25.3242C59.9005 25.2812 60.0177 25.2246 60.1505 25.1543C60.2872 25.0801 60.4356 24.9961 60.5958 24.9023C60.7598 24.8047 60.9317 24.7012 61.1114 24.5918C61.1505 24.5684 61.1895 24.5566 61.2286 24.5566C61.2716 24.5566 61.3087 24.5723 61.3399 24.6035C61.3751 24.6348 61.3927 24.6738 61.3927 24.7207C61.3927 24.7715 61.3712 24.8262 61.3282 24.8848C61.2852 24.9395 61.213 25.0039 61.1114 25.0781C60.6036 25.457 60.1387 25.75 59.7169 25.957C59.2989 26.1641 58.9649 26.2676 58.7149 26.2676C58.5118 26.2676 58.3516 26.2363 58.2345 26.1738C58.1173 26.1113 58.0587 26.0137 58.0587 25.8809C58.0587 25.7559 58.1114 25.5977 58.2169 25.4062C58.3262 25.2148 58.504 24.9883 58.7501 24.7266C58.8438 24.5703 58.918 24.4004 58.9727 24.2168C59.0274 24.0293 59.0665 23.8477 59.0899 23.6719C59.1173 23.4922 59.1348 23.3281 59.1427 23.1797C59.1505 23.0273 59.1544 22.9062 59.1544 22.8164C59.1544 22.668 59.129 22.5547 59.0782 22.4766C59.0313 22.3945 58.9512 22.3535 58.838 22.3535C58.713 22.3535 58.5899 22.4102 58.4688 22.5234C58.3516 22.6328 58.2325 22.7852 58.1114 22.9805C57.9942 23.1758 57.877 23.4062 57.7598 23.6719C57.6427 23.9375 57.5216 24.2246 57.3966 24.5332C57.2755 24.8418 57.1505 25.1641 57.0216 25.5C56.8927 25.8359 56.7579 26.1738 56.6173 26.5137C56.5938 26.5801 56.5645 26.6484 56.5294 26.7188C56.4942 26.7891 56.4532 26.8555 56.4063 26.918C56.3634 26.9766 56.3126 27.0254 56.254 27.0645C56.1993 27.1035 56.1407 27.123 56.0782 27.123C55.9298 27.123 55.8184 27.0898 55.7442 27.0234C55.67 26.957 55.6329 26.8477 55.6329 26.6953C55.6329 26.6523 55.6348 26.6074 55.6387 26.5605C55.6466 26.5137 55.6661 26.459 55.6973 26.3965L56.8282 24.1289C56.9766 23.7461 57.1348 23.4297 57.3028 23.1797C57.4747 22.9297 57.629 22.7285 57.7657 22.5762C57.4454 22.7676 57.1251 22.959 56.8048 23.1504C56.4845 23.3418 56.1759 23.5273 55.879 23.707C55.5821 23.8828 55.3009 24.0508 55.0352 24.2109C54.7735 24.3672 54.5391 24.5059 54.3321 24.627C54.1251 24.748 53.9512 24.8477 53.8106 24.9258C53.67 25.0039 53.5723 25.0547 53.5177 25.0781C53.4864 25.0977 53.4532 25.1074 53.418 25.1074C53.3751 25.1074 53.3399 25.0918 53.3126 25.0605C53.2813 25.0293 53.2657 24.9883 53.2657 24.9375C53.2657 24.8828 53.2852 24.8242 53.3243 24.7617C53.3595 24.6953 53.4239 24.6348 53.5177 24.5801L55.0821 23.666C55.2852 23.5449 55.4903 23.4238 55.6973 23.3027C55.9044 23.1777 56.0977 23.0625 56.2774 22.957C56.461 22.8516 56.6231 22.7578 56.7637 22.6758C56.9044 22.5938 57.0118 22.5312 57.086 22.4883C57.2735 22.3789 57.4552 22.2852 57.6309 22.207C57.8106 22.1289 57.9884 22.0645 58.1641 22.0137C58.3399 21.9629 58.5177 21.9238 58.6973 21.8965C58.8809 21.8691 59.0723 21.8496 59.2716 21.8379C59.3575 21.8379 59.4473 21.8652 59.5411 21.9199C59.6387 21.9707 59.7266 22.041 59.8048 22.1309C59.8868 22.2168 59.9532 22.3164 60.004 22.4297C60.0587 22.5391 60.086 22.6543 60.086 22.7754ZM67.5173 25.0781C66.9119 25.4258 66.3982 25.7285 65.9763 25.9863C65.5545 26.2402 65.1951 26.4512 64.8982 26.6191C64.6013 26.7832 64.3494 26.9062 64.1423 26.9883C63.9392 27.0664 63.7537 27.1055 63.5857 27.1055C63.4216 27.1055 63.281 27.0859 63.1638 27.0469C63.0505 27.0078 62.9568 26.9551 62.8826 26.8887C62.8084 26.8223 62.7537 26.7422 62.7185 26.6484C62.6873 26.5547 62.6716 26.4531 62.6716 26.3438C62.6716 26.2617 62.6892 26.1777 62.7244 26.0918C62.7595 26.0059 62.8025 25.918 62.8533 25.8281C62.908 25.7383 62.9646 25.6445 63.0232 25.5469C63.0818 25.4453 63.1365 25.3379 63.1873 25.2246L64.0779 23.2324L60.9314 25.0781C60.8806 25.0977 60.8455 25.1074 60.8259 25.1074C60.7791 25.1074 60.738 25.0918 60.7029 25.0605C60.6638 25.0293 60.6443 24.9883 60.6443 24.9375C60.6443 24.8906 60.6658 24.8379 60.7088 24.7793C60.7478 24.7207 60.822 24.6582 60.9314 24.5918L62.449 23.707C62.6482 23.5898 62.8494 23.4727 63.0525 23.3555C63.2556 23.2383 63.4451 23.1289 63.6209 23.0273C63.8005 22.9258 63.9607 22.8359 64.1013 22.7578C64.2459 22.6758 64.3572 22.6133 64.4353 22.5703H65.1912C65.2068 22.582 65.2205 22.6016 65.2322 22.6289C65.2439 22.6562 65.2498 22.6973 65.2498 22.752C65.2498 22.8535 65.2205 22.998 65.1619 23.1855C65.1033 23.3691 65.0291 23.5762 64.9392 23.8066C64.8533 24.0371 64.7556 24.2793 64.6463 24.5332C64.5408 24.7832 64.4412 25.0215 64.3474 25.248C64.2537 25.4707 64.156 25.6934 64.0545 25.916C63.9529 26.1387 63.8513 26.3672 63.7498 26.6016C63.8552 26.6016 64.0213 26.5488 64.2478 26.4434C64.4783 26.3379 64.7556 26.1953 65.0798 26.0156C65.408 25.832 65.7771 25.6191 66.1873 25.377C66.6013 25.1309 67.0447 24.8691 67.5173 24.5918C67.533 24.5762 67.5623 24.5684 67.6052 24.5684C67.6521 24.5684 67.6951 24.584 67.7341 24.6152C67.7771 24.6465 67.7986 24.6895 67.7986 24.7441C67.7986 24.791 67.7771 24.8438 67.7341 24.9023C67.6951 24.957 67.6228 25.0156 67.5173 25.0781ZM65.9002 20.5195C65.9236 20.5195 65.9666 20.5215 66.0291 20.5254C66.0955 20.5254 66.1697 20.5293 66.2517 20.5371C66.3338 20.5449 66.4197 20.5586 66.5095 20.5781C66.5994 20.5938 66.6814 20.6191 66.7556 20.6543C66.8298 20.6855 66.8923 20.7266 66.9431 20.7773C66.9939 20.8281 67.0213 20.8906 67.0252 20.9648L66.1755 21.6094L65.7888 21.791C65.7185 21.791 65.6638 21.7715 65.6248 21.7324C65.5857 21.6934 65.5564 21.6523 65.5369 21.6094L65.9002 20.5195ZM67.3373 24.5918L70.4428 22.6113C70.4428 22.6113 70.4584 22.5898 70.4897 22.5469C70.517 22.5078 70.56 22.459 70.6186 22.4004C70.6772 22.3418 70.7475 22.2773 70.8295 22.207C70.9155 22.1367 71.0131 22.0723 71.1225 22.0137C71.2319 21.9551 71.353 21.9062 71.4858 21.8672C71.6225 21.8281 71.7709 21.8086 71.9311 21.8086C72.1577 21.8086 72.3979 21.832 72.6518 21.8789C72.9096 21.9219 73.1459 22.0039 73.3608 22.125C73.5756 22.2422 73.7534 22.4082 73.894 22.623C74.0385 22.834 74.1108 23.1074 74.1108 23.4434C74.1108 23.6035 74.0659 23.7871 73.976 23.9941C73.8901 24.1973 73.767 24.4082 73.6069 24.627C73.4506 24.8457 73.2612 25.0664 73.0385 25.2891C72.8159 25.5117 72.5717 25.7227 72.3061 25.9219L74.5151 24.5918C74.5424 24.5801 74.5717 24.5742 74.603 24.5742C74.6459 24.5742 74.6791 24.5898 74.7026 24.6211C74.7299 24.6523 74.7436 24.6914 74.7436 24.7383C74.7436 24.793 74.7241 24.8516 74.685 24.9141C74.6498 24.9766 74.5932 25.0312 74.5151 25.0781C74.0307 25.3672 73.5952 25.6152 73.2084 25.8223C72.8256 26.0254 72.478 26.1953 72.1655 26.332C71.853 26.4688 71.5678 26.5781 71.31 26.6602C71.0561 26.7383 70.8139 26.7988 70.5834 26.8418C70.3569 26.8809 70.1362 26.9062 69.9213 26.918C69.7065 26.9297 69.4838 26.9355 69.2534 26.9355C69.0932 27.2871 68.9233 27.6367 68.7436 27.9844C68.5639 28.3359 68.3901 28.6758 68.2221 29.0039C68.0541 29.3359 67.8979 29.6523 67.7534 29.9531C67.6088 30.2578 67.4916 30.541 67.4018 30.8027C67.3901 30.8379 67.3686 30.8867 67.3373 30.9492C67.3022 31.0117 67.2612 31.0742 67.2143 31.1367C67.1674 31.1992 67.1186 31.252 67.0678 31.2949C67.0131 31.3418 66.9604 31.3652 66.9096 31.3652C66.8432 31.3652 66.7748 31.3574 66.7045 31.3418C66.6342 31.3262 66.5678 31.3027 66.5053 31.2715C66.4428 31.2441 66.392 31.209 66.353 31.166C66.3139 31.127 66.2944 31.0801 66.2944 31.0254C66.2944 31.002 66.2963 30.9883 66.3002 30.9844C66.3432 30.7617 66.4291 30.4941 66.558 30.1816C66.683 29.873 66.8373 29.5332 67.0209 29.1621C67.2006 28.791 67.3979 28.3984 67.6127 27.9844C67.8315 27.5703 68.0522 27.1504 68.2748 26.7246C68.4975 26.2988 68.7123 25.875 68.9194 25.4531C69.1303 25.0312 69.3198 24.627 69.4877 24.2402C69.5112 24.1816 69.5424 24.1211 69.5815 24.0586C69.6245 23.9961 69.6674 23.9336 69.7104 23.8711C69.7573 23.8047 69.8041 23.7422 69.851 23.6836C69.8979 23.625 69.9389 23.5723 69.9741 23.5254C69.9077 23.5605 69.7885 23.6309 69.6166 23.7363C69.4448 23.8379 69.2377 23.9609 68.9955 24.1055C68.7573 24.2461 68.4936 24.4023 68.2045 24.5742C67.9194 24.7422 67.6303 24.9102 67.3373 25.0781C67.3139 25.0898 67.2924 25.0957 67.2729 25.0957C67.2299 25.0957 67.1909 25.0781 67.1557 25.043C67.1205 25.0039 67.103 24.957 67.103 24.9023C67.103 24.8555 67.1205 24.8047 67.1557 24.75C67.1909 24.6953 67.2514 24.6426 67.3373 24.5918ZM72.312 22.4883C72.101 22.4883 71.8803 22.5938 71.6498 22.8047C71.4233 23.0156 71.1928 23.3008 70.9584 23.6602C70.7241 24.0156 70.4897 24.4316 70.2553 24.9082C70.0209 25.3809 69.7924 25.8809 69.5698 26.4082C69.8002 26.4082 70.0444 26.375 70.3022 26.3086C70.5639 26.2422 70.8237 26.1484 71.0815 26.0273C71.3393 25.9023 71.5854 25.7559 71.8198 25.5879C72.058 25.416 72.267 25.2266 72.4467 25.0195C72.6303 24.8086 72.7748 24.584 72.8803 24.3457C72.9897 24.1035 73.0444 23.8535 73.0444 23.5957C73.0444 23.4277 73.0307 23.2773 73.0034 23.1445C72.976 23.0078 72.933 22.8906 72.8745 22.793C72.8159 22.6953 72.7397 22.6211 72.6459 22.5703C72.5561 22.5156 72.4448 22.4883 72.312 22.4883ZM80.6866 18.8262C80.464 18.8262 80.253 18.873 80.0538 18.9668C79.8546 19.0605 79.6652 19.1895 79.4855 19.3535C79.3097 19.5176 79.1437 19.7129 78.9874 19.9395C78.8312 20.166 78.6847 20.4102 78.548 20.6719C78.4112 20.9336 78.2843 21.209 78.1671 21.498C78.0538 21.7871 77.9503 22.0781 77.8566 22.3711C78.3839 21.9922 78.8468 21.6328 79.2452 21.293C79.6437 20.9531 79.9777 20.6426 80.2472 20.3613C80.5167 20.0801 80.7179 19.832 80.8507 19.6172C80.9874 19.3984 81.0558 19.2207 81.0558 19.084C81.0558 19.0059 81.0304 18.9434 80.9796 18.8965C80.9327 18.8496 80.8351 18.8262 80.6866 18.8262ZM81.2784 22.2832C81.3722 22.3301 81.4191 22.3867 81.4191 22.4531C81.4191 22.5547 81.38 22.6484 81.3019 22.7344C81.2277 22.8203 81.128 22.8984 81.003 22.9688C80.882 23.0352 80.7433 23.0938 80.587 23.1445C80.4347 23.1953 80.2804 23.2383 80.1241 23.2734C79.9718 23.3086 79.8253 23.3359 79.6847 23.3555C79.5284 23.375 79.4112 23.3828 79.3331 23.3789C79.0284 23.3711 78.7277 23.3652 78.4308 23.3613L77.5695 23.3496C77.4523 23.7871 77.3605 24.1621 77.2941 24.4746C77.2277 24.7832 77.1769 25.0527 77.1417 25.2832C77.1105 25.5098 77.0909 25.707 77.0831 25.875C77.0753 26.043 77.0714 26.2051 77.0714 26.3613C77.0714 26.4473 77.0831 26.5156 77.1066 26.5664C77.13 26.6172 77.1691 26.6426 77.2237 26.6426C77.4152 26.6426 77.6261 26.5781 77.8566 26.4492C78.0909 26.3203 78.3527 26.1562 78.6417 25.957L79.6144 25.2949C80.1456 24.9316 80.5441 24.6973 80.8097 24.5918C80.8292 24.584 80.8683 24.5664 80.9269 24.5391C80.9581 24.5273 80.9874 24.5215 81.0148 24.5215C81.1007 24.5215 81.1437 24.5664 81.1437 24.6562C81.1437 24.7148 81.1183 24.7832 81.0675 24.8613C81.0128 24.9355 80.9269 25.0078 80.8097 25.0781C80.212 25.4375 79.7706 25.7188 79.4855 25.9219L78.4835 26.6484C78.1866 26.8594 77.9152 27.0273 77.6691 27.1523C77.4191 27.2773 77.1671 27.3398 76.9132 27.3398C76.6945 27.3398 76.5245 27.2812 76.4034 27.1641C76.2862 27.0469 76.1984 26.9043 76.1398 26.7363C76.0851 26.5645 76.0519 26.3809 76.0402 26.1855C76.0284 25.9902 76.0226 25.8164 76.0226 25.6641C76.0226 25.3672 76.0382 25.0723 76.0695 24.7793C76.1046 24.4863 76.1495 24.2051 76.2042 23.9355L75.2843 24.5156L74.3409 25.0781C74.3214 25.0898 74.2999 25.0957 74.2765 25.0957C74.2335 25.0957 74.1925 25.0781 74.1534 25.043C74.1144 25.0039 74.0948 24.957 74.0948 24.9023C74.0948 24.8594 74.1124 24.8105 74.1476 24.7559C74.1827 24.7012 74.2472 24.6465 74.3409 24.5918L75.378 24C75.7062 23.8047 76.0226 23.6074 76.3273 23.4082L76.339 23.3555L75.589 23.373C75.5499 23.373 75.5128 23.375 75.4777 23.3789C75.4425 23.3828 75.4093 23.3848 75.378 23.3848C75.3116 23.3848 75.257 23.3652 75.214 23.3262C75.1749 23.2832 75.1515 23.2363 75.1437 23.1855C75.1437 23.1426 75.1769 23.1016 75.2433 23.0625C75.3097 23.0234 75.4034 22.9883 75.5245 22.957C75.6456 22.9219 75.7902 22.8906 75.9581 22.8633C76.1261 22.832 76.3116 22.8047 76.5148 22.7812C76.7491 22.0469 77.003 21.4102 77.2765 20.8711C77.5499 20.332 77.8566 19.8867 78.1964 19.5352C78.5402 19.1836 78.923 18.9219 79.3448 18.75C79.7667 18.5781 80.2433 18.4922 80.7745 18.4922C81.0206 18.4922 81.1984 18.5312 81.3077 18.6094C81.421 18.6836 81.4777 18.7891 81.4777 18.9258C81.4777 19.1133 81.3937 19.3398 81.2257 19.6055C81.0616 19.8711 80.8292 20.166 80.5284 20.4902C80.2316 20.8105 79.8741 21.1523 79.4562 21.5156C79.0421 21.875 78.5831 22.2441 78.0792 22.623C78.3292 22.5996 78.5831 22.5781 78.8409 22.5586L79.6027 22.4941C79.8527 22.4746 80.0968 22.4531 80.3351 22.4297C80.5773 22.4062 80.8077 22.3809 81.0265 22.3535C81.0695 22.3418 81.1007 22.3262 81.1202 22.3066C81.1398 22.2832 81.173 22.2715 81.2198 22.2715C81.2355 22.2715 81.255 22.2754 81.2784 22.2832Z" fill="black"/>
<path d="M23.8867 89.3359C23.9609 89.3008 24.0605 89.25 24.1855 89.1836C24.3105 89.1133 24.4375 89.041 24.5664 88.9668C24.6992 88.8926 24.8223 88.8223 24.9355 88.7559C25.0488 88.6855 25.1328 88.6309 25.1875 88.5918C25.2383 88.5527 25.2812 88.5332 25.3164 88.5332C25.3477 88.5332 25.3711 88.5605 25.3867 88.6152C25.4062 88.666 25.416 88.7246 25.416 88.791C25.416 88.8027 25.4141 88.8145 25.4102 88.8262C25.4102 88.8379 25.4102 88.8496 25.4102 88.8613C25.4023 88.9082 25.3398 88.9746 25.2227 89.0605C25.1055 89.1465 24.9551 89.2441 24.7715 89.3535C24.5918 89.459 24.3887 89.5742 24.1621 89.6992C23.9395 89.8203 23.7148 89.9414 23.4883 90.0625C23.2656 90.1797 23.0527 90.291 22.8496 90.3965C22.6504 90.498 22.4824 90.584 22.3457 90.6543C22.0645 90.7988 21.7832 90.9395 21.502 91.0762C21.2246 91.2129 20.9551 91.3262 20.6934 91.416C20.2793 91.5801 19.8086 91.7051 19.2812 91.791C18.7578 91.877 18.1602 91.9199 17.4883 91.9199C16.9766 91.9199 16.4961 91.8555 16.0469 91.7266C15.5977 91.5977 15.2051 91.4141 14.8691 91.1758C14.5371 90.9414 14.2734 90.6602 14.0781 90.332C13.8867 90 13.791 89.6328 13.791 89.2305C13.791 89.1758 13.793 89.123 13.7969 89.0723C13.8008 89.0176 13.8066 88.9629 13.8145 88.9082C13.5918 88.9707 13.3906 89.0254 13.2109 89.0723C13.0352 89.1191 12.8672 89.1602 12.707 89.1953C12.5508 89.2266 12.3965 89.25 12.2441 89.2656C12.0957 89.2812 11.9395 89.2891 11.7754 89.2891C11.459 89.2891 11.1855 89.2559 10.9551 89.1895C10.7285 89.123 10.541 89.0312 10.3926 88.9141C10.248 88.793 10.1406 88.6504 10.0703 88.4863C10.0039 88.3184 9.9707 88.1328 9.9707 87.9297C9.9707 87.6523 10.0293 87.3496 10.1465 87.0215C10.2676 86.6934 10.4375 86.3555 10.6562 86.0078C10.875 85.6602 11.1367 85.3105 11.4414 84.959C11.7461 84.6035 12.084 84.2617 12.4551 83.9336C12.8301 83.6055 13.2324 83.3008 13.6621 83.0195C14.0918 82.7344 14.5391 82.4863 15.0039 82.2754C15.4688 82.0645 15.9453 81.8984 16.4336 81.7773C16.9258 81.6562 17.418 81.5957 17.9102 81.5957C18.1562 81.5957 18.3652 81.6133 18.5371 81.6484C18.709 81.6797 18.8477 81.7207 18.9531 81.7715C19.0625 81.8223 19.1426 81.877 19.1934 81.9355C19.2441 81.9902 19.2695 82.041 19.2695 82.0879C19.2695 82.1387 19.252 82.1758 19.2168 82.1992C19.1855 82.2188 19.1484 82.2285 19.1055 82.2285C19.0469 82.2285 18.9746 82.2129 18.8887 82.1816C18.8027 82.1504 18.6934 82.1172 18.5605 82.082C18.4316 82.043 18.2734 82.0078 18.0859 81.9766C17.9023 81.9453 17.6836 81.9297 17.4297 81.9297C17.0742 81.9297 16.7031 81.9863 16.3164 82.0996C15.9336 82.2129 15.5488 82.3691 15.1621 82.5684C14.7793 82.7637 14.4004 82.9941 14.0254 83.2598C13.6504 83.5215 13.2949 83.8027 12.959 84.1035C12.623 84.4043 12.3105 84.7168 12.0215 85.041C11.7363 85.3652 11.4902 85.6855 11.2832 86.002C11.0762 86.3184 10.9141 86.625 10.7969 86.9219C10.6797 87.2148 10.6211 87.4805 10.6211 87.7188C10.6211 87.875 10.6484 88.0176 10.7031 88.1465C10.7578 88.2754 10.8438 88.3867 10.9609 88.4805C11.082 88.5703 11.2344 88.6406 11.418 88.6914C11.6055 88.7422 11.8301 88.7676 12.0918 88.7676C12.2559 88.7676 12.4004 88.7617 12.5254 88.75C12.6504 88.7383 12.7773 88.7207 12.9062 88.6973C13.0352 88.6699 13.1738 88.6367 13.3223 88.5977C13.4746 88.5586 13.6562 88.5137 13.8672 88.4629C13.9453 88.0371 14.0664 87.6133 14.2305 87.1914C14.3984 86.7695 14.5977 86.3672 14.8281 85.9844C15.0586 85.5977 15.3145 85.2402 15.5957 84.9121C15.8809 84.5801 16.1777 84.293 16.4863 84.0508C16.7988 83.8086 17.1172 83.6191 17.4414 83.4824C17.7695 83.3418 18.0918 83.2715 18.4082 83.2715C18.6426 83.2715 18.8711 83.3145 19.0938 83.4004C19.3203 83.4824 19.5352 83.6133 19.7383 83.793C19.9414 83.9727 20.1309 84.2051 20.3066 84.4902C20.4863 84.7754 20.6465 85.1191 20.7871 85.5215C21.1621 85.3066 21.5215 85.0918 21.8652 84.877C22.2129 84.6582 22.5586 84.4316 22.9023 84.1973C22.9609 83.7051 23.0254 83.2383 23.0957 82.7969C23.1699 82.3555 23.2695 81.9336 23.3945 81.5312C23.625 80.8398 23.8789 80.2461 24.1562 79.75C24.4375 79.25 24.7363 78.8398 25.0527 78.5195C25.3691 78.1953 25.7012 77.957 26.0488 77.8047C26.4004 77.6484 26.7617 77.5703 27.1328 77.5703C27.3242 77.5703 27.5 77.5918 27.6602 77.6348C27.8242 77.6738 27.9648 77.7324 28.082 77.8105C28.1992 77.8848 28.2891 77.9805 28.3516 78.0977C28.418 78.2109 28.4512 78.3398 28.4512 78.4844C28.4512 78.5703 28.4434 78.6465 28.4277 78.7129C28.3574 79.0371 28.2305 79.3887 28.0469 79.7676C27.8672 80.1465 27.6191 80.543 27.3027 80.957C26.9902 81.3672 26.6055 81.7891 26.1484 82.2227C25.6953 82.6562 25.1602 83.0898 24.543 83.5234C24.4766 83.8516 24.4141 84.1836 24.3555 84.5195C24.3008 84.8555 24.2441 85.1895 24.1855 85.5215C24.1309 85.8535 24.0742 86.1797 24.0156 86.5C23.957 86.8203 23.8926 87.1289 23.8223 87.4258C23.6973 87.8984 23.5469 88.3457 23.3711 88.7676C23.1992 89.1895 22.9785 89.5781 22.709 89.9336C22.9551 89.8086 23.1836 89.6914 23.3945 89.582C23.6055 89.4727 23.7695 89.3906 23.8867 89.3359ZM22.0938 88.4863C22.1797 88.2285 22.2617 87.9375 22.3398 87.6133C22.418 87.2852 22.4883 86.9492 22.5508 86.6055C22.6172 86.2578 22.6758 85.916 22.7266 85.5801C22.7812 85.2402 22.8262 84.9258 22.8613 84.6367C22.209 85.0547 21.541 85.4531 20.8574 85.832C20.877 85.8984 20.8926 85.9668 20.9043 86.0371C20.916 86.1035 20.9219 86.1758 20.9219 86.2539C20.9219 86.3359 20.9121 86.4336 20.8926 86.5469C20.877 86.6562 20.8496 86.7617 20.8105 86.8633C20.7754 86.9609 20.7285 87.0449 20.6699 87.1152C20.6152 87.1855 20.5508 87.2207 20.4766 87.2207C20.4141 87.2207 20.3613 87.1992 20.3184 87.1562C20.2793 87.1133 20.2598 87.0586 20.2598 86.9922C20.2598 86.9219 20.2656 86.8535 20.2773 86.7871C20.2891 86.7207 20.2949 86.6562 20.2949 86.5938C20.2949 86.4297 20.2754 86.2891 20.2363 86.1719C19.1973 86.7383 18.1758 87.2422 17.1719 87.6836C16.168 88.125 15.2109 88.4863 14.3008 88.7676C14.2969 88.7988 14.2949 88.8281 14.2949 88.8555C14.2949 88.8789 14.2949 88.9043 14.2949 88.9316C14.2949 89.3457 14.3789 89.6973 14.5469 89.9863C14.7188 90.2754 14.9492 90.5117 15.2383 90.6953C15.5273 90.875 15.8613 91.0059 16.2402 91.0879C16.623 91.1699 17.0254 91.2109 17.4473 91.2109C17.7051 91.2109 17.9473 91.1992 18.1738 91.1758C18.4043 91.1562 18.625 91.127 18.8359 91.0879C18.7734 90.998 18.7305 90.916 18.707 90.8418C18.6836 90.7676 18.6719 90.7207 18.6719 90.7012C18.6719 90.6191 18.6914 90.5449 18.7305 90.4785C18.7734 90.4082 18.8281 90.3496 18.8945 90.3027C18.9609 90.252 19.0391 90.2129 19.1289 90.1855C19.2188 90.1582 19.3145 90.1445 19.416 90.1445C19.5488 90.1445 19.6758 90.1738 19.7969 90.2324C19.918 90.2871 20.0156 90.377 20.0898 90.502C20.1211 90.5566 20.1582 90.6035 20.2012 90.6426C20.6699 90.4004 21.0547 90.0938 21.3555 89.7227C21.6562 89.3516 21.9023 88.9395 22.0938 88.4863ZM20.1953 85.8496C20.0586 85.4707 19.9121 85.1465 19.7559 84.877C19.5996 84.6035 19.4336 84.3809 19.2578 84.209C19.0859 84.0332 18.9062 83.9043 18.7188 83.8223C18.5312 83.7402 18.3379 83.6992 18.1387 83.6992C17.9043 83.6992 17.666 83.7539 17.4238 83.8633C17.1855 83.9727 16.9473 84.127 16.709 84.3262C16.4746 84.5254 16.2441 84.7656 16.0176 85.0469C15.791 85.3281 15.5742 85.6406 15.3672 85.9844C15.1641 86.3281 14.9727 86.6992 14.793 87.0977C14.6133 87.4922 14.4531 87.9062 14.3125 88.3398C15.2305 88.0703 16.1836 87.7246 17.1719 87.3027C18.1641 86.877 19.1719 86.3926 20.1953 85.8496ZM25.0176 81.666C24.9434 81.8887 24.877 82.1133 24.8184 82.3398C24.7598 82.5625 24.7031 82.791 24.6484 83.0254C25.1875 82.6387 25.6465 82.2559 26.0254 81.877C26.4082 81.4941 26.7246 81.125 26.9746 80.7695C27.2285 80.4102 27.4258 80.0684 27.5664 79.7441C27.707 79.4199 27.8066 79.123 27.8652 78.8535C27.8691 78.8418 27.8711 78.8145 27.8711 78.7715C27.8711 78.6348 27.8047 78.5215 27.6719 78.4316C27.543 78.3418 27.373 78.2969 27.1621 78.2969C26.9512 78.2969 26.7598 78.3516 26.5879 78.4609C26.4199 78.5703 26.2539 78.7559 26.0898 79.0176C25.9297 79.2754 25.7637 79.6211 25.5918 80.0547C25.4199 80.4844 25.2285 81.0215 25.0176 81.666ZM25.0075 89.0781C24.9802 89.0938 24.9548 89.1016 24.9313 89.1016C24.8923 89.1016 24.863 89.0859 24.8434 89.0547C24.8239 89.0195 24.8141 88.9766 24.8141 88.9258C24.8141 88.8711 24.8278 88.8125 24.8552 88.75C24.8825 88.6875 24.9333 88.6348 25.0075 88.5918L27.1755 87.3145C27.445 87.1582 27.7321 87.0234 28.0368 86.9102C28.3415 86.7969 28.6501 86.7051 28.9626 86.6348C29.279 86.5605 29.5915 86.5078 29.9001 86.4766C30.2087 86.4414 30.4997 86.4238 30.7731 86.4238C30.9294 86.4238 31.0759 86.4355 31.2126 86.459C31.3493 86.4785 31.4665 86.5098 31.5641 86.5527C31.6657 86.5918 31.7438 86.6406 31.7985 86.6992C31.8571 86.7578 31.8864 86.8242 31.8864 86.8984C31.8864 86.9531 31.8669 86.9922 31.8278 87.0156C31.7887 87.0391 31.7419 87.0566 31.6872 87.0684C31.6364 87.0762 31.5817 87.082 31.5231 87.0859C31.4684 87.0898 31.4255 87.0996 31.3942 87.1152C31.3708 87.1895 31.3337 87.3047 31.2829 87.4609C31.2321 87.6133 31.1813 87.7715 31.1305 87.9355C31.0798 88.0957 31.0329 88.2402 30.9899 88.3691C30.9509 88.4941 30.9294 88.5664 30.9255 88.5859C30.8747 88.75 30.8044 88.959 30.7145 89.2129C30.6286 89.4629 30.5329 89.7988 30.4274 90.2207C30.4313 90.2207 30.4743 90.1992 30.5563 90.1562C30.6423 90.1094 30.7516 90.0488 30.8845 89.9746C31.0212 89.9004 31.1755 89.8145 31.3473 89.7168C31.5192 89.6191 31.697 89.5195 31.8805 89.418L33.2809 88.5918C33.3356 88.5605 33.3825 88.5449 33.4216 88.5449C33.4645 88.5449 33.4977 88.5605 33.5212 88.5918C33.5446 88.6191 33.5563 88.6543 33.5563 88.6973C33.5563 88.752 33.5348 88.8164 33.4919 88.8906C33.4489 88.9609 33.3786 89.0234 33.2809 89.0781L30.1637 90.9062C30.0856 90.9531 30.0134 90.9863 29.947 91.0059C29.8805 91.0254 29.82 91.0352 29.7653 91.0352C29.6872 91.0352 29.6208 91.0176 29.5661 90.9824C29.5114 90.9473 29.4665 90.8984 29.4313 90.8359C29.3962 90.7734 29.3688 90.7031 29.3493 90.625C29.3337 90.543 29.3259 90.457 29.3259 90.3672C29.3259 90.2695 29.3356 90.1719 29.3552 90.0742C29.3747 89.9766 29.4001 89.8828 29.4313 89.793C29.318 90.0156 29.1852 90.209 29.0329 90.373C28.8845 90.5371 28.7243 90.6758 28.5524 90.7891C28.3845 90.8984 28.2106 90.9805 28.0309 91.0352C27.8512 91.0898 27.6755 91.1172 27.5036 91.1172C27.3317 91.1172 27.1696 91.0898 27.0173 91.0352C26.8649 90.9805 26.7302 90.9004 26.613 90.7949C26.4997 90.6855 26.4098 90.5508 26.3434 90.3906C26.277 90.2305 26.2438 90.0449 26.2438 89.834C26.2438 89.709 26.2555 89.5703 26.279 89.418C26.3063 89.2656 26.3415 89.1113 26.3845 88.9551C26.4274 88.7988 26.4762 88.6465 26.5309 88.498C26.5856 88.3457 26.6423 88.207 26.7009 88.082L25.0075 89.0781ZM30.3337 86.9219C30.0212 86.9219 29.7223 86.9746 29.4372 87.0801C29.152 87.1855 28.8864 87.3242 28.6403 87.4961C28.3981 87.668 28.1774 87.8652 27.9782 88.0879C27.7829 88.3066 27.6149 88.5332 27.4743 88.7676C27.3376 88.998 27.2302 89.2266 27.152 89.4531C27.0778 89.6797 27.0407 89.8828 27.0407 90.0625C27.0407 90.2617 27.0837 90.4238 27.1696 90.5488C27.2595 90.6699 27.404 90.7305 27.6032 90.7305C27.7204 90.7305 27.8473 90.6953 27.9841 90.625C28.1247 90.5508 28.2653 90.4551 28.4059 90.3379C28.5505 90.2168 28.6911 90.082 28.8278 89.9336C28.9684 89.7812 29.0973 89.6289 29.2145 89.4766C29.3317 89.3203 29.4333 89.1699 29.5192 89.0254C29.6091 88.877 29.6735 88.748 29.7126 88.6387L30.3337 86.9219ZM37.0384 87.2676C37.0384 87.4316 37.0502 87.5527 37.0736 87.6309C37.097 87.709 37.1224 87.7793 37.1498 87.8418C37.181 87.9004 37.2084 87.9668 37.2318 88.041C37.2591 88.1113 37.2728 88.2227 37.2728 88.375C37.2728 88.4805 37.2611 88.5996 37.2377 88.7324C37.2181 88.8613 37.1791 88.9961 37.1205 89.1367C37.0619 89.2734 36.9798 89.4102 36.8744 89.5469C36.7689 89.6797 36.6341 89.7988 36.4701 89.9043L38.767 88.5918C38.7943 88.5762 38.8216 88.5684 38.849 88.5684C38.892 88.5684 38.9291 88.5859 38.9603 88.6211C38.9955 88.6523 39.013 88.6953 39.013 88.75C39.013 88.793 38.9935 88.8457 38.9545 88.9082C38.9193 88.9707 38.8568 89.0273 38.767 89.0781C38.2865 89.3516 37.8724 89.5898 37.5248 89.793C37.181 89.9922 36.8861 90.1641 36.64 90.3086C36.3978 90.4531 36.1986 90.5742 36.0423 90.6719C35.8861 90.7656 35.7552 90.8438 35.6498 90.9062C35.4623 91.0195 35.2845 91.0957 35.1166 91.1348C34.9486 91.1738 34.7826 91.1934 34.6185 91.1934C34.4935 91.1934 34.4017 91.1719 34.3431 91.1289C34.2884 91.0859 34.2611 91.0391 34.2611 90.9883C34.265 90.9336 34.2962 90.8848 34.3548 90.8418C34.4134 90.7949 34.4974 90.7715 34.6068 90.7715C34.7982 90.7715 34.9837 90.707 35.1634 90.5781C35.3431 90.4453 35.5013 90.2676 35.638 90.0449C35.7787 89.8184 35.89 89.5547 35.972 89.2539C36.058 88.9531 36.1009 88.6348 36.1009 88.2988C36.1009 88.248 36.1107 88.1504 36.1302 88.0059C36.1537 87.8613 36.1888 87.7051 36.2357 87.5371C36.2826 87.3691 36.3431 87.2051 36.4173 87.0449C36.4955 86.8848 36.5873 86.7637 36.6927 86.6816L33.1009 89.0781C33.0619 89.1055 33.0209 89.1191 32.9779 89.1191C32.9349 89.1191 32.8998 89.1035 32.8724 89.0723C32.8451 89.041 32.8314 89.002 32.8314 88.9551C32.8314 88.9004 32.8529 88.8398 32.8959 88.7734C32.9349 88.707 33.0033 88.6465 33.1009 88.5918C33.7298 88.166 34.2572 87.8125 34.683 87.5312C35.1127 87.2461 35.4623 87.0156 35.7318 86.8398L36.5521 86.2832C36.6732 86.2324 36.8002 86.1934 36.933 86.166C37.0658 86.1348 37.1888 86.1191 37.3021 86.1191C37.4271 86.1191 37.5287 86.1406 37.6068 86.1836C37.6888 86.2227 37.7298 86.2871 37.7298 86.377C37.7298 86.4082 37.6927 86.459 37.6185 86.5293C37.5482 86.5996 37.4701 86.6797 37.3841 86.7695C37.2982 86.8555 37.2181 86.9434 37.1439 87.0332C37.0736 87.123 37.0384 87.2012 37.0384 87.2676ZM42.5303 87.2676C42.5303 87.4316 42.542 87.5527 42.5655 87.6309C42.5889 87.709 42.6143 87.7793 42.6416 87.8418C42.6729 87.9004 42.7002 87.9668 42.7237 88.041C42.751 88.1113 42.7647 88.2227 42.7647 88.375C42.7647 88.4805 42.753 88.5996 42.7295 88.7324C42.71 88.8613 42.6709 88.9961 42.6123 89.1367C42.5537 89.2734 42.4717 89.4102 42.3662 89.5469C42.2608 89.6797 42.126 89.7988 41.962 89.9043L44.2588 88.5918C44.2862 88.5762 44.3135 88.5684 44.3409 88.5684C44.3838 88.5684 44.4209 88.5859 44.4522 88.6211C44.4873 88.6523 44.5049 88.6953 44.5049 88.75C44.5049 88.793 44.4854 88.8457 44.4463 88.9082C44.4112 88.9707 44.3487 89.0273 44.2588 89.0781C43.7784 89.3516 43.3643 89.5898 43.0166 89.793C42.6729 89.9922 42.378 90.1641 42.1319 90.3086C41.8897 90.4531 41.6905 90.5742 41.5342 90.6719C41.378 90.7656 41.2471 90.8438 41.1416 90.9062C40.9541 91.0195 40.7764 91.0957 40.6084 91.1348C40.4405 91.1738 40.2745 91.1934 40.1104 91.1934C39.9854 91.1934 39.8936 91.1719 39.835 91.1289C39.7803 91.0859 39.753 91.0391 39.753 90.9883C39.7569 90.9336 39.7881 90.8848 39.8467 90.8418C39.9053 90.7949 39.9893 90.7715 40.0987 90.7715C40.2901 90.7715 40.4756 90.707 40.6553 90.5781C40.835 90.4453 40.9932 90.2676 41.1299 90.0449C41.2705 89.8184 41.3819 89.5547 41.4639 89.2539C41.5498 88.9531 41.5928 88.6348 41.5928 88.2988C41.5928 88.248 41.6026 88.1504 41.6221 88.0059C41.6455 87.8613 41.6807 87.7051 41.7276 87.5371C41.7745 87.3691 41.835 87.2051 41.9092 87.0449C41.9873 86.8848 42.0791 86.7637 42.1846 86.6816L38.5928 89.0781C38.5537 89.1055 38.5127 89.1191 38.4698 89.1191C38.4268 89.1191 38.3916 89.1035 38.3643 89.0723C38.337 89.041 38.3233 89.002 38.3233 88.9551C38.3233 88.9004 38.3448 88.8398 38.3877 88.7734C38.4268 88.707 38.4952 88.6465 38.5928 88.5918C39.2217 88.166 39.7491 87.8125 40.1748 87.5312C40.6045 87.2461 40.9541 87.0156 41.2237 86.8398L42.044 86.2832C42.1651 86.2324 42.292 86.1934 42.4248 86.166C42.5577 86.1348 42.6807 86.1191 42.794 86.1191C42.919 86.1191 43.0205 86.1406 43.0987 86.1836C43.1807 86.2227 43.2217 86.2871 43.2217 86.377C43.2217 86.4082 43.1846 86.459 43.1104 86.5293C43.0401 86.5996 42.962 86.6797 42.876 86.7695C42.7901 86.8555 42.71 86.9434 42.6358 87.0332C42.5655 87.123 42.5303 87.2012 42.5303 87.2676Z" fill="black"/>
</svg>
