<svg width="155" height="66" viewBox="0 0 155 66" fill="none" xmlns="http://www.w3.org/2000/svg">
<path d="M0.433594 9.73047C0.785156 9.46875 1.09766 9.24023 1.37109 9.04492C1.64844 8.8457 1.89258 8.68164 2.10352 8.55273C2.31836 8.41992 2.50391 8.32031 2.66016 8.25391C2.82031 8.1875 2.96094 8.1543 3.08203 8.1543C3.11719 8.1543 3.15234 8.16016 3.1875 8.17188C3.22656 8.17969 3.26172 8.19336 3.29297 8.21289C3.32422 8.23242 3.34961 8.25586 3.36914 8.2832C3.39258 8.31055 3.4043 8.34375 3.4043 8.38281C3.4043 8.44531 3.3457 8.52734 3.22852 8.62891C3.11133 8.72656 2.95703 8.8418 2.76562 8.97461C2.57422 9.10742 2.35547 9.25781 2.10938 9.42578C1.86328 9.58984 1.61328 9.76758 1.35938 9.95898L1.14258 10.123C1.25977 10.2832 1.39258 10.4453 1.54102 10.6094C1.68945 10.7734 1.83008 10.9258 1.96289 11.0664C2.09961 11.207 2.21875 11.3301 2.32031 11.4355C2.42188 11.5371 2.48438 11.6074 2.50781 11.6465C2.66797 11.8652 2.74805 12.0293 2.74805 12.1387C2.74805 12.1934 2.73242 12.2402 2.70117 12.2793C2.67383 12.3145 2.64062 12.3438 2.60156 12.3672C2.56641 12.3867 2.53125 12.4023 2.49609 12.4141C2.46094 12.4219 2.4375 12.4258 2.42578 12.4258C2.32422 12.4258 2.18555 12.3574 2.00977 12.2207C1.83789 12.084 1.65039 11.9121 1.44727 11.7051C1.24414 11.498 1.03906 11.2754 0.832031 11.0371C0.628906 10.7949 0.447266 10.5703 0.287109 10.3633C0.251953 10.3203 0.226562 10.2793 0.210938 10.2402C0.199219 10.1973 0.193359 10.1582 0.193359 10.123C0.193359 10.0762 0.201172 10.0332 0.216797 9.99414C0.236328 9.95117 0.257812 9.91211 0.28125 9.87695C0.308594 9.8418 0.335938 9.8125 0.363281 9.78906C0.390625 9.76172 0.414062 9.74219 0.433594 9.73047ZM4.97039 12.2031C4.97039 12.0703 4.97625 11.9258 4.98797 11.7695C5.00359 11.6094 5.02117 11.4434 5.0407 11.2715C5.06414 11.0957 5.09148 10.9199 5.12273 10.7441C5.15398 10.5645 5.18719 10.3887 5.22234 10.2168L3.7575 11.0781C3.71844 11.1055 3.67547 11.1191 3.62859 11.1191C3.58172 11.1191 3.54266 11.1035 3.51141 11.0723C3.47625 11.041 3.45867 11.002 3.45867 10.9551C3.45867 10.9004 3.48211 10.8438 3.52898 10.7852C3.57195 10.7227 3.64812 10.6582 3.7575 10.5918L5.28094 9.63672C5.34344 9.45703 5.43328 9.21484 5.55047 8.91016C5.66766 8.60547 5.81219 8.26758 5.98406 7.89648C6.15594 7.52539 6.35516 7.13281 6.58172 6.71875C6.80828 6.30469 7.06414 5.89453 7.3493 5.48828C7.63445 5.08203 7.94695 4.69531 8.2868 4.32812C8.62664 3.95703 8.99383 3.63086 9.38836 3.34961C9.7868 3.06836 10.2126 2.8457 10.6657 2.68164C11.1227 2.51367 11.6091 2.42969 12.1247 2.42969C12.5622 2.42969 12.943 2.46094 13.2673 2.52344C13.5915 2.58203 13.8591 2.66602 14.07 2.77539C14.2809 2.88477 14.4372 3.01367 14.5387 3.16211C14.6442 3.30664 14.697 3.46484 14.697 3.63672C14.697 3.90625 14.5798 4.18945 14.3454 4.48633C14.1149 4.7793 13.7692 5.06641 13.3083 5.34766L6.64031 9.45508L6.28875 11.7109C6.48797 11.5898 6.68719 11.4688 6.88641 11.3477C7.08562 11.2227 7.27312 11.1035 7.44891 10.9902C7.62859 10.877 7.7907 10.7734 7.93523 10.6797C8.08367 10.582 8.20281 10.5 8.29266 10.4336C8.33562 10.3945 8.39227 10.3496 8.46258 10.2988C8.5368 10.248 8.61883 10.2012 8.70867 10.1582C8.80242 10.1152 8.90203 10.0781 9.0075 10.0469C9.11297 10.0156 9.22234 10 9.33562 10C9.41766 10 9.49969 10.0098 9.58172 10.0293C9.66375 10.0449 9.73602 10.084 9.79852 10.1465C9.86492 10.209 9.91766 10.2988 9.95672 10.416C9.99969 10.5332 10.0212 10.6914 10.0212 10.8906V12.4023C10.0602 12.3789 10.1325 12.3359 10.238 12.2734C10.3473 12.207 10.4782 12.1289 10.6305 12.0391C10.7829 11.9492 10.9489 11.8516 11.1286 11.7461C11.3122 11.6406 11.4958 11.5352 11.6794 11.4297L13.0973 10.5918C13.1794 10.5449 13.2497 10.5215 13.3083 10.5215C13.3981 10.5215 13.443 10.5664 13.443 10.6562C13.443 10.7188 13.4157 10.7871 13.361 10.8613C13.3102 10.9316 13.2223 11.0039 13.0973 11.0781C12.6677 11.332 12.2555 11.5742 11.861 11.8047C11.4704 12.0352 11.1149 12.2402 10.7946 12.4199C10.4782 12.5996 10.2087 12.7461 9.98602 12.8594C9.76336 12.9688 9.60711 13.0312 9.51727 13.0469C9.4743 13.0547 9.42937 13.0605 9.3825 13.0645C9.33562 13.0684 9.28875 13.0703 9.24187 13.0703C9.10125 13.0703 8.98602 13.0508 8.89617 13.0117C8.81023 12.9766 8.74187 12.9277 8.69109 12.8652C8.64422 12.7988 8.61102 12.7246 8.59148 12.6426C8.57586 12.5605 8.56805 12.4727 8.56805 12.3789C8.56805 12.2891 8.58367 12.1953 8.61492 12.0977C8.65008 11.9961 8.67547 11.8848 8.69109 11.7637L8.85516 10.4805C8.26531 10.8945 7.72625 11.2617 7.23797 11.582C7.06609 11.7188 6.89617 11.8496 6.7282 11.9746C6.56023 12.0996 6.40594 12.2109 6.26531 12.3086C6.12859 12.4062 6.00945 12.4844 5.90789 12.543C5.80633 12.5977 5.73797 12.625 5.70281 12.625C5.62859 12.625 5.54852 12.6211 5.46258 12.6133C5.37664 12.6055 5.29656 12.5879 5.22234 12.5605C5.15203 12.5293 5.09148 12.4863 5.0407 12.4316C4.99383 12.373 4.97039 12.2969 4.97039 12.2031ZM6.74578 8.70508C7.23797 8.37305 7.74969 8.03125 8.28094 7.67969C8.81219 7.32422 9.3493 6.97266 9.89227 6.625C10.4391 6.27734 10.9821 5.9375 11.5212 5.60547C12.0641 5.26953 12.5915 4.95508 13.1032 4.66211C13.4001 4.43945 13.6286 4.23242 13.7887 4.04102C13.9489 3.84961 14.029 3.67773 14.029 3.52539C14.029 3.33008 13.8805 3.17578 13.5837 3.0625C13.2868 2.94531 12.8161 2.88672 12.1716 2.88672C11.8708 2.88672 11.57 2.94531 11.2692 3.0625C10.9684 3.17578 10.6716 3.33203 10.3786 3.53125C10.0895 3.73047 9.80828 3.96484 9.53484 4.23438C9.26141 4.5 9.00164 4.78516 8.75555 5.08984C8.50945 5.39453 8.27898 5.71094 8.06414 6.03906C7.8493 6.36328 7.65398 6.68359 7.4782 7C7.30633 7.31641 7.15789 7.62109 7.03289 7.91406C6.90789 8.20703 6.81219 8.4707 6.74578 8.70508ZM19.263 4.82617C19.0404 4.82617 18.8295 4.87305 18.6302 4.9668C18.431 5.06055 18.2416 5.18945 18.0619 5.35352C17.8861 5.51758 17.7201 5.71289 17.5638 5.93945C17.4076 6.16602 17.2611 6.41016 17.1244 6.67188C16.9877 6.93359 16.8607 7.20898 16.7435 7.49805C16.6302 7.78711 16.5267 8.07812 16.433 8.37109C16.9603 7.99219 17.4232 7.63281 17.8216 7.29297C18.2201 6.95312 18.5541 6.64258 18.8236 6.36133C19.0931 6.08008 19.2943 5.83203 19.4271 5.61719C19.5638 5.39844 19.6322 5.2207 19.6322 5.08398C19.6322 5.00586 19.6068 4.94336 19.556 4.89648C19.5091 4.84961 19.4115 4.82617 19.263 4.82617ZM19.8548 8.2832C19.9486 8.33008 19.9955 8.38672 19.9955 8.45312C19.9955 8.55469 19.9564 8.64844 19.8783 8.73438C19.8041 8.82031 19.7045 8.89844 19.5795 8.96875C19.4584 9.03516 19.3197 9.09375 19.1634 9.14453C19.0111 9.19531 18.8568 9.23828 18.7005 9.27344C18.5482 9.30859 18.4017 9.33594 18.2611 9.35547C18.1048 9.375 17.9877 9.38281 17.9095 9.37891C17.6048 9.37109 17.3041 9.36523 17.0072 9.36133L16.1459 9.34961C16.0287 9.78711 15.9369 10.1621 15.8705 10.4746C15.8041 10.7832 15.7533 11.0527 15.7181 11.2832C15.6869 11.5098 15.6673 11.707 15.6595 11.875C15.6517 12.043 15.6478 12.2051 15.6478 12.3613C15.6478 12.4473 15.6595 12.5156 15.683 12.5664C15.7064 12.6172 15.7455 12.6426 15.8002 12.6426C15.9916 12.6426 16.2025 12.5781 16.433 12.4492C16.6673 12.3203 16.9291 12.1562 17.2181 11.957L18.1908 11.2949C18.722 10.9316 19.1205 10.6973 19.3861 10.5918C19.4056 10.584 19.4447 10.5664 19.5033 10.5391C19.5345 10.5273 19.5638 10.5215 19.5912 10.5215C19.6771 10.5215 19.7201 10.5664 19.7201 10.6562C19.7201 10.7148 19.6947 10.7832 19.6439 10.8613C19.5892 10.9355 19.5033 11.0078 19.3861 11.0781C18.7884 11.4375 18.347 11.7188 18.0619 11.9219L17.0599 12.6484C16.763 12.8594 16.4916 13.0273 16.2455 13.1523C15.9955 13.2773 15.7435 13.3398 15.4896 13.3398C15.2709 13.3398 15.1009 13.2812 14.9798 13.1641C14.8627 13.0469 14.7748 12.9043 14.7162 12.7363C14.6615 12.5645 14.6283 12.3809 14.6166 12.1855C14.6048 11.9902 14.599 11.8164 14.599 11.6641C14.599 11.3672 14.6146 11.0723 14.6459 10.7793C14.681 10.4863 14.7259 10.2051 14.7806 9.93555L13.8607 10.5156L12.9173 11.0781C12.8978 11.0898 12.8763 11.0957 12.8529 11.0957C12.8099 11.0957 12.7689 11.0781 12.7298 11.043C12.6908 11.0039 12.6713 10.957 12.6713 10.9023C12.6713 10.8594 12.6888 10.8105 12.724 10.7559C12.7591 10.7012 12.8236 10.6465 12.9173 10.5918L13.9545 10C14.2826 9.80469 14.599 9.60742 14.9037 9.4082L14.9154 9.35547L14.1654 9.37305C14.1263 9.37305 14.0892 9.375 14.0541 9.37891C14.0189 9.38281 13.9857 9.38477 13.9545 9.38477C13.888 9.38477 13.8334 9.36523 13.7904 9.32617C13.7513 9.2832 13.7279 9.23633 13.7201 9.18555C13.7201 9.14258 13.7533 9.10156 13.8197 9.0625C13.8861 9.02344 13.9798 8.98828 14.1009 8.95703C14.222 8.92188 14.3666 8.89062 14.5345 8.86328C14.7025 8.83203 14.888 8.80469 15.0912 8.78125C15.3255 8.04688 15.5795 7.41016 15.8529 6.87109C16.1263 6.33203 16.433 5.88672 16.7728 5.53516C17.1166 5.18359 17.4994 4.92188 17.9213 4.75C18.3431 4.57812 18.8197 4.49219 19.3509 4.49219C19.597 4.49219 19.7748 4.53125 19.8841 4.60938C19.9974 4.68359 20.0541 4.78906 20.0541 4.92578C20.0541 5.11328 19.9701 5.33984 19.8021 5.60547C19.638 5.87109 19.4056 6.16602 19.1048 6.49023C18.808 6.81055 18.4505 7.15234 18.0326 7.51562C17.6185 7.875 17.1595 8.24414 16.6556 8.62305C16.9056 8.59961 17.1595 8.57812 17.4173 8.55859L18.1791 8.49414C18.4291 8.47461 18.6732 8.45312 18.9115 8.42969C19.1537 8.40625 19.3841 8.38086 19.6029 8.35352C19.6459 8.3418 19.6771 8.32617 19.6966 8.30664C19.7162 8.2832 19.7494 8.27148 19.7963 8.27148C19.8119 8.27148 19.8314 8.27539 19.8548 8.2832ZM32.2432 10.5918C32.294 10.5723 32.335 10.5625 32.3662 10.5625C32.4209 10.5625 32.4698 10.5762 32.5127 10.6035C32.5596 10.6309 32.583 10.6699 32.583 10.7207C32.583 10.7754 32.5245 10.8516 32.4073 10.9492C32.2901 11.043 32.1475 11.1445 31.9795 11.2539C31.8116 11.3633 31.6377 11.4727 31.458 11.582C31.2784 11.6875 31.1241 11.7793 30.9952 11.8574C30.8233 11.9707 30.6299 12.1074 30.4151 12.2676C30.2002 12.4238 29.9776 12.5762 29.7471 12.7246C29.5205 12.873 29.2959 12.998 29.0733 13.0996C28.8545 13.2051 28.6553 13.2578 28.4756 13.2578C28.3155 13.2578 28.1787 13.1992 28.0655 13.082C27.9561 12.9688 27.9014 12.7852 27.9014 12.5312C27.9014 12.3789 27.9248 12.2012 27.9717 11.998C28.0186 11.791 28.0967 11.5527 28.2061 11.2832C28.335 10.9629 28.4463 10.6816 28.5401 10.4395C28.6377 10.1973 28.7178 9.99023 28.7803 9.81836C28.8428 9.64648 28.8897 9.50586 28.9209 9.39648C28.9522 9.2832 28.9678 9.19531 28.9678 9.13281C28.9678 9 28.919 8.93359 28.8213 8.93359C28.7237 8.93359 28.587 8.99805 28.4112 9.12695C28.2354 9.25195 28.0381 9.41797 27.8194 9.625C27.6045 9.83203 27.378 10.0703 27.1397 10.3398C26.9053 10.6055 26.6807 10.8809 26.4659 11.166C26.251 11.4512 26.0577 11.7324 25.8858 12.0098C25.7139 12.2871 25.583 12.5391 25.4932 12.7656C25.4776 12.8047 25.4483 12.8438 25.4053 12.8828C25.3623 12.918 25.3116 12.9512 25.253 12.9824C25.1983 13.0098 25.1377 13.0312 25.0713 13.0469C25.0049 13.0664 24.9405 13.0762 24.878 13.0762C24.7725 13.0762 24.6807 13.0469 24.6026 12.9883C24.5245 12.9258 24.4854 12.8203 24.4854 12.6719C24.4854 12.5469 24.5088 12.4043 24.5557 12.2441C24.6065 12.0801 24.6553 11.9258 24.7022 11.7812C24.7686 11.5469 24.8389 11.3105 24.9131 11.0723C24.9912 10.8301 25.0635 10.6094 25.1299 10.4102C25.208 10.1797 25.2862 9.95508 25.3643 9.73633C25.3995 9.67773 25.4366 9.61523 25.4756 9.54883C25.5186 9.47852 25.5557 9.4082 25.587 9.33789C25.6182 9.26758 25.6436 9.19922 25.6631 9.13281C25.6866 9.0625 25.6983 9 25.6983 8.94531C25.6983 8.84766 25.6534 8.79883 25.5635 8.79883C25.3799 8.79883 25.169 8.86523 24.9307 8.99805C24.6963 9.12695 24.4522 9.29688 24.1983 9.50781C23.9483 9.71484 23.6983 9.95117 23.4483 10.2168C23.1983 10.4785 22.9678 10.7441 22.7569 11.0137C22.5459 11.2793 22.3643 11.5352 22.212 11.7812C22.0596 12.0234 21.9541 12.2305 21.8955 12.4023C21.8604 12.5078 21.8272 12.5996 21.7959 12.6777C21.7686 12.7559 21.7373 12.8203 21.7022 12.8711C21.667 12.9219 21.6241 12.9609 21.5733 12.9883C21.5225 13.0117 21.4561 13.0234 21.3741 13.0234C21.21 13.0234 21.0987 12.9785 21.0401 12.8887C20.9854 12.7949 20.958 12.6758 20.958 12.5312C20.958 12.4648 20.9776 12.3633 21.0166 12.2266C21.0557 12.0859 21.1065 11.9258 21.169 11.7461C21.2354 11.5664 21.3077 11.373 21.3858 11.166C21.4639 10.9551 21.542 10.7461 21.6202 10.5391C21.7022 10.3281 21.7803 10.125 21.8545 9.92969C21.9287 9.73438 21.9912 9.56055 22.042 9.4082L19.2061 11.0781C19.1553 11.1055 19.1065 11.1191 19.0596 11.1191C19.0127 11.1191 18.9737 11.1055 18.9424 11.0781C18.9073 11.0508 18.8897 11.0137 18.8897 10.9668C18.8897 10.916 18.9151 10.8574 18.9659 10.791C19.0127 10.7246 19.0928 10.6582 19.2061 10.5918L21.2979 9.36133C21.3487 9.32227 21.4073 9.2832 21.4737 9.24414C21.544 9.20508 21.6162 9.16992 21.6905 9.13867C21.7686 9.10742 21.8467 9.08203 21.9248 9.0625C22.003 9.04297 22.0811 9.0332 22.1592 9.0332C22.2452 9.0332 22.3213 9.05469 22.3877 9.09766C22.458 9.13672 22.5166 9.1875 22.5635 9.25C22.6104 9.30859 22.6455 9.375 22.669 9.44922C22.6963 9.52344 22.71 9.59375 22.71 9.66016C22.71 9.73047 22.7041 9.80078 22.6924 9.87109C22.6846 9.9375 22.6651 10.0215 22.6338 10.123C22.6065 10.2207 22.5674 10.3418 22.5166 10.4863C22.4659 10.6309 22.3995 10.8164 22.3174 11.043C22.4541 10.8594 22.5967 10.6699 22.7452 10.4746C22.8975 10.2754 23.0577 10.082 23.2256 9.89453C23.3936 9.70312 23.5713 9.52148 23.7588 9.34961C23.9502 9.17773 24.1514 9.02734 24.3623 8.89844C24.5733 8.76953 24.7959 8.66797 25.0303 8.59375C25.2686 8.51562 25.5186 8.47656 25.7803 8.47656C25.8584 8.47656 25.9346 8.49609 26.0088 8.53516C26.087 8.57031 26.1553 8.62695 26.2139 8.70508C26.2764 8.7832 26.3252 8.88281 26.3604 9.00391C26.3995 9.125 26.419 9.26758 26.419 9.43164C26.419 9.62305 26.3897 9.84375 26.3311 10.0938C26.2764 10.3398 26.1807 10.6211 26.044 10.9375C26.3213 10.5312 26.6006 10.1914 26.8819 9.91797C27.167 9.64062 27.4424 9.41211 27.708 9.23242C27.9776 9.05273 28.2334 8.91602 28.4756 8.82227C28.7178 8.72461 28.9366 8.65234 29.1319 8.60547C29.2412 8.60547 29.3565 8.62109 29.4776 8.65234C29.5987 8.68359 29.708 8.73047 29.8057 8.79297C29.9034 8.85156 29.9834 8.92773 30.0459 9.02148C30.1123 9.11523 30.1455 9.22461 30.1455 9.34961C30.1455 9.38477 30.1436 9.41992 30.1397 9.45508C30.1358 9.49023 30.128 9.52734 30.1162 9.56641C30.0694 9.73047 30.0049 9.9082 29.9229 10.0996C29.8409 10.2871 29.753 10.4785 29.6592 10.6738C29.5655 10.8691 29.4678 11.0625 29.3662 11.2539C29.2686 11.4414 29.1807 11.6191 29.1026 11.7871C29.0245 11.9512 28.96 12.0996 28.9092 12.2324C28.8584 12.3613 28.833 12.4629 28.833 12.5371C28.833 12.6309 28.8682 12.6777 28.9385 12.6777C28.9971 12.6777 29.087 12.6406 29.208 12.5664C29.333 12.4922 29.4756 12.4004 29.6358 12.291C29.7959 12.1777 29.9698 12.0547 30.1573 11.9219C30.3448 11.7891 30.5323 11.6641 30.7198 11.5469L32.2432 10.5918ZM38.7312 10.5918C38.7585 10.5762 38.7878 10.5684 38.8191 10.5684C38.8659 10.5684 38.9089 10.584 38.948 10.6152C38.987 10.6465 39.0066 10.6895 39.0066 10.7441C39.0066 10.791 38.9851 10.8438 38.9421 10.9023C38.903 10.9609 38.8327 11.0195 38.7312 11.0781C38.532 11.1914 38.3132 11.3184 38.0749 11.459C37.8405 11.5957 37.5984 11.7363 37.3484 11.8809C37.1023 12.0254 36.8562 12.168 36.6101 12.3086C36.364 12.4492 36.1296 12.5781 35.907 12.6953C35.6882 12.8125 35.489 12.9141 35.3093 13C35.1296 13.082 34.9831 13.1387 34.8698 13.1699C34.8073 13.1895 34.7487 13.2012 34.6941 13.2051C34.6433 13.2129 34.5964 13.2168 34.5534 13.2168C34.3894 13.2168 34.2546 13.1758 34.1491 13.0938C34.0437 13.0117 33.9597 12.9023 33.8972 12.7656C33.8386 12.625 33.7976 12.4629 33.7741 12.2793C33.7507 12.0918 33.739 11.8945 33.739 11.6875C33.739 11.4062 33.7527 11.1211 33.78 10.832C33.8073 10.5391 33.8327 10.2695 33.8562 10.0234L32.5847 10.7734L32.0691 11.0781C32.0417 11.0938 32.0105 11.1016 31.9753 11.1016C31.9284 11.1016 31.8874 11.0859 31.8523 11.0547C31.8171 11.0234 31.7995 10.9805 31.7995 10.9258C31.7995 10.8789 31.8191 10.8281 31.8581 10.7734C31.8972 10.7148 31.9675 10.6543 32.0691 10.5918L33.8913 9.51953C34.0788 8.87109 34.2722 8.27539 34.4714 7.73242C34.6706 7.18945 34.8874 6.69922 35.1218 6.26172C35.3562 5.82422 35.612 5.43945 35.8894 5.10742C36.1667 4.77539 36.4773 4.5 36.821 4.28125C37.1648 4.05859 37.5456 3.89258 37.9636 3.7832C38.3855 3.66992 38.8542 3.61328 39.3698 3.61328C39.6277 3.61328 39.8445 3.63672 40.0202 3.68359C40.196 3.72656 40.3386 3.79102 40.448 3.87695C40.5612 3.95898 40.6413 4.05859 40.6882 4.17578C40.739 4.29297 40.7644 4.42188 40.7644 4.5625C40.7644 4.73828 40.7058 4.92773 40.5886 5.13086C40.4714 5.33008 40.3132 5.53711 40.114 5.75195C39.9148 5.9668 39.6843 6.18555 39.4226 6.4082C39.1609 6.62695 38.8855 6.84375 38.5964 7.05859C38.3073 7.27344 38.0124 7.48047 37.7116 7.67969C37.4148 7.87891 37.1296 8.06445 36.8562 8.23633C36.5866 8.4082 36.3366 8.5625 36.1062 8.69922C35.8796 8.83594 35.6941 8.94727 35.5495 9.0332C35.4792 9.2793 35.4089 9.53711 35.3386 9.80664C35.2683 10.0762 35.2038 10.3477 35.1452 10.6211C35.0905 10.8945 35.0456 11.166 35.0105 11.4355C34.9753 11.7012 34.9577 11.9512 34.9577 12.1855C34.9577 12.2793 34.9655 12.3594 34.9812 12.4258C35.0007 12.4922 35.032 12.5254 35.0749 12.5254C35.1491 12.5254 35.2585 12.498 35.403 12.4434C35.5515 12.3848 35.7214 12.3066 35.9128 12.209C36.1042 12.1113 36.3132 12 36.5398 11.875C36.7702 11.7461 37.0085 11.6094 37.2546 11.4648C37.5007 11.3203 37.7487 11.1738 37.9987 11.0254C38.2487 10.877 38.4929 10.7324 38.7312 10.5918ZM35.6316 8.49414C35.8659 8.36914 36.1433 8.20508 36.4636 8.00195C36.7878 7.79883 37.1218 7.57617 37.4655 7.33398C37.8132 7.08789 38.155 6.83008 38.4909 6.56055C38.8269 6.29102 39.1277 6.02734 39.3933 5.76953C39.6628 5.51172 39.8796 5.26758 40.0437 5.03711C40.2077 4.80273 40.2898 4.59961 40.2898 4.42773C40.2898 4.2832 40.2136 4.16797 40.0612 4.08203C39.9128 3.99219 39.6687 3.94727 39.3288 3.94727C38.7937 3.94727 38.3308 4.04297 37.9402 4.23438C37.5495 4.42578 37.2097 4.71094 36.9206 5.08984C36.6355 5.46875 36.3894 5.94336 36.1823 6.51367C35.9792 7.08008 35.7956 7.74023 35.6316 8.49414ZM41.9965 10.75C41.6293 11.0273 41.309 11.2695 41.0355 11.4766C40.7621 11.6797 40.5219 11.8496 40.3148 11.9863C40.1117 12.123 39.934 12.2246 39.7816 12.291C39.6332 12.3574 39.5004 12.3906 39.3832 12.3906C39.3598 12.3906 39.3266 12.3867 39.2836 12.3789C39.2445 12.3711 39.2035 12.3594 39.1605 12.3438C39.1215 12.3242 39.0863 12.3027 39.0551 12.2793C39.0277 12.2559 39.0141 12.2285 39.0141 12.1973C39.0141 12.1387 39.0766 12.0547 39.2016 11.9453C39.3305 11.832 39.4945 11.7012 39.6937 11.5527C39.8969 11.4043 40.1234 11.2422 40.3734 11.0664C40.6273 10.8906 40.8793 10.709 41.1293 10.5215L41.3461 10.3574C41.2289 10.2012 41.102 10.0391 40.9652 9.87109C40.8285 9.69922 40.6996 9.53906 40.5785 9.39062C40.4613 9.23828 40.3578 9.10742 40.268 8.99805C40.1781 8.88867 40.1215 8.81445 40.098 8.77539C39.9379 8.55664 39.8578 8.39258 39.8578 8.2832C39.8578 8.22852 39.8715 8.18359 39.8988 8.14844C39.9301 8.10938 39.9633 8.08008 39.9984 8.06055C40.0336 8.03711 40.0687 8.02148 40.1039 8.01367C40.1391 8.00195 40.1625 7.99609 40.1742 7.99609C40.2367 7.99609 40.3129 8.0293 40.4027 8.0957C40.4965 8.16211 40.598 8.25195 40.7074 8.36523C40.8168 8.47461 40.932 8.60156 41.0531 8.74609C41.1742 8.89062 41.2973 9.04297 41.4223 9.20312C41.5473 9.35938 41.6703 9.51758 41.7914 9.67773C41.9164 9.83398 42.0336 9.98047 42.143 10.1172C42.1742 10.1602 42.1957 10.2031 42.2074 10.2461C42.223 10.2852 42.2328 10.3223 42.2367 10.3574C42.2367 10.4551 42.2055 10.5391 42.143 10.6094C42.0844 10.6758 42.0355 10.7227 41.9965 10.75Z" fill="black"/>
<path d="M88.5176 29.9316C89.1387 29.5762 89.6953 29.2305 90.1875 28.8945C90.6836 28.5547 91.1035 28.2285 91.4473 27.916C91.7949 27.5996 92.0605 27.2949 92.2441 27.002C92.4277 26.709 92.5195 26.4277 92.5195 26.1582C92.5195 26.0918 92.5117 26.0195 92.4961 25.9414C92.4805 25.8594 92.4395 25.7852 92.373 25.7188C92.3066 25.6484 92.2051 25.5898 92.0684 25.543C91.9355 25.4961 91.752 25.4727 91.5176 25.4727C91.248 25.4727 90.998 25.543 90.7676 25.6836C90.541 25.8203 90.3301 26.0059 90.1348 26.2402C89.9395 26.4707 89.7598 26.7383 89.5957 27.043C89.4355 27.3477 89.2891 27.666 89.1562 27.998C89.0234 28.3262 88.9043 28.6582 88.7988 28.9941C88.6934 29.3262 88.5996 29.6387 88.5176 29.9316ZM90.7324 32.5918C90.7832 32.5723 90.8184 32.5625 90.8379 32.5625C90.8848 32.5625 90.9219 32.5781 90.9492 32.6094C90.9805 32.6406 90.9961 32.6816 90.9961 32.7324C90.9961 32.7871 90.9766 32.8457 90.9375 32.9082C90.8984 32.9668 90.8301 33.0234 90.7324 33.0781L89.2266 34.0332C89.0156 34.166 88.7969 34.3047 88.5703 34.4492C88.3477 34.5938 88.125 34.7383 87.9023 34.8828C87.6836 35.0273 87.4727 35.166 87.2695 35.2988C87.0703 35.4355 86.8887 35.5605 86.7246 35.6738C86.5371 36.498 86.3027 37.2031 86.0215 37.7891C85.7441 38.375 85.4512 38.8555 85.1426 39.2305C84.8379 39.6055 84.5352 39.8789 84.2344 40.0508C83.9375 40.2266 83.6777 40.3145 83.4551 40.3145C83.2559 40.3145 83.0977 40.252 82.9805 40.127C82.8594 40.002 82.7988 39.8223 82.7988 39.5879C82.7988 39.4004 82.8711 39.1543 83.0156 38.8496C83.1602 38.5488 83.3613 38.2188 83.6191 37.8594C83.877 37.5 84.1797 37.125 84.5273 36.7344C84.8789 36.3477 85.2598 35.9727 85.6699 35.6094C85.7168 35.3633 85.7832 35.0801 85.8691 34.7598C85.9551 34.4395 86.0527 34.0957 86.1621 33.7285C86.2715 33.3613 86.3887 32.9785 86.5137 32.5801C86.6387 32.1816 86.7637 31.7812 86.8887 31.3789L84 33.0781C83.9492 33.0977 83.9141 33.1074 83.8945 33.1074C83.8438 33.1074 83.8008 33.0918 83.7656 33.0605C83.7305 33.0293 83.7129 32.9883 83.7129 32.9375C83.7129 32.8906 83.7344 32.8379 83.7773 32.7793C83.8203 32.7207 83.8945 32.6582 84 32.5918C84.2852 32.4238 84.5723 32.2559 84.8613 32.0879C85.1504 31.916 85.4277 31.752 85.6934 31.5957C85.9629 31.4355 86.2129 31.2891 86.4434 31.1562C86.6738 31.0195 86.8711 30.9023 87.0352 30.8047C87.0352 30.8047 87.043 30.7656 87.0586 30.6875C87.0703 30.6133 87.0879 30.5137 87.1113 30.3887C87.1387 30.2598 87.1719 30.1133 87.2109 29.9492C87.25 29.7852 87.291 29.6172 87.334 29.4453C87.3809 29.2734 87.4297 29.1035 87.4805 28.9355C87.5352 28.7637 87.5918 28.6094 87.6504 28.4727C87.752 28.2305 87.877 27.9805 88.0254 27.7227C88.1777 27.4609 88.3477 27.209 88.5352 26.9668C88.7227 26.7207 88.9277 26.4902 89.1504 26.2754C89.373 26.0566 89.6094 25.8672 89.8594 25.707C90.1094 25.543 90.3691 25.4141 90.6387 25.3203C90.9121 25.2227 91.1914 25.1738 91.4766 25.1738C91.7617 25.1738 92.0059 25.2031 92.209 25.2617C92.4121 25.3164 92.5781 25.3906 92.707 25.4844C92.8359 25.5781 92.9297 25.6836 92.9883 25.8008C93.0508 25.9141 93.082 26.0293 93.082 26.1465C93.082 26.459 93.0137 26.7559 92.877 27.0371C92.7441 27.3145 92.5625 27.5801 92.332 27.834C92.1055 28.0879 91.8379 28.3301 91.5293 28.5605C91.2246 28.791 90.9004 29.0137 90.5566 29.2285C90.2168 29.4434 89.8672 29.6523 89.5078 29.8555C89.1484 30.0547 88.7988 30.252 88.459 30.4473C88.3105 30.9043 88.1699 31.334 88.0371 31.7363C87.9082 32.1348 87.7832 32.5137 87.6621 32.873C87.5449 33.2285 87.4297 33.5684 87.3164 33.8926C87.207 34.2168 87.0977 34.5312 86.9883 34.8359C87.1406 34.7422 87.3105 34.6387 87.498 34.5254C87.6855 34.4121 87.8809 34.2949 88.084 34.1738C88.2871 34.0488 88.4941 33.9238 88.7051 33.7988C88.916 33.6699 89.1191 33.5469 89.3145 33.4297L90.7324 32.5918ZM83.4023 39.3359C83.4141 39.5078 83.4727 39.5938 83.5781 39.5938C83.6758 39.5938 83.8027 39.5234 83.959 39.3828C84.1152 39.2422 84.2812 39.041 84.457 38.7793C84.6367 38.5176 84.8145 38.2031 84.9902 37.8359C85.166 37.4727 85.3223 37.0645 85.459 36.6113C85.3066 36.7559 85.1484 36.9121 84.9844 37.0801C84.8242 37.252 84.668 37.4258 84.5156 37.6016C84.3633 37.7773 84.2188 37.9512 84.082 38.123C83.9492 38.2949 83.832 38.457 83.7305 38.6094C83.6289 38.7656 83.5488 38.9062 83.4902 39.0312C83.4316 39.1562 83.4023 39.2578 83.4023 39.3359ZM93.7985 34.8535C93.9509 34.834 94.1403 34.7734 94.3669 34.6719C94.5934 34.5664 94.8415 34.4316 95.111 34.2676C95.3805 34.0996 95.6618 33.9062 95.9548 33.6875C96.2516 33.4688 96.5466 33.2344 96.8395 32.9844C97.1325 32.7344 97.4157 32.4727 97.6891 32.1992C97.9665 31.9258 98.2184 31.6523 98.445 31.3789C98.4606 31.3555 98.4704 31.3145 98.4743 31.2559C98.4821 31.1934 98.4977 31.1309 98.5212 31.0684C98.5485 31.002 98.5895 30.9453 98.6442 30.8984C98.7028 30.8477 98.7907 30.8223 98.9079 30.8223C99.0055 30.8223 99.0837 30.834 99.1423 30.8574C99.2009 30.8809 99.2438 30.9141 99.2712 30.957C99.3024 30.9961 99.322 31.0449 99.3298 31.1035C99.3376 31.1582 99.3415 31.2207 99.3415 31.291C99.3415 31.3613 99.3239 31.459 99.2888 31.584C99.2575 31.7051 99.2145 31.8457 99.1598 32.0059C99.1052 32.1621 99.0427 32.332 98.9723 32.5156C98.902 32.6992 98.8298 32.8848 98.7555 33.0723C98.6852 33.2559 98.6149 33.4395 98.5446 33.623C98.4782 33.8027 98.4196 33.9688 98.3688 34.1211C98.4196 34.0938 98.4938 34.0508 98.5915 33.9922C98.6891 33.9336 98.8005 33.8652 98.9255 33.7871C99.0544 33.709 99.1891 33.625 99.3298 33.5352C99.4743 33.4453 99.6169 33.3555 99.7575 33.2656L100.83 32.5918C100.857 32.5762 100.886 32.5684 100.918 32.5684C100.961 32.5684 101 32.5859 101.035 32.6211C101.07 32.6523 101.088 32.6934 101.088 32.7441C101.088 32.7988 101.066 32.8555 101.023 32.9141C100.984 32.9688 100.92 33.0234 100.83 33.0781L98.0641 34.7012C98.0329 34.7207 98.0016 34.752 97.9704 34.7949C97.943 34.834 97.9098 34.873 97.8708 34.9121C97.8356 34.9512 97.7907 34.9844 97.736 35.0117C97.6852 35.043 97.6188 35.0586 97.5368 35.0586C97.4587 35.0586 97.3942 35.0391 97.3434 35C97.2927 34.957 97.2673 34.9004 97.2673 34.8301C97.2673 34.7402 97.2888 34.623 97.3317 34.4785C97.3786 34.334 97.4352 34.1758 97.5016 34.0039C97.572 33.8281 97.6501 33.6465 97.736 33.459C97.8259 33.2676 97.9118 33.082 97.9938 32.9023C98.0798 32.7188 98.1579 32.5469 98.2282 32.3867C98.3024 32.2227 98.361 32.082 98.404 31.9648C98.236 32.1758 98.0388 32.4043 97.8122 32.6504C97.5856 32.8965 97.3356 33.1426 97.0622 33.3887C96.7927 33.6309 96.5055 33.8672 96.2009 34.0977C95.8962 34.3242 95.5817 34.5254 95.2575 34.7012C94.9333 34.873 94.6052 35.0117 94.2731 35.1172C93.9411 35.2227 93.611 35.2754 93.2829 35.2754C93.0954 35.2754 92.9665 35.2246 92.8962 35.123C92.8259 35.0254 92.7907 34.8926 92.7907 34.7246C92.7907 34.5723 92.8161 34.3926 92.8669 34.1855C92.9177 33.9785 92.9841 33.7578 93.0661 33.5234C93.1481 33.2891 93.2399 33.0488 93.3415 32.8027C93.447 32.5566 93.5485 32.3203 93.6462 32.0938C93.7477 31.8672 93.8415 31.6562 93.9274 31.4609C94.0173 31.2656 94.0895 31.1016 94.1442 30.9688C93.9606 31.0664 93.7419 31.1875 93.488 31.332C93.238 31.4766 92.9606 31.6406 92.6559 31.8242C92.3513 32.0039 92.0212 32.2012 91.6657 32.416C91.3141 32.627 90.945 32.8477 90.5583 33.0781C90.5153 33.1016 90.4763 33.1133 90.4411 33.1133C90.3942 33.1133 90.3532 33.0977 90.318 33.0664C90.2829 33.0352 90.2653 32.9941 90.2653 32.9434C90.2653 32.8965 90.2888 32.8438 90.3356 32.7852C90.3786 32.7227 90.4528 32.6582 90.5583 32.5918C91.0544 32.291 91.5251 32.0156 91.9704 31.7656C92.4157 31.5156 92.818 31.3027 93.1774 31.127C93.5407 30.9473 93.8493 30.8086 94.1032 30.7109C94.361 30.6094 94.5466 30.5586 94.6598 30.5586C94.8942 30.5586 95.0583 30.6055 95.152 30.6992C95.2497 30.793 95.2985 30.9219 95.2985 31.0859C95.2985 31.2539 95.2555 31.4492 95.1696 31.6719C95.0876 31.8906 94.9841 32.1191 94.8591 32.3574C94.7341 32.5957 94.5993 32.8359 94.4548 33.0781C94.3102 33.3203 94.1755 33.5488 94.0505 33.7637C93.9255 33.9785 93.82 34.1699 93.7341 34.3379C93.652 34.5059 93.611 34.6348 93.611 34.7246C93.611 34.8145 93.6559 34.8594 93.7458 34.8594C93.777 34.8594 93.7946 34.8574 93.7985 34.8535ZM107.74 31.2031C107.591 31.2031 107.406 31.2461 107.183 31.332C106.96 31.4141 106.716 31.5293 106.451 31.6777C106.185 31.8223 105.908 31.9941 105.619 32.1934C105.333 32.3926 105.052 32.6094 104.775 32.8438C104.501 33.0781 104.24 33.3262 103.99 33.5879C103.744 33.8457 103.529 34.1055 103.345 34.3672C103.326 34.3867 103.316 34.4316 103.316 34.502C103.316 34.5684 103.304 34.6387 103.281 34.7129C103.261 34.7871 103.22 34.8535 103.158 34.9121C103.095 34.9707 102.992 35 102.847 35C102.745 35 102.665 34.9883 102.607 34.9648C102.552 34.9414 102.509 34.9102 102.478 34.8711C102.451 34.8281 102.433 34.7793 102.425 34.7246C102.417 34.666 102.413 34.6016 102.413 34.5312C102.413 34.4609 102.433 34.3574 102.472 34.2207C102.511 34.084 102.562 33.9258 102.624 33.7461C102.687 33.5664 102.757 33.373 102.835 33.166C102.913 32.959 102.992 32.752 103.07 32.5449C103.152 32.3379 103.228 32.1367 103.298 31.9414C103.372 31.7461 103.435 31.5703 103.486 31.4141L100.656 33.0781C100.636 33.082 100.62 33.0859 100.609 33.0898C100.593 33.0898 100.581 33.0898 100.574 33.0898C100.519 33.0898 100.48 33.0762 100.456 33.0488C100.429 33.0176 100.415 32.9805 100.415 32.9375C100.415 32.8828 100.437 32.8242 100.48 32.7617C100.519 32.6953 100.577 32.6387 100.656 32.5918C101.242 32.2441 101.724 31.959 102.103 31.7363C102.486 31.5098 102.792 31.3281 103.023 31.1914C103.253 31.0547 103.425 30.9531 103.538 30.8867C103.656 30.8203 103.744 30.7715 103.802 30.7402C103.857 30.709 103.906 30.6875 103.949 30.6758C103.995 30.6641 104.046 30.6582 104.101 30.6582C104.214 30.6582 104.306 30.6914 104.376 30.7578C104.451 30.8242 104.488 30.8984 104.488 30.9805C104.488 31.0625 104.462 31.1758 104.411 31.3203C104.361 31.4609 104.298 31.6152 104.224 31.7832C104.15 31.9512 104.074 32.123 103.995 32.2988C103.917 32.4707 103.851 32.6309 103.796 32.7793C103.773 32.8379 103.753 32.8867 103.738 32.9258C103.726 32.9609 103.71 33.002 103.691 33.0488C103.675 33.0957 103.652 33.1562 103.62 33.2305C103.589 33.3008 103.544 33.4004 103.486 33.5293C103.65 33.3184 103.841 33.0977 104.06 32.8672C104.283 32.6367 104.523 32.4121 104.781 32.1934C105.042 31.9707 105.32 31.7598 105.613 31.5605C105.91 31.3613 106.214 31.1875 106.527 31.0391C106.843 30.8867 107.165 30.7676 107.494 30.6816C107.822 30.5918 108.148 30.5469 108.472 30.5469C108.671 30.5469 108.808 30.5898 108.882 30.6758C108.96 30.7578 108.999 30.8711 108.999 31.0156C108.999 31.1328 108.978 31.2754 108.935 31.4434C108.892 31.6113 108.833 31.7949 108.759 31.9941C108.685 32.1895 108.601 32.4004 108.507 32.627C108.413 32.8496 108.314 33.0762 108.208 33.3066C108.107 33.5332 108.003 33.7617 107.898 33.9922C107.796 34.2227 107.701 34.4434 107.611 34.6543C107.833 34.5645 108.066 34.4473 108.308 34.3027C108.55 34.1582 108.808 33.9961 109.081 33.8164C109.359 33.6367 109.65 33.4434 109.954 33.2363C110.263 33.0254 110.593 32.8105 110.945 32.5918C110.972 32.5762 111.009 32.5684 111.056 32.5684C111.15 32.5684 111.197 32.6211 111.197 32.7266C111.197 32.7812 111.175 32.8418 111.132 32.9082C111.089 32.9707 111.027 33.0273 110.945 33.0781C110.48 33.3672 110.06 33.6426 109.685 33.9043C109.31 34.166 108.966 34.3984 108.654 34.6016C108.345 34.8047 108.062 34.9648 107.804 35.082C107.55 35.2031 107.314 35.2637 107.095 35.2637C106.962 35.2637 106.849 35.2461 106.755 35.2109C106.661 35.1797 106.583 35.1367 106.521 35.082C106.462 35.0273 106.417 34.9629 106.386 34.8887C106.359 34.8105 106.345 34.7305 106.345 34.6484C106.345 34.5586 106.363 34.4707 106.398 34.3848C106.437 34.2949 106.49 34.1992 106.556 34.0977C106.677 33.832 106.812 33.5547 106.96 33.2656C107.109 32.9727 107.245 32.6953 107.37 32.4336C107.495 32.1719 107.601 31.9395 107.687 31.7363C107.773 31.5332 107.816 31.3867 107.816 31.2969C107.816 31.2344 107.79 31.2031 107.74 31.2031ZM110.765 33.0781C110.737 33.0938 110.712 33.1016 110.689 33.1016C110.649 33.1016 110.618 33.084 110.595 33.0488C110.571 33.0137 110.56 32.9707 110.56 32.9199C110.56 32.8652 110.575 32.8086 110.606 32.75C110.638 32.6875 110.69 32.6348 110.765 32.5918C111.319 32.2637 111.792 31.9746 112.183 31.7246C112.577 31.4746 112.927 31.2656 113.231 31.0977C113.536 30.9258 113.814 30.7969 114.064 30.7109C114.317 30.6211 114.581 30.5762 114.855 30.5762C115.245 30.5762 115.536 30.6309 115.728 30.7402C115.923 30.8457 116.021 30.9922 116.021 31.1797C116.021 31.3008 115.999 31.4082 115.956 31.502C115.917 31.5957 115.862 31.6758 115.792 31.7422C115.726 31.8047 115.647 31.8535 115.558 31.8887C115.472 31.9199 115.384 31.9355 115.294 31.9355C115.224 31.9355 115.149 31.9062 115.071 31.8477C114.997 31.7852 114.96 31.6895 114.96 31.5605C114.96 31.3262 114.933 31.1602 114.878 31.0625C114.827 30.9648 114.757 30.916 114.667 30.916C114.581 30.916 114.483 30.957 114.374 31.0391C114.269 31.1211 114.159 31.2324 114.046 31.373C113.933 31.5137 113.821 31.6758 113.712 31.8594C113.603 32.043 113.505 32.2363 113.419 32.4395C113.337 32.6426 113.269 32.8477 113.214 33.0547C113.163 33.2617 113.138 33.459 113.138 33.6465C113.138 33.998 113.216 34.2539 113.372 34.4141C113.528 34.5742 113.73 34.6543 113.976 34.6543C114.257 34.6543 114.556 34.584 114.872 34.4434C115.189 34.3027 115.528 34.1289 115.892 33.9219C116.255 33.7148 116.642 33.4922 117.052 33.2539C117.466 33.0117 117.911 32.791 118.388 32.5918C118.435 32.5684 118.474 32.5566 118.505 32.5566C118.587 32.5566 118.628 32.6055 118.628 32.7031C118.628 32.7578 118.608 32.8242 118.569 32.9023C118.534 32.9766 118.474 33.0352 118.388 33.0781C118.161 33.1797 117.929 33.3047 117.69 33.4531C117.452 33.5977 117.206 33.752 116.952 33.916C116.702 34.0762 116.444 34.2363 116.179 34.3965C115.913 34.5527 115.642 34.6953 115.364 34.8242C115.091 34.9492 114.812 35.0508 114.526 35.1289C114.241 35.2109 113.952 35.252 113.659 35.252C113.362 35.252 113.11 35.2109 112.903 35.1289C112.696 35.0469 112.528 34.9375 112.399 34.8008C112.271 34.6602 112.177 34.498 112.118 34.3145C112.06 34.1309 112.03 33.9355 112.03 33.7285C112.03 33.5488 112.054 33.3652 112.101 33.1777C112.151 32.9863 112.22 32.8047 112.306 32.6328C112.392 32.457 112.493 32.2949 112.61 32.1465C112.731 31.998 112.86 31.8711 112.997 31.7656L110.765 33.0781ZM124.559 26.8262C124.337 26.8262 124.126 26.873 123.926 26.9668C123.727 27.0605 123.538 27.1895 123.358 27.3535C123.182 27.5176 123.016 27.7129 122.86 27.9395C122.704 28.166 122.557 28.4102 122.421 28.6719C122.284 28.9336 122.157 29.209 122.04 29.498C121.926 29.7871 121.823 30.0781 121.729 30.3711C122.257 29.9922 122.719 29.6328 123.118 29.293C123.516 28.9531 123.85 28.6426 124.12 28.3613C124.389 28.0801 124.591 27.832 124.723 27.6172C124.86 27.3984 124.928 27.2207 124.928 27.084C124.928 27.0059 124.903 26.9434 124.852 26.8965C124.805 26.8496 124.708 26.8262 124.559 26.8262ZM125.151 30.2832C125.245 30.3301 125.292 30.3867 125.292 30.4531C125.292 30.5547 125.253 30.6484 125.175 30.7344C125.1 30.8203 125.001 30.8984 124.876 30.9688C124.755 31.0352 124.616 31.0938 124.46 31.1445C124.307 31.1953 124.153 31.2383 123.997 31.2734C123.844 31.3086 123.698 31.3359 123.557 31.3555C123.401 31.375 123.284 31.3828 123.206 31.3789C122.901 31.3711 122.6 31.3652 122.303 31.3613L121.442 31.3496C121.325 31.7871 121.233 32.1621 121.167 32.4746C121.1 32.7832 121.05 33.0527 121.014 33.2832C120.983 33.5098 120.964 33.707 120.956 33.875C120.948 34.043 120.944 34.2051 120.944 34.3613C120.944 34.4473 120.956 34.5156 120.979 34.5664C121.003 34.6172 121.042 34.6426 121.096 34.6426C121.288 34.6426 121.499 34.5781 121.729 34.4492C121.964 34.3203 122.225 34.1562 122.514 33.957L123.487 33.2949C124.018 32.9316 124.417 32.6973 124.682 32.5918C124.702 32.584 124.741 32.5664 124.8 32.5391C124.831 32.5273 124.86 32.5215 124.887 32.5215C124.973 32.5215 125.016 32.5664 125.016 32.6562C125.016 32.7148 124.991 32.7832 124.94 32.8613C124.885 32.9355 124.8 33.0078 124.682 33.0781C124.085 33.4375 123.643 33.7188 123.358 33.9219L122.356 34.6484C122.059 34.8594 121.788 35.0273 121.542 35.1523C121.292 35.2773 121.04 35.3398 120.786 35.3398C120.567 35.3398 120.397 35.2812 120.276 35.1641C120.159 35.0469 120.071 34.9043 120.012 34.7363C119.958 34.5645 119.925 34.3809 119.913 34.1855C119.901 33.9902 119.895 33.8164 119.895 33.6641C119.895 33.3672 119.911 33.0723 119.942 32.7793C119.977 32.4863 120.022 32.2051 120.077 31.9355L119.157 32.5156L118.214 33.0781C118.194 33.0898 118.173 33.0957 118.149 33.0957C118.106 33.0957 118.065 33.0781 118.026 33.043C117.987 33.0039 117.967 32.957 117.967 32.9023C117.967 32.8594 117.985 32.8105 118.02 32.7559C118.055 32.7012 118.12 32.6465 118.214 32.5918L119.251 32C119.579 31.8047 119.895 31.6074 120.2 31.4082L120.212 31.3555L119.462 31.373C119.423 31.373 119.385 31.375 119.35 31.3789C119.315 31.3828 119.282 31.3848 119.251 31.3848C119.184 31.3848 119.13 31.3652 119.087 31.3262C119.048 31.2832 119.024 31.2363 119.016 31.1855C119.016 31.1426 119.05 31.1016 119.116 31.0625C119.182 31.0234 119.276 30.9883 119.397 30.957C119.518 30.9219 119.663 30.8906 119.831 30.8633C119.999 30.832 120.184 30.8047 120.387 30.7812C120.622 30.0469 120.876 29.4102 121.149 28.8711C121.423 28.332 121.729 27.8867 122.069 27.5352C122.413 27.1836 122.796 26.9219 123.217 26.75C123.639 26.5781 124.116 26.4922 124.647 26.4922C124.893 26.4922 125.071 26.5312 125.18 26.6094C125.294 26.6836 125.35 26.7891 125.35 26.9258C125.35 27.1133 125.266 27.3398 125.098 27.6055C124.934 27.8711 124.702 28.166 124.401 28.4902C124.104 28.8105 123.747 29.1523 123.329 29.5156C122.915 29.875 122.456 30.2441 121.952 30.623C122.202 30.5996 122.456 30.5781 122.714 30.5586L123.475 30.4941C123.725 30.4746 123.969 30.4531 124.208 30.4297C124.45 30.4062 124.68 30.3809 124.899 30.3535C124.942 30.3418 124.973 30.3262 124.993 30.3066C125.012 30.2832 125.046 30.2715 125.092 30.2715C125.108 30.2715 125.128 30.2754 125.151 30.2832ZM131.088 33.0781C130.483 33.4258 129.969 33.7285 129.547 33.9863C129.125 34.2402 128.766 34.4512 128.469 34.6191C128.172 34.7832 127.92 34.9062 127.713 34.9883C127.51 35.0664 127.325 35.1055 127.157 35.1055C126.993 35.1055 126.852 35.0859 126.735 35.0469C126.621 35.0078 126.528 34.9551 126.454 34.8887C126.379 34.8223 126.325 34.7422 126.289 34.6484C126.258 34.5547 126.243 34.4531 126.243 34.3438C126.243 34.2617 126.26 34.1777 126.295 34.0918C126.33 34.0059 126.373 33.918 126.424 33.8281C126.479 33.7383 126.536 33.6445 126.594 33.5469C126.653 33.4453 126.707 33.3379 126.758 33.2246L127.649 31.2324L124.502 33.0781C124.452 33.0977 124.416 33.1074 124.397 33.1074C124.35 33.1074 124.309 33.0918 124.274 33.0605C124.235 33.0293 124.215 32.9883 124.215 32.9375C124.215 32.8906 124.237 32.8379 124.28 32.7793C124.319 32.7207 124.393 32.6582 124.502 32.5918L126.02 31.707C126.219 31.5898 126.42 31.4727 126.623 31.3555C126.827 31.2383 127.016 31.1289 127.192 31.0273C127.371 30.9258 127.532 30.8359 127.672 30.7578C127.817 30.6758 127.928 30.6133 128.006 30.5703H128.762C128.778 30.582 128.791 30.6016 128.803 30.6289C128.815 30.6562 128.821 30.6973 128.821 30.752C128.821 30.8535 128.791 30.998 128.733 31.1855C128.674 31.3691 128.6 31.5762 128.51 31.8066C128.424 32.0371 128.327 32.2793 128.217 32.5332C128.112 32.7832 128.012 33.0215 127.918 33.248C127.825 33.4707 127.727 33.6934 127.625 33.916C127.524 34.1387 127.422 34.3672 127.321 34.6016C127.426 34.6016 127.592 34.5488 127.819 34.4434C128.049 34.3379 128.327 34.1953 128.651 34.0156C128.979 33.832 129.348 33.6191 129.758 33.377C130.172 33.1309 130.616 32.8691 131.088 32.5918C131.104 32.5762 131.133 32.5684 131.176 32.5684C131.223 32.5684 131.266 32.584 131.305 32.6152C131.348 32.6465 131.37 32.6895 131.37 32.7441C131.37 32.791 131.348 32.8438 131.305 32.9023C131.266 32.957 131.194 33.0156 131.088 33.0781ZM129.471 28.5195C129.495 28.5195 129.537 28.5215 129.6 28.5254C129.666 28.5254 129.741 28.5293 129.823 28.5371C129.905 28.5449 129.991 28.5586 130.08 28.5781C130.17 28.5938 130.252 28.6191 130.327 28.6543C130.401 28.6855 130.463 28.7266 130.514 28.7773C130.565 28.8281 130.592 28.8906 130.596 28.9648L129.746 29.6094L129.36 29.791C129.289 29.791 129.235 29.7715 129.196 29.7324C129.157 29.6934 129.127 29.6523 129.108 29.6094L129.471 28.5195ZM136.41 30.2363C136.633 30.2363 136.83 30.2812 137.002 30.3711C137.178 30.4609 137.324 30.584 137.441 30.7402C137.563 30.8926 137.654 31.0723 137.717 31.2793C137.779 31.4863 137.811 31.707 137.811 31.9414C137.811 32.0781 137.795 32.2285 137.764 32.3926C137.732 32.5566 137.688 32.7266 137.629 32.9023C137.57 33.0742 137.498 33.2461 137.412 33.418C137.33 33.5898 137.238 33.748 137.137 33.8926C137.211 33.8535 137.301 33.8047 137.406 33.7461C137.512 33.6875 137.623 33.625 137.74 33.5586C137.861 33.4883 137.986 33.416 138.115 33.3418C138.248 33.2676 138.377 33.1953 138.502 33.125L139.41 32.5918C139.438 32.5762 139.475 32.5684 139.522 32.5684C139.611 32.5684 139.656 32.6152 139.656 32.709C139.656 32.8379 139.574 32.9609 139.41 33.0781C139.27 33.1719 139.086 33.2891 138.859 33.4297C138.633 33.5703 138.387 33.709 138.121 33.8457C137.859 33.9785 137.592 34.0977 137.318 34.2031C137.049 34.3047 136.797 34.3633 136.563 34.3789C136.258 34.6055 135.9 34.7891 135.49 34.9297C135.08 35.0664 134.602 35.1348 134.055 35.1348C133.785 35.1348 133.557 35.1113 133.369 35.0645C133.186 35.0176 133.037 34.9492 132.924 34.8594C132.811 34.7695 132.729 34.6602 132.678 34.5312C132.627 34.3984 132.602 34.2461 132.602 34.0742C132.602 33.8242 132.652 33.5566 132.754 33.2715C132.856 32.9863 132.981 32.709 133.129 32.4395C133.281 32.166 133.443 31.9121 133.615 31.6777C133.787 31.4434 133.943 31.25 134.084 31.0977C133.959 31.207 133.781 31.3379 133.551 31.4902C133.324 31.6426 133.066 31.8066 132.777 31.9824C132.492 32.1543 132.188 32.334 131.863 32.5215C131.543 32.709 131.225 32.8945 130.908 33.0781C130.861 33.0977 130.818 33.1074 130.779 33.1074C130.729 33.1074 130.69 33.0938 130.662 33.0664C130.635 33.0352 130.621 32.9961 130.621 32.9492C130.621 32.8945 130.645 32.8379 130.691 32.7793C130.734 32.7168 130.807 32.6543 130.908 32.5918C131.502 32.2441 132.008 31.9453 132.426 31.6953C132.844 31.4414 133.205 31.2266 133.51 31.0508C133.815 30.875 134.08 30.7344 134.307 30.6289C134.533 30.5234 134.75 30.4414 134.957 30.3828C135.168 30.3242 135.387 30.2852 135.613 30.2656C135.84 30.2461 136.106 30.2363 136.41 30.2363ZM134.066 34.6309C134.313 34.6309 134.553 34.5801 134.787 34.4785C135.022 34.377 135.25 34.2383 135.473 34.0625C135.422 34.0039 135.387 33.9375 135.367 33.8633C135.348 33.7891 135.338 33.7129 135.338 33.6348C135.338 33.498 135.383 33.3965 135.473 33.3301C135.563 33.2598 135.67 33.2246 135.795 33.2246C135.928 33.2246 136.057 33.2637 136.182 33.3418C136.307 33.252 136.426 33.1445 136.539 33.0195C136.652 32.8945 136.75 32.7617 136.832 32.6211C136.918 32.4805 136.984 32.3359 137.031 32.1875C137.082 32.0391 137.107 31.8945 137.107 31.7539C137.107 31.6328 137.084 31.5176 137.037 31.4082C136.994 31.2949 136.922 31.1973 136.82 31.1152C136.723 31.0332 136.592 30.9688 136.428 30.9219C136.268 30.8711 136.072 30.8457 135.842 30.8457C135.65 30.8457 135.459 30.8965 135.268 30.998C135.08 31.0996 134.899 31.2363 134.723 31.4082C134.551 31.5762 134.389 31.7695 134.236 31.9883C134.088 32.2031 133.959 32.4258 133.85 32.6562C133.74 32.8867 133.654 33.1133 133.592 33.3359C133.529 33.5586 133.498 33.7617 133.498 33.9453C133.498 34.1484 133.543 34.3145 133.633 34.4434C133.723 34.5684 133.867 34.6309 134.066 34.6309ZM146.32 31.2031C146.172 31.2031 145.986 31.2461 145.763 31.332C145.541 31.4141 145.297 31.5293 145.031 31.6777C144.765 31.8223 144.488 31.9941 144.199 32.1934C143.914 32.3926 143.633 32.6094 143.355 32.8438C143.082 33.0781 142.82 33.3262 142.57 33.5879C142.324 33.8457 142.109 34.1055 141.926 34.3672C141.906 34.3867 141.896 34.4316 141.896 34.502C141.896 34.5684 141.885 34.6387 141.861 34.7129C141.842 34.7871 141.801 34.8535 141.738 34.9121C141.676 34.9707 141.572 35 141.428 35C141.326 35 141.246 34.9883 141.187 34.9648C141.133 34.9414 141.09 34.9102 141.058 34.8711C141.031 34.8281 141.013 34.7793 141.006 34.7246C140.998 34.666 140.994 34.6016 140.994 34.5312C140.994 34.4609 141.013 34.3574 141.053 34.2207C141.092 34.084 141.142 33.9258 141.205 33.7461C141.267 33.5664 141.338 33.373 141.416 33.166C141.494 32.959 141.572 32.752 141.65 32.5449C141.732 32.3379 141.808 32.1367 141.879 31.9414C141.953 31.7461 142.015 31.5703 142.066 31.4141L139.236 33.0781C139.217 33.082 139.201 33.0859 139.189 33.0898C139.174 33.0898 139.162 33.0898 139.154 33.0898C139.099 33.0898 139.06 33.0762 139.037 33.0488C139.01 33.0176 138.996 32.9805 138.996 32.9375C138.996 32.8828 139.017 32.8242 139.06 32.7617C139.099 32.6953 139.158 32.6387 139.236 32.5918C139.822 32.2441 140.304 31.959 140.683 31.7363C141.066 31.5098 141.373 31.3281 141.603 31.1914C141.834 31.0547 142.006 30.9531 142.119 30.8867C142.236 30.8203 142.324 30.7715 142.383 30.7402C142.437 30.709 142.486 30.6875 142.529 30.6758C142.576 30.6641 142.627 30.6582 142.681 30.6582C142.795 30.6582 142.886 30.6914 142.957 30.7578C143.031 30.8242 143.068 30.8984 143.068 30.9805C143.068 31.0625 143.043 31.1758 142.992 31.3203C142.941 31.4609 142.879 31.6152 142.804 31.7832C142.73 31.9512 142.654 32.123 142.576 32.2988C142.498 32.4707 142.431 32.6309 142.377 32.7793C142.353 32.8379 142.334 32.8867 142.318 32.9258C142.306 32.9609 142.291 33.002 142.271 33.0488C142.256 33.0957 142.232 33.1562 142.201 33.2305C142.17 33.3008 142.125 33.4004 142.066 33.5293C142.23 33.3184 142.422 33.0977 142.64 32.8672C142.863 32.6367 143.103 32.4121 143.361 32.1934C143.623 31.9707 143.9 31.7598 144.193 31.5605C144.49 31.3613 144.795 31.1875 145.107 31.0391C145.424 30.8867 145.746 30.7676 146.074 30.6816C146.402 30.5918 146.728 30.5469 147.053 30.5469C147.252 30.5469 147.388 30.5898 147.463 30.6758C147.541 30.7578 147.58 30.8711 147.58 31.0156C147.58 31.1328 147.558 31.2754 147.515 31.4434C147.472 31.6113 147.414 31.7949 147.34 31.9941C147.265 32.1895 147.181 32.4004 147.088 32.627C146.994 32.8496 146.894 33.0762 146.789 33.3066C146.687 33.5332 146.584 33.7617 146.478 33.9922C146.377 34.2227 146.281 34.4434 146.191 34.6543C146.414 34.5645 146.646 34.4473 146.888 34.3027C147.131 34.1582 147.388 33.9961 147.662 33.8164C147.939 33.6367 148.23 33.4434 148.535 33.2363C148.844 33.0254 149.174 32.8105 149.525 32.5918C149.553 32.5762 149.59 32.5684 149.636 32.5684C149.73 32.5684 149.777 32.6211 149.777 32.7266C149.777 32.7812 149.756 32.8418 149.713 32.9082C149.67 32.9707 149.607 33.0273 149.525 33.0781C149.06 33.3672 148.64 33.6426 148.265 33.9043C147.89 34.166 147.547 34.3984 147.234 34.6016C146.926 34.8047 146.642 34.9648 146.385 35.082C146.131 35.2031 145.894 35.2637 145.676 35.2637C145.543 35.2637 145.429 35.2461 145.336 35.2109C145.242 35.1797 145.164 35.1367 145.101 35.082C145.043 35.0273 144.998 34.9629 144.967 34.8887C144.939 34.8105 144.926 34.7305 144.926 34.6484C144.926 34.5586 144.943 34.4707 144.978 34.3848C145.017 34.2949 145.07 34.1992 145.136 34.0977C145.258 33.832 145.392 33.5547 145.541 33.2656C145.689 32.9727 145.826 32.6953 145.951 32.4336C146.076 32.1719 146.181 31.9395 146.267 31.7363C146.353 31.5332 146.396 31.3867 146.396 31.2969C146.396 31.2344 146.371 31.2031 146.32 31.2031Z" fill="black"/>
<path d="M38.1445 60.1973L38.6719 59.3711L39.2051 58.5684C39.084 58.5293 38.9473 58.4766 38.7949 58.4102L38.1445 60.1973ZM35.4492 53.4766C35.4492 53.7852 35.4941 54.1055 35.584 54.4375C35.6699 54.7695 35.8086 55.1016 36 55.4336C36.1914 55.7656 36.4395 56.0938 36.7441 56.418C37.0527 56.7422 37.4238 57.0508 37.8574 57.3438L38.6777 55.0176C38.8613 54.4902 39 54.0762 39.0938 53.7754C39.2109 53.4121 39.2695 53.0684 39.2695 52.7441C39.2695 52.4199 39.2285 52.1426 39.1465 51.9121C39.0684 51.6777 38.9609 51.4863 38.8242 51.3379C38.6875 51.1855 38.5293 51.0742 38.3496 51.0039C38.1738 50.9336 37.9863 50.8984 37.7871 50.8984C37.5176 50.8984 37.2441 50.959 36.9668 51.0801C36.6934 51.2012 36.4434 51.375 36.2168 51.6016C35.9902 51.8242 35.8066 52.0957 35.666 52.416C35.5215 52.7324 35.4492 53.0859 35.4492 53.4766ZM38.9531 57.9707C39.0273 58.0098 39.1094 58.0508 39.1992 58.0938L39.457 58.2051L40.5234 56.6934L41.543 55.3164L42.4688 54.1094L43.248 53.1016L43.8398 52.3281C44.0039 52.1133 44.123 51.9453 44.1973 51.8242L44.2441 51.7539L44.3555 51.5898L44.4902 51.4023C44.5332 51.3438 44.5664 51.3027 44.5898 51.2793L44.6895 51.1738C44.7402 51.1973 44.7793 51.2266 44.8066 51.2617C44.8379 51.2969 44.8594 51.332 44.8711 51.3672C44.8867 51.4023 44.8965 51.4375 44.9004 51.4727C44.9043 51.5039 44.9062 51.5312 44.9062 51.5547L44.9238 51.8535C44.9316 51.9902 44.9375 52.1348 44.9414 52.2871C44.9492 52.4395 44.9531 52.5996 44.9531 52.7676C44.9531 53.3184 44.9375 53.8906 44.9062 54.4844C44.875 55.0742 44.834 55.668 44.7832 56.2656C44.7363 56.8633 44.6836 57.457 44.625 58.0469L44.4434 59.7461L44.8945 58.7148L45.4336 57.5664L46.0312 56.3359L46.6523 55.0996L47.2617 53.8984L47.8301 52.7852L48.3281 51.8242L48.7207 51.0566C48.7988 50.9043 48.875 50.7832 48.9492 50.6934C49.0273 50.5996 49.1094 50.5273 49.1953 50.4766C49.2852 50.4219 49.3789 50.3848 49.4766 50.3652C49.5781 50.3457 49.6895 50.3359 49.8105 50.3359C49.9434 50.3359 50.0605 50.3613 50.1621 50.4121C50.2637 50.459 50.3496 50.5215 50.4199 50.5996C50.4902 50.6738 50.543 50.7598 50.5781 50.8574C50.6133 50.9512 50.6309 51.0449 50.6309 51.1387C50.6309 51.2207 50.6172 51.3008 50.5898 51.3789C50.5664 51.4531 50.5273 51.5195 50.4727 51.5781C50.418 51.6367 50.3496 51.6836 50.2676 51.7188C50.1855 51.7539 50.0898 51.7715 49.9805 51.7715C49.8477 51.7715 49.7031 51.834 49.5469 51.959C49.3906 52.084 49.2266 52.248 49.0547 52.4512C48.8867 52.6504 48.7168 52.8789 48.5449 53.1367L48.041 53.9336L47.5781 54.7129L47.1914 55.3867L46.4531 56.9102L45.668 58.5625L44.8242 60.3789L43.9395 62.3887C43.877 62.5293 43.8008 62.6504 43.7109 62.752C43.625 62.8535 43.5332 62.9082 43.4355 62.916C43.334 62.916 43.2539 62.8848 43.1953 62.8223C43.1406 62.7637 43.0996 62.6777 43.0723 62.5645C43.0449 62.4551 43.0273 62.3223 43.0195 62.166C43.0156 62.0137 43.0137 61.8438 43.0137 61.6562C43.0137 61.2734 43.0234 60.8633 43.043 60.4258C43.0625 59.9844 43.0898 59.5352 43.125 59.0781C43.1602 58.6211 43.1992 58.166 43.2422 57.7129C43.2852 57.2598 43.3281 56.8262 43.3711 56.4121C43.418 55.9941 43.4629 55.6055 43.5059 55.2461C43.5488 54.8867 43.5879 54.5742 43.623 54.3086L43.7109 53.6875C43.7305 53.5508 43.7422 53.4766 43.7461 53.4648L42.5508 55.0762L41.9883 55.8379L41.3613 56.6758L40.7109 57.5547L40.0605 58.4395C40.3926 58.5605 40.7344 58.6719 41.0859 58.7734C41.4414 58.875 41.8262 58.9688 42.2402 59.0547L42.1699 59.207C41.7324 59.1641 41.3203 59.1055 40.9336 59.0312C40.5469 58.957 40.1758 58.8691 39.8203 58.7676L37.752 61.5391L37.4414 61.9609C37.332 62.1172 37.2188 62.2637 37.1016 62.4004C36.9883 62.541 36.875 62.6582 36.7617 62.752C36.6484 62.8457 36.543 62.8926 36.4453 62.8926C36.4141 62.8926 36.375 62.8848 36.3281 62.8691C36.2812 62.8574 36.2363 62.8379 36.1934 62.8105C36.1504 62.7832 36.1133 62.752 36.082 62.7168C36.0508 62.6816 36.0352 62.6426 36.0352 62.5996C36.0352 62.5879 36.0742 62.4688 36.1523 62.2422L36.4805 61.293L36.9961 59.8047L37.6758 57.8594C37.1758 57.5625 36.7461 57.2363 36.3867 56.8809C36.0273 56.5254 35.7324 56.1562 35.502 55.7734C35.2715 55.3906 35.1016 55.0039 34.9922 54.6133C34.8828 54.2188 34.8281 53.8359 34.8281 53.4648C34.8281 52.9766 34.9238 52.5469 35.1152 52.1758C35.3066 51.8047 35.5566 51.4941 35.8652 51.2441C36.1699 50.9941 36.5156 50.8047 36.9023 50.6758C37.2852 50.5508 37.6699 50.4883 38.0566 50.4883C38.3887 50.4883 38.707 50.5352 39.0117 50.6289C39.3203 50.7227 39.5918 50.8633 39.8262 51.0508C40.0645 51.2383 40.2539 51.4727 40.3945 51.7539C40.5352 52.0352 40.6055 52.3652 40.6055 52.7441C40.6055 52.9785 40.5781 53.2285 40.5234 53.4941C40.4766 53.748 40.3945 54.0332 40.2773 54.3496L38.9531 57.9707ZM46.7419 59.0781C46.7028 59.1055 46.6579 59.1191 46.6071 59.1191C46.5563 59.1191 46.5153 59.1055 46.4841 59.0781C46.4528 59.0469 46.4372 59.0078 46.4372 58.9609C46.4372 58.9102 46.4606 58.8535 46.5075 58.791C46.5505 58.7246 46.6286 58.6582 46.7419 58.5918L48.2243 57.7188C48.3337 57.4102 48.4743 57.1445 48.6462 56.9219C48.822 56.6953 49.0134 56.5098 49.2204 56.3652C49.4313 56.2168 49.6501 56.1074 49.8766 56.0371C50.1071 55.9629 50.3298 55.9258 50.5446 55.9258C50.7634 55.9258 50.943 55.9844 51.0837 56.1016C51.2282 56.2148 51.3005 56.3926 51.3005 56.6348C51.3005 56.7832 51.2458 56.9395 51.1364 57.1035C51.0309 57.2637 50.8845 57.4238 50.697 57.584C50.5134 57.7402 50.2966 57.8867 50.0466 58.0234C49.7966 58.1602 49.5309 58.2754 49.2497 58.3691C49.2497 58.5566 49.2458 58.7344 49.238 58.9023C49.2341 59.0703 49.2321 59.2285 49.2321 59.377C49.2321 59.502 49.236 59.6172 49.2438 59.7227C49.2516 59.8242 49.2673 59.9121 49.2907 59.9863C49.318 60.0566 49.3532 60.1133 49.3962 60.1562C49.443 60.1953 49.5016 60.2148 49.572 60.2148C49.6813 60.2148 49.8122 60.1719 49.9645 60.0859C50.1208 59.9961 50.3161 59.8828 50.5505 59.7461C50.7614 59.6211 51.0309 59.4648 51.3591 59.2773C51.6872 59.0898 52.0876 58.8613 52.5602 58.5918C52.5759 58.5801 52.5973 58.5742 52.6247 58.5742C52.6677 58.5742 52.7048 58.5938 52.736 58.6328C52.7712 58.668 52.7887 58.7129 52.7887 58.7676C52.7887 58.8145 52.7712 58.8652 52.736 58.9199C52.7048 58.9746 52.6462 59.0273 52.5602 59.0781C52.1735 59.3086 51.7985 59.543 51.4352 59.7812C51.072 60.0156 50.7282 60.2305 50.404 60.4258C50.0837 60.6172 49.7868 60.7754 49.5134 60.9004C49.2399 61.0215 49.0016 61.082 48.7985 61.082C48.6618 61.082 48.5407 61.0527 48.4352 60.9941C48.3337 60.9355 48.2458 60.8418 48.1716 60.7129C48.1012 60.584 48.0466 60.416 48.0075 60.209C47.9723 59.998 47.9548 59.7422 47.9548 59.4414C47.9548 59.3945 47.9567 59.3203 47.9606 59.2188C47.9684 59.1133 47.9782 59.002 47.9899 58.8848C48.0055 58.7637 48.0231 58.6465 48.0427 58.5332C48.0622 58.4199 48.0856 58.332 48.113 58.2695C48.0856 58.2852 48.0446 58.3086 47.9899 58.3398C47.9391 58.3711 47.8786 58.4082 47.8083 58.4512C47.738 58.4902 47.6637 58.5332 47.5856 58.5801C47.5075 58.627 47.4294 58.6738 47.3512 58.7207L46.7419 59.0781ZM50.6677 56.6816C50.6755 56.6582 50.6794 56.6328 50.6794 56.6055C50.6794 56.5078 50.6618 56.4355 50.6266 56.3887C50.5954 56.3418 50.5407 56.3184 50.4626 56.3184C50.3727 56.3184 50.2692 56.3535 50.152 56.4238C50.0348 56.4902 49.9196 56.5898 49.8063 56.7227C49.697 56.8555 49.5973 57.0215 49.5075 57.2207C49.4216 57.4199 49.363 57.6484 49.3317 57.9062C49.4919 57.8242 49.6481 57.7305 49.8005 57.625C49.9528 57.5156 50.0895 57.4062 50.2106 57.2969C50.3356 57.1836 50.4372 57.0742 50.5153 56.9688C50.5973 56.8594 50.6481 56.7637 50.6677 56.6816ZM57.7474 60.4434C57.7084 60.4512 57.6712 60.457 57.6361 60.4609C57.6048 60.4609 57.5736 60.4629 57.5423 60.4668C57.2845 60.6777 56.9798 60.8418 56.6283 60.959C56.2767 61.0762 55.8822 61.1348 55.4447 61.1348C55.1752 61.1348 54.9466 61.1113 54.7591 61.0645C54.5755 61.0176 54.4271 60.9492 54.3138 60.8594C54.2005 60.7695 54.1185 60.6602 54.0677 60.5312C54.017 60.3984 53.9916 60.2461 53.9916 60.0742C53.9916 59.7422 54.0423 59.3848 54.1439 59.002C54.2455 58.6191 54.3841 58.2207 54.5599 57.8066L52.3861 59.0781C52.3548 59.0977 52.3216 59.1074 52.2865 59.1074C52.2474 59.1074 52.2181 59.0918 52.1986 59.0605C52.1752 59.0293 52.1634 58.9902 52.1634 58.9434C52.1634 58.8887 52.181 58.8281 52.2162 58.7617C52.2513 58.6953 52.308 58.6387 52.3861 58.5918L54.8763 57.1211C55.0755 56.7266 55.2962 56.3359 55.5384 55.9492C55.7806 55.5625 56.0326 55.1953 56.2943 54.8477C56.556 54.4961 56.8216 54.1699 57.0912 53.8691C57.3646 53.5684 57.6283 53.3086 57.8822 53.0898C58.14 52.8711 58.3822 52.6992 58.6087 52.5742C58.8392 52.4492 59.0443 52.3867 59.224 52.3867C59.5287 52.3867 59.7494 52.4375 59.8861 52.5391C60.0228 52.6406 60.0912 52.7793 60.0912 52.9551C60.0912 53.1113 60.0423 53.291 59.9447 53.4941C59.847 53.6934 59.7084 53.9082 59.5287 54.1387C59.3529 54.3652 59.142 54.6016 58.8959 54.8477C58.6537 55.0898 58.3861 55.3301 58.0931 55.5684C57.8041 55.8027 57.4935 56.0312 57.1615 56.2539C56.8334 56.4766 56.4974 56.6797 56.1537 56.8633C56.2279 56.8438 56.3002 56.832 56.3705 56.8281C56.4408 56.8203 56.5111 56.8164 56.5814 56.8164C56.8431 56.8164 57.0912 56.8652 57.3255 56.9629C57.5638 57.0566 57.7709 57.1797 57.9466 57.332C58.1263 57.4805 58.2689 57.6445 58.3744 57.8242C58.4798 58.0039 58.5326 58.1777 58.5326 58.3457C58.5326 58.6387 58.4935 58.918 58.4154 59.1836C58.3373 59.4492 58.2162 59.6953 58.0521 59.9219L60.3021 58.5918C60.3412 58.5801 60.3783 58.5742 60.4134 58.5742C60.5072 58.5742 60.5541 58.6211 60.5541 58.7148C60.5541 58.8594 60.4701 58.9805 60.3021 59.0781C60.2162 59.1289 60.1029 59.1973 59.9623 59.2832C59.8255 59.3652 59.6752 59.4551 59.5111 59.5527C59.347 59.6504 59.1771 59.75 59.0013 59.8516C58.8255 59.9492 58.6576 60.041 58.4974 60.127C58.3373 60.209 58.1908 60.2793 58.058 60.3379C57.9252 60.3965 57.8216 60.4316 57.7474 60.4434ZM57.6537 58.9258C57.6537 58.707 57.5912 58.5156 57.4662 58.3516C57.3451 58.1836 57.1849 58.0371 56.9857 57.9121C56.7865 57.7832 56.5619 57.6719 56.3119 57.5781C56.0619 57.4844 55.808 57.3984 55.5502 57.3203C55.3509 57.7812 55.1927 58.2324 55.0755 58.6738C54.9623 59.1152 54.9056 59.543 54.9056 59.957C54.9056 60.1562 54.9486 60.3184 55.0345 60.4434C55.1244 60.5684 55.265 60.6309 55.4564 60.6309C55.8119 60.6309 56.1107 60.6016 56.3529 60.543C56.599 60.4805 56.806 60.3965 56.974 60.291C56.8724 60.2051 56.7982 60.1035 56.7513 59.9863C56.7045 59.8652 56.681 59.748 56.681 59.6348C56.681 59.5059 56.724 59.4102 56.8099 59.3477C56.8959 59.2812 56.9994 59.248 57.1205 59.248C57.1986 59.248 57.2787 59.2637 57.3607 59.2949C57.4466 59.3223 57.5248 59.3633 57.5951 59.418C57.6341 59.2773 57.6537 59.1133 57.6537 58.9258ZM59.2767 52.7324C59.1595 52.7324 59.0209 52.7793 58.8607 52.873C58.7005 52.9629 58.5267 53.0918 58.3392 53.2598C58.1556 53.4238 57.9642 53.6191 57.765 53.8457C57.5658 54.0723 57.3685 54.3223 57.1732 54.5957C56.9818 54.8652 56.7962 55.1523 56.6166 55.457C56.4369 55.7578 56.2748 56.0664 56.1302 56.3828C56.2904 56.2891 56.4877 56.1582 56.722 55.9902C56.9564 55.8223 57.2045 55.6348 57.4662 55.4277C57.7279 55.2168 57.9877 54.9961 58.2455 54.7656C58.5072 54.5312 58.7416 54.3047 58.9486 54.0859C59.1595 53.8672 59.3295 53.6641 59.4584 53.4766C59.5873 53.2891 59.6517 53.1328 59.6517 53.0078C59.6517 52.9219 59.6224 52.8555 59.5638 52.8086C59.5052 52.7578 59.4095 52.7324 59.2767 52.7324Z" fill="black"/>
</svg>
